<svg width="48" height="48" viewBox="0 0 48 48" fill="none" xmlns="http://www.w3.org/2000/svg">
<g clip-path="url(#clip0_3344_4693)">
<path d="M24.0002 47.2802C36.8574 47.2802 47.2802 36.8574 47.2802 24.0002C47.2802 11.143 36.8574 0.720215 24.0002 0.720215C11.143 0.720215 0.720215 11.143 0.720215 24.0002C0.720215 36.8574 11.143 47.2802 24.0002 47.2802Z" fill="url(#paint0_linear_3344_4693)"/>
<path d="M34.1882 33.2763L26.3162 14.2443C25.8722 13.2603 25.2122 12.7803 24.3422 12.7803H23.6462C22.7762 12.7803 22.1162 13.2603 21.6722 14.2443L18.2462 22.5363H15.6542C14.8802 22.5423 14.2502 23.1663 14.2442 23.9463V23.9643C14.2502 24.7383 14.8802 25.3683 15.6542 25.3743H17.0462L13.7762 33.2763C13.7162 33.4503 13.6802 33.6303 13.6802 33.8163C13.6802 34.2603 13.8182 34.6083 14.0642 34.8783C14.3102 35.1483 14.6642 35.2803 15.1082 35.2803C15.4022 35.2743 15.6842 35.1843 15.9182 35.0103C16.1702 34.8363 16.3442 34.5843 16.4822 34.2963L20.0822 25.3683H22.5782C23.3522 25.3623 23.9822 24.7383 23.9882 23.9583V23.9223C23.9822 23.1483 23.3522 22.5183 22.5782 22.5123H21.2462L23.9942 15.6663L31.4822 34.2903C31.6202 34.5783 31.7942 34.8303 32.0462 35.0043C32.2802 35.1783 32.5682 35.2683 32.8562 35.2743C33.3002 35.2743 33.6482 35.1423 33.9002 34.8723C34.1522 34.6023 34.2842 34.2543 34.2842 33.8103C34.2902 33.6303 34.2602 33.4443 34.1882 33.2763Z" fill="white"/>
</g>
<defs>
<linearGradient id="paint0_linear_3344_4693" x1="41.3574" y1="9.3954" x2="6.71681" y2="38.542" gradientUnits="userSpaceOnUse">
<stop stop-color="#B6509E"/>
<stop offset="1" stop-color="#2EBAC6"/>
</linearGradient>
<clipPath id="clip0_3344_4693">
<rect width="48" height="48" fill="white"/>
</clipPath>
</defs>
</svg>
