<svg width="48" height="48" viewBox="0 0 48 48" fill="none" xmlns="http://www.w3.org/2000/svg">
<circle cx="24" cy="24" r="24" fill="#212121"/>
<path d="M12.2826 19.2609C12.0253 20.1886 11.893 21.1457 11.8893 22.1076C11.8893 22.1752 11.8893 22.2412 11.8893 22.3073C11.8975 23.4698 11.7654 24.6291 11.496 25.7608C10.9532 25.5704 10.3947 25.1851 9.8614 24.5177C8.45807 22.7618 8.92454 19.9461 10.6551 19.2834C11.3096 19.0332 11.8571 19.0861 12.285 19.25C12.2838 19.2535 12.283 19.2572 12.2826 19.2609Z" fill="#A16552"/>
<path d="M12.2826 19.2609C12.0253 20.1886 11.893 21.1457 11.8893 22.1076C11.8893 22.1752 11.8893 22.2412 11.8893 22.3073C11.8975 23.4698 11.7654 24.6291 11.496 25.7608C10.9532 25.5704 10.3947 25.1851 9.8614 24.5177C8.45807 22.7618 8.92454 19.9461 10.6551 19.2834C11.3096 19.0332 11.8571 19.0861 12.285 19.25C12.2838 19.2535 12.283 19.2572 12.2826 19.2609Z" fill="#F5DCB4"/>
<path d="M38.1397 24.5184C37.6072 25.1842 37.0479 25.5696 36.5052 25.7615C36.2361 24.63 36.104 23.471 36.1118 22.3087C36.1118 22.2427 36.1118 22.1767 36.1118 22.1091C36.1083 21.1433 35.9747 20.1824 35.7146 19.2515C36.1425 19.0875 36.69 19.0347 37.3445 19.2849C39.075 19.9461 39.5423 22.7617 38.1397 24.5184Z" fill="#A16552"/>
<path d="M38.1397 24.5184C37.6072 25.1842 37.0479 25.5696 36.5052 25.7615C36.2361 24.63 36.104 23.471 36.1118 22.3087C36.1118 22.2427 36.1118 22.1767 36.1118 22.1091C36.1083 21.1433 35.9747 20.1824 35.7146 19.2515C36.1425 19.0875 36.69 19.0347 37.3445 19.2849C39.075 19.9461 39.5423 22.7617 38.1397 24.5184Z" fill="#F5DCB4"/>
<path d="M32.7475 25.7967C32.231 26.5845 32.1042 27.5613 32.403 28.4523C32.6335 29.122 32.8395 29.8803 32.8395 30.4444C32.838 34.5715 28.8821 37.9124 24.0003 37.9124C19.1186 37.9124 15.1603 34.5715 15.1603 30.4444C15.1603 29.8803 15.3664 29.1236 15.5969 28.4523C15.8959 27.5617 15.7695 26.5851 15.2531 25.7975C14.7557 25.0284 14.4905 24.1353 14.4885 23.2227C14.4885 20.484 16.8484 18.2627 19.7628 18.2627C20.7036 18.2604 21.6291 18.4986 22.4491 18.9542C23.4109 19.4946 24.5898 19.4946 25.5515 18.9542C26.3713 18.4988 27.2965 18.2608 28.237 18.2635C31.1475 18.2635 33.5121 20.4848 33.5121 23.2235C33.5129 23.9077 33.3634 24.5839 33.074 25.2055C32.9793 25.4099 32.8702 25.6075 32.7475 25.7967Z" fill="#A16552"/>
<path d="M32.7475 25.7967C32.231 26.5845 32.1042 27.5613 32.403 28.4523C32.6335 29.122 32.8395 29.8803 32.8395 30.4444C32.838 34.5715 28.8821 37.9124 24.0003 37.9124C19.1186 37.9124 15.1603 34.5715 15.1603 30.4444C15.1603 29.8803 15.3664 29.1236 15.5969 28.4523C15.8959 27.5617 15.7695 26.5851 15.2531 25.7975C14.7557 25.0284 14.4905 24.1353 14.4885 23.2227C14.4885 20.484 16.8484 18.2627 19.7628 18.2627C20.7036 18.2604 21.6291 18.4986 22.4491 18.9542C23.4109 19.4946 24.5898 19.4946 25.5515 18.9542C26.3713 18.4988 27.2965 18.2608 28.237 18.2635C31.1475 18.2635 33.5121 20.4848 33.5121 23.2235C33.5129 23.9077 33.3634 24.5839 33.074 25.2055C32.9793 25.4099 32.8702 25.6075 32.7475 25.7967Z" fill="#F5DCB4"/>
<path d="M19.4976 31.3672C19.3513 31.3669 19.212 31.4289 19.1154 31.5374C19.0188 31.6459 18.9743 31.7903 18.9933 31.9336C19.308 34.144 21.4319 35.8533 24.0002 35.8533C26.5685 35.8533 28.6939 34.144 29.007 31.9336C29.026 31.7905 28.9816 31.6462 28.8852 31.5377C28.7888 31.4292 28.6497 31.3671 28.5036 31.3672H19.4976Z" fill="#4E3F3F"/>
<path d="M21.092 35.0304C22.8717 36.1274 25.1286 36.1274 26.9083 35.0304C26.5433 33.7826 25.3768 34.0701 23.9978 34.0701C22.6189 34.0701 21.457 33.7826 21.092 35.0304Z" fill="#E6646E"/>
<path fill-rule="evenodd" clip-rule="evenodd" d="M35.4833 18.5035C36.0669 18.1717 36.8968 17.9604 37.943 18.3613C40.1408 19.2027 40.7347 22.7821 38.9522 25.0127C38.2262 25.921 37.4616 26.4182 36.7245 26.6396C36.7316 26.6675 36.7379 26.6957 36.7442 26.724L36.7529 26.7624C36.8855 27.3624 36.9522 27.9748 36.9519 28.589C36.9519 34.3383 31.1537 39 24.001 39H23.861C23.271 38.9962 22.6817 38.9598 22.0958 38.8912C20.9672 38.7596 19.8573 38.5023 18.7873 38.1244C14.2296 36.5138 11.0485 32.8489 11.0485 28.589C11.0483 27.9753 11.115 27.3634 11.2475 26.7639C11.2562 26.7228 11.2656 26.6816 11.2751 26.6412C10.5419 26.4198 9.7742 25.9225 9.04737 25.015C7.26568 22.7821 7.85879 19.2035 10.0574 18.3613C11.0588 17.9783 11.8627 18.1554 12.4416 18.4623L12.5164 18.5035C12.6596 18.0892 12.8239 17.6823 13.0088 17.2845C13.1436 16.9928 13.2896 16.7056 13.4469 16.4228C15.0477 13.5318 17.7348 11.1303 20.8262 10.1156C20.9709 9.8297 21.8968 8.16005 23.7571 8.01088C23.8523 8 23.9499 8 24.0498 8L24.1355 8.35895L24.4273 9.60206C24.5768 9.60827 24.7231 9.61837 24.871 9.63158L25.1117 9.65799L27.1113 8.47238L27.1742 10.1148C30.2609 11.1295 32.9527 13.5303 34.5535 16.4228C34.7103 16.7062 34.8563 16.9934 34.9916 17.2845C35.1767 17.6821 35.3408 18.089 35.4833 18.5035ZM11.8894 22.1077C11.8931 21.1459 12.0254 20.1887 12.2827 19.261C12.2832 19.2573 12.284 19.2537 12.2851 19.2501C11.8572 19.0862 11.3097 19.0334 10.6552 19.2835C8.92466 19.9463 8.45819 22.7619 9.86152 24.5178C10.3948 25.1852 10.9533 25.5706 11.4961 25.7609C11.7655 24.6292 11.8976 23.4699 11.8894 22.3074V22.1077ZM33.0738 25.2054C32.9792 25.4098 32.8701 25.6074 32.7474 25.7966C32.2309 26.5845 32.1041 27.5612 32.4029 28.4522C32.6333 29.122 32.8394 29.8803 32.8394 30.4443C32.8379 34.5714 28.882 37.9123 24.0002 37.9123C19.1184 37.9123 15.1602 34.5714 15.1602 30.4443C15.1602 29.8803 15.3663 29.1235 15.5968 28.4522C15.8958 27.5616 15.7694 26.585 15.253 25.7974C14.7556 25.0284 14.4904 24.1352 14.4884 23.2226C14.4884 20.4839 16.8483 18.2626 19.7627 18.2626C20.7035 18.2603 21.629 18.4985 22.449 18.9541C23.4108 19.4945 24.5896 19.4945 25.5514 18.9541C26.3712 18.4987 27.2964 18.2607 28.2369 18.2634C31.1474 18.2634 33.512 20.4847 33.512 23.2234C33.5128 23.9076 33.3633 24.5838 33.0738 25.2054ZM36.5051 25.7617C37.0478 25.5698 37.6071 25.1844 38.1397 24.5186C39.5422 22.7619 39.075 19.9463 37.3444 19.2851C36.6899 19.0349 36.1424 19.0877 35.7145 19.2517C35.9746 20.1826 36.1082 21.1436 36.1118 22.1093V22.3089C36.1039 23.4712 36.236 24.6302 36.5051 25.7617Z" fill="#A16552"/>
<path d="M22.0098 28.2024C21.7968 28.1063 21.703 27.8549 21.8011 27.6427C21.8979 27.4334 22.1454 27.3411 22.3556 27.436L23.3435 27.8817C23.5566 27.9778 23.6504 28.2292 23.5522 28.4414C23.4554 28.6508 23.208 28.743 22.9977 28.6481L22.0098 28.2024Z" fill="#4E3F3F"/>
<path d="M25.0024 28.6496C24.7921 28.7444 24.5447 28.6522 24.4479 28.4428C24.3498 28.2306 24.4435 27.9792 24.6566 27.8831L25.6445 27.4374C25.8548 27.3425 26.1022 27.4348 26.199 27.6441C26.2971 27.8563 26.2034 28.1077 25.9903 28.2038L25.0024 28.6496Z" fill="#4E3F3F"/>
<path d="M19.4583 25.2036C18.6222 25.2036 17.9441 24.5697 17.9441 23.7865V23.3141C17.9441 22.5317 18.6222 21.897 19.4583 21.897C20.2945 21.897 20.9718 22.5317 20.9718 23.3141V23.7865C20.9718 24.5697 20.2945 25.2036 19.4583 25.2036Z" fill="#4E3F3F"/>
<path d="M19.4583 21.897V23.5503C19.4767 23.9499 19.81 24.2644 20.215 24.2644C20.6199 24.2644 20.9533 23.9499 20.9717 23.5503V23.3172C20.9717 22.5286 20.2944 21.897 19.4583 21.897Z" fill="#5D5360"/>
<ellipse cx="19.4584" cy="22.842" rx="0.505009" ry="0.472381" fill="white"/>
<path d="M28.542 25.2036C27.7058 25.2036 27.0286 24.5697 27.0286 23.7865V23.3141C27.0286 22.5317 27.7058 21.897 28.542 21.897C29.3782 21.897 30.0563 22.5317 30.0563 23.3141V23.7865C30.0563 24.5697 29.3766 25.2036 28.542 25.2036Z" fill="#4E3F3F"/>
<path d="M28.5422 21.897V23.5503C28.5647 23.9471 28.897 24.2575 29.2994 24.2575C29.7017 24.2575 30.034 23.9471 30.0565 23.5503V23.3172C30.0565 22.5286 29.3768 21.897 28.5422 21.897Z" fill="#5D5360"/>
<ellipse cx="28.5421" cy="22.842" rx="0.50501" ry="0.472381" fill="white"/>
</svg>
