<svg width="48" height="48" viewBox="0 0 48 48" fill="none" xmlns="http://www.w3.org/2000/svg">
<g clip-path="url(#clip0_3344_10)">
<path d="M24 48C37.2548 48 48 37.2548 48 24C48 10.7452 37.2548 0 24 0C10.7452 0 0 10.7452 0 24C0 37.2548 10.7452 48 24 48Z" fill="#1E1E1E"/>
<path d="M24.138 34.7939C15.777 34.7939 9 32.3789 9 29.1419C9 27.4529 10.845 25.9319 13.8 24.8579C16.107 26.3384 19.9755 27.0974 24.363 27.0974C28.647 27.0974 32.433 26.1719 34.758 24.7544C37.5465 25.8149 39.2775 27.2954 39.2775 28.9274C39.2775 32.1689 32.5005 34.7939 24.138 34.7939Z" fill="white"/>
<path d="M24.228 26.37C17.889 26.37 12.75 24.3825 12.75 21.93C12.75 20.571 14.334 19.353 16.818 18.5415C18.591 19.467 21.2475 20.058 24.228 20.058C27.2085 20.058 29.865 19.467 31.638 18.543C34.1265 19.3575 35.706 20.571 35.706 21.93C35.7105 24.3825 30.57 26.37 24.228 26.37Z" fill="white"/>
<path d="M24.186 19.32C19.2855 19.32 15.312 17.679 15.312 15.66C15.312 13.6425 19.287 12 24.186 12C29.085 12 33.06 13.6425 33.06 15.66C33.06 17.679 29.085 19.32 24.186 19.32Z" fill="white"/>
</g>
<defs>
<clipPath id="clip0_3344_10">
<rect width="48" height="48" fill="white"/>
</clipPath>
</defs>
</svg>
