<svg width="48" height="48" viewBox="0 0 48 48" fill="none" xmlns="http://www.w3.org/2000/svg">
<g clip-path="url(#clip0_3344_10107)">
<path d="M24 48C37.2548 48 48 37.2548 48 24C48 10.7452 37.2548 0 24 0C10.7452 0 0 10.7452 0 24C0 37.2548 10.7452 48 24 48Z" fill="black"/>
<path d="M41.6143 20.3083C41.3771 19.156 41.0264 18.03 40.5673 16.9468C40.1149 15.8799 39.5614 14.8587 38.9143 13.8973C38.2727 12.9475 37.5408 12.0618 36.7288 11.2528C35.9193 10.4407 35.0332 9.70884 34.0828 9.06729C33.12 8.42346 32.0996 7.8701 31.0348 7.41429C28.8328 6.48033 26.4653 5.99902 24.0733 5.99902C21.6814 5.99902 19.3139 6.48033 17.1118 7.41429C14.9825 8.31243 13.0485 9.61672 11.4178 11.2543C10.6059 12.0629 9.87404 12.948 9.23233 13.8973C8.58842 14.8606 8.03505 15.8815 7.57933 16.9468C6.64537 19.1489 6.16406 21.5163 6.16406 23.9083C6.16406 26.3002 6.64537 28.6677 7.57933 30.8698C8.02033 31.9348 8.59033 32.9443 9.23233 33.9178C9.874 34.868 10.6059 35.7542 11.4178 36.5638C12.2274 37.3758 13.1135 38.1077 14.0638 38.7493C15.0178 39.3913 16.0468 39.9433 17.1118 40.4023C19.3139 41.3362 21.6814 41.8176 24.0733 41.8176C26.4653 41.8176 28.8328 41.3362 31.0348 40.4023C32.0998 39.9613 33.1093 39.3913 34.0828 38.7493C35.0332 38.1077 35.9193 37.3758 36.7288 36.5638C37.5409 35.7543 38.2728 34.8681 38.9143 33.9178C39.5563 32.9638 40.1083 31.9348 40.5673 30.8698C41.9804 27.5372 42.3456 23.8534 41.6143 20.3083ZM24.0898 39.5758C15.4393 39.5758 8.44183 32.5588 8.44183 23.9263C8.44183 15.2938 15.4588 8.27679 24.0898 8.27679C32.7223 8.27679 39.7393 15.2938 39.7393 23.9263C39.7393 32.5588 32.7238 39.5758 24.0898 39.5758Z" fill="white"/>
<path d="M24.3671 38.2167H24.7901C24.8636 38.2167 24.9356 38.2167 25.0091 38.1972H25.0286C25.1021 38.1972 25.1561 38.1972 25.2296 38.1792H25.2851C25.3406 38.1792 25.3961 38.1792 25.4501 38.1612H25.5056C25.5611 38.1612 25.6166 38.1432 25.6901 38.1432H25.7261C25.7996 38.1432 25.8731 38.1237 25.9466 38.1237C26.0201 38.1237 26.0756 38.1057 26.1491 38.0877H26.1851C26.2406 38.0877 26.2961 38.0697 26.3501 38.0697H26.3876C26.4611 38.0502 26.5166 38.0502 26.5901 38.0322C26.7356 38.0142 26.8826 37.9767 27.0116 37.9407H27.0491C27.1031 37.9227 27.1766 37.9227 27.2321 37.9032H27.2501C27.3971 37.8672 27.5261 37.8297 27.6731 37.7937C26.2974 37.8373 24.9216 37.7078 23.5781 37.4082C21.5561 36.9672 19.6286 36.1782 17.9936 34.8177C16.7047 33.745 15.6702 32.3992 14.9651 30.8777C14.26 29.3563 13.9019 27.6971 13.9166 26.0202C13.9299 23.5185 14.82 21.1007 16.4321 19.1877C18.5261 16.7082 21.5021 15.4032 24.5501 15.3297H24.9731V12.8877H24.4961C23.5689 12.9047 22.6457 13.0152 21.7406 13.2177C20.8299 13.4236 19.9435 13.7253 19.0961 14.1177C18.2321 14.5227 17.4236 15.0177 16.6706 15.5877C15.8925 16.1792 15.184 16.857 14.5586 17.6082C13.9698 18.3034 13.4588 19.0609 13.0346 19.8672C12.615 20.6445 12.2762 21.4628 12.0236 22.3092C11.7759 23.1425 11.6101 23.9981 11.5286 24.8637L11.4731 25.6707V26.1477C11.4911 27.0852 11.6021 28.0032 11.8031 28.9032C12.0056 29.8227 12.3176 30.7032 12.7031 31.5492C13.1636 32.5587 13.9901 34.0467 15.2201 35.1672C17.7316 37.147 20.8377 38.2215 24.0356 38.2167H24.3671Z" fill="white"/>
<path d="M28.3707 35.8649C27.4647 35.8325 26.5624 35.7343 25.6707 35.5709C21.8877 34.8914 18.6357 32.5769 17.4432 29.0879C15.9912 24.8444 18.2142 20.2529 22.4382 18.8579C23.2432 18.5881 24.0867 18.4513 24.9357 18.4529C26.0202 18.4529 27.1032 18.6734 28.0962 19.0769L29.1237 16.8914C28.8147 16.7675 28.5026 16.6515 28.1877 16.5434C27.1353 16.2131 26.0386 16.0457 24.9357 16.0469C23.8306 16.049 22.7331 16.2287 21.6852 16.5794C20.3477 17.0205 19.1159 17.7334 18.0672 18.6734C17.5614 19.1239 17.1002 19.6222 16.6902 20.1614C16.2848 20.6944 15.934 21.2667 15.6432 21.8699C15.0509 23.0825 14.7014 24.3992 14.6142 25.7459C14.5227 27.1409 14.7057 28.5359 15.1647 29.8589C15.6324 31.2199 16.384 32.4659 17.3697 33.5144C18.2697 34.4879 19.3167 35.2229 20.5827 35.9024C21.9057 36.5999 23.5407 36.9674 25.2477 37.2074C26.3502 37.3529 27.8202 37.3904 28.6827 37.3904C29.4357 37.1144 29.7477 36.9854 30.1527 36.8204C30.5022 36.6554 30.8502 36.4904 31.1997 36.2879C31.5492 36.0854 31.6047 36.0479 32.1912 35.6639C32.2434 35.6314 32.2926 35.5942 32.3382 35.5529C30.3177 35.9024 29.8032 35.8829 28.3707 35.8649Z" fill="white"/>
<path d="M32.8902 33.129C32.3202 33.165 31.5117 33.219 30.5937 33.219C28.9587 33.219 26.9562 33.0735 25.2492 32.5035C22.6032 31.623 20.1057 29.364 20.1057 26.571C20.1051 25.9099 20.2348 25.2553 20.4875 24.6444C20.7402 24.0336 21.1109 23.4786 21.5783 23.0111C22.0458 22.5437 22.6008 22.173 23.2116 21.9204C23.8225 21.6677 24.4771 21.5379 25.1382 21.5385C27.0297 21.5385 28.6647 22.5855 29.5287 24.1095L31.7142 23.0265C31.3715 22.3813 30.9313 21.7929 30.4092 21.282C29.7173 20.5889 28.8956 20.0391 27.991 19.6639C27.0864 19.2888 26.1167 19.0957 25.1374 19.0957C24.1581 19.0957 23.1885 19.2888 22.2839 19.6639C21.3793 20.0391 20.5575 20.5889 19.8657 21.282C19.1729 21.9738 18.6232 22.7955 18.2482 23.6999C17.8732 24.6044 17.6802 25.5739 17.6802 26.553C17.6851 27.5791 17.9048 28.5929 18.3252 29.529C18.7092 30.3735 19.2432 31.164 19.9227 31.899C21.1167 33.183 22.7502 34.212 24.4962 34.8C26.1672 35.3505 28.6287 35.553 31.0167 35.388C31.6767 35.3325 32.1732 35.277 33.0177 35.094C33.8326 34.4509 34.5723 33.7177 35.2227 32.9085C34.6527 32.964 33.6057 33.0735 32.8902 33.129Z" fill="white"/>
</g>
<defs>
<clipPath id="clip0_3344_10107">
<rect width="48" height="48" fill="white"/>
</clipPath>
</defs>
</svg>
