<svg width="48" height="48" viewBox="0 0 48 48" fill="none" xmlns="http://www.w3.org/2000/svg">
<g clip-path="url(#clip0_3344_14400)">
<path d="M24 48C37.2548 48 48 37.2548 48 24C48 10.7452 37.2548 0 24 0C10.7452 0 0 10.7452 0 24C0 37.2548 10.7452 48 24 48Z" fill="#00D395"/>
<path fill-rule="evenodd" clip-rule="evenodd" d="M12.855 32.3803C12.4822 32.1599 12.1728 31.8465 11.9573 31.4708C11.7417 31.0951 11.6272 30.67 11.625 30.2368V25.3573C11.625 24.7768 12.108 24.3073 12.699 24.3103C12.888 24.3103 13.074 24.3598 13.239 24.4528L24.4935 30.8743C25.152 31.2493 25.5585 31.9393 25.5585 32.6848V37.7398C25.5575 37.9069 25.5235 38.0722 25.4584 38.2261C25.3934 38.38 25.2985 38.5195 25.1793 38.6366C25.0601 38.7537 24.919 38.846 24.7639 38.9084C24.6089 38.9707 24.4431 39.0018 24.276 38.9998C24.0385 38.9999 23.8054 38.9362 23.601 38.8153L12.855 32.3803ZM29.631 23.1163C30.291 23.4913 30.693 24.1828 30.696 24.9268V35.1868C30.696 35.4898 30.531 35.7703 30.2595 35.9173L27.7965 37.2733C27.7648 37.291 27.7311 37.3046 27.696 37.3138V31.6168C27.696 30.8788 27.3015 30.1948 26.652 29.8168L16.77 24.0298V17.5993C16.77 17.0188 17.253 16.5493 17.8455 16.5523C18.0343 16.5526 18.2198 16.6017 18.384 16.6948L29.634 23.1163H29.631ZM34.5585 15.5383C35.2185 15.9133 35.625 16.6033 35.625 17.3518V32.3368C35.6231 32.4891 35.5802 32.638 35.5007 32.7679C35.4213 32.8978 35.3082 33.0038 35.1735 33.0748L32.838 34.3093V23.8753C32.838 23.1388 32.442 22.4563 31.7985 22.0768L21.6945 16.1473V10.0498C21.6945 9.86382 21.747 9.68232 21.8385 9.52182C21.9856 9.28057 22.2208 9.10605 22.4944 9.03522C22.7679 8.96438 23.0583 9.0028 23.304 9.14232L34.5585 15.5398V15.5383Z" fill="white"/>
</g>
<defs>
<clipPath id="clip0_3344_14400">
<rect width="48" height="48" fill="white"/>
</clipPath>
</defs>
</svg>
