<svg width="48" height="48" viewBox="0 0 48 48" fill="none" xmlns="http://www.w3.org/2000/svg">
<g clip-path="url(#clip0_3344_10284)">
<path d="M48 0H0V48H48V0Z" fill="#FE815F"/>
<path opacity="0.8" fill-rule="evenodd" clip-rule="evenodd" d="M36.89 29.8819C36.89 34.7637 32.8732 38.7212 27.9181 38.7212H10.9712V32.8283H27.9181C29.5698 32.8283 30.9088 31.5092 30.9088 29.8819C30.9088 28.2546 29.5698 26.9355 27.9181 26.9355H21.9369V21.0426H27.9181C29.5698 21.0426 30.9088 19.7234 30.9088 18.0961C30.9088 16.4689 29.5698 15.1497 27.9181 15.1497H10.9712V9.25684H27.9181C32.8732 9.25684 36.89 13.2143 36.89 18.0961C36.89 20.3601 36.0262 22.4252 34.6055 23.989C36.0262 25.5529 36.89 27.618 36.89 29.8819Z" fill="white"/>
<path opacity="0.12" d="M10.9712 32.8283H25.5269C22.435 36.4066 17.5125 38.7212 11.9681 38.7212C11.6334 38.7212 11.301 38.7128 10.9712 38.6961V32.8283ZM28.576 26.9355H22.9337V21.0426H28.576C28.7983 21.9946 28.915 22.98 28.915 23.989C28.915 24.9981 28.7983 25.9834 28.576 26.9355ZM25.5269 15.1497H10.9712V9.2819C11.301 9.26527 11.6334 9.25684 11.9681 9.25684C17.5125 9.25684 22.435 11.5714 25.5269 15.1497Z" fill="black"/>
<path d="M10.9712 9.25684C19.2296 9.25684 25.9244 15.8527 25.9244 23.989C25.9244 32.1254 19.2296 38.7212 10.9712 38.7212V32.8283C15.9262 32.8283 19.9431 28.8708 19.9431 23.989C19.9431 19.1072 15.9262 15.1497 10.9712 15.1497V9.25684Z" fill="white"/>
</g>
<defs>
<clipPath id="clip0_3344_10284">
<rect width="48" height="48" rx="24" fill="white"/>
</clipPath>
</defs>
</svg>
