<svg width="48" height="48" viewBox="0 0 48 48" fill="none" xmlns="http://www.w3.org/2000/svg">
<path d="M28.461 1.42906C28.461 0.682752 29.201 0.161161 29.9057 0.410805L39.5829 3.83894C40.2851 4.08771 40.5315 4.95362 40.0651 5.53357L30.3879 17.5656C29.7478 18.3614 28.461 17.9097 28.461 16.8892V1.42906Z" fill="#1DE9B6"/>
<path d="M10.3588 13.2862C9.57132 13.742 9.66489 14.9053 10.5151 15.23L25.1155 20.8051C25.8244 21.0757 26.585 20.5534 26.585 19.7959V5.76832C26.585 4.93557 25.6809 4.41584 24.9592 4.83368L10.3588 13.2862Z" fill="#1DE9B6"/>
<path d="M0.00365559 28.597C-0.0564175 29.3379 0.633664 29.9167 1.35461 29.73L23.0155 24.1223C24.036 23.8581 24.1147 22.4422 23.1298 22.0669L2.55893 14.2303C1.88458 13.9734 1.15195 14.4345 1.09373 15.1526L0.00365559 28.597Z" fill="#1DE9B6"/>
<path d="M23.0152 28.1379C23.3055 27.321 22.5623 26.5127 21.7219 26.7312L7.15453 30.5191C6.33793 30.7314 6.06787 31.7531 6.67327 32.3398L16.5079 41.8708C17.0739 42.4193 18.0188 42.1989 18.2825 41.4568L23.0152 28.1379Z" fill="#1DE9B6"/>
<path d="M31.0629 22.5934C30.2697 22.4312 29.9292 21.4892 30.4358 20.8588L40.6299 8.17534C41.2049 7.45989 42.3553 7.73975 42.5359 8.63905L45.6295 24.0404C45.7819 24.7988 45.1098 25.4666 44.3506 25.3113L31.0629 22.5934Z" fill="#1DE9B6"/>
<path d="M32.2653 25.1754C31.2381 24.9645 30.5406 26.1886 31.2473 26.9619L44.5316 41.4981C45.1501 42.1748 46.2787 41.8248 46.404 40.9175L47.9898 29.4339C48.0676 28.8701 47.6939 28.3427 47.1354 28.228L32.2653 25.1754Z" fill="#1DE9B6"/>
<path d="M26.4321 30.2007C26.4098 28.9991 24.7339 28.726 24.3298 29.858L18.4931 46.2087C18.2108 46.9997 18.9008 47.7958 19.7258 47.6308L25.8425 46.4071C26.3557 46.3044 26.7218 45.85 26.7121 45.3277L26.4321 30.2007Z" fill="#1DE9B6"/>
<path d="M28.514 30.3567C28.4955 29.3629 29.7179 28.8734 30.3927 29.6045L40.1214 40.1436C40.699 40.7693 40.359 41.785 39.5205 41.9385L30.0207 43.6774C29.3637 43.7976 28.7554 43.3012 28.743 42.6347L28.514 30.3567Z" fill="#1DE9B6"/>
</svg>
