<svg width="48" height="48" viewBox="0 0 48 48" fill="none" xmlns="http://www.w3.org/2000/svg">
<g clip-path="url(#clip0_3344_6391)">
<path d="M24 48C37.2548 48 48 37.2548 48 24C48 10.7452 37.2548 0 24 0C10.7452 0 0 10.7452 0 24C0 37.2548 10.7452 48 24 48Z" fill="#1AAB9B"/>
<path d="M11.337 31.7339V19.6664L20.4885 26.5544V31.7339H22.8255V26.0699C22.8253 25.8586 22.776 25.6502 22.6816 25.4612C22.5871 25.2722 22.4499 25.1078 22.281 24.9809L11.1825 16.6274C10.9802 16.4754 10.7395 16.3827 10.4874 16.3596C10.2354 16.3366 9.98193 16.3842 9.7554 16.4971C9.52887 16.61 9.33823 16.7837 9.20482 16.9988C9.07141 17.2138 9.00049 17.4618 9 17.7149V31.7339H11.337ZM36.648 31.7339V19.6664L27.4965 26.5544V31.7339H25.1595V26.0699C25.1595 25.6409 25.3605 25.2374 25.7025 24.9809L36.8025 16.6274C37.0049 16.4753 37.2458 16.3826 37.4979 16.3596C37.7501 16.3367 38.0037 16.3844 38.2303 16.4975C38.4569 16.6105 38.6475 16.7844 38.7808 16.9997C38.9141 17.215 38.9848 17.4632 38.985 17.7164V31.7354H36.648V31.7339Z" fill="white"/>
</g>
<defs>
<clipPath id="clip0_3344_6391">
<rect width="48" height="48" fill="white"/>
</clipPath>
</defs>
</svg>
