<svg width="48" height="48" viewBox="0 0 48 48" fill="none" xmlns="http://www.w3.org/2000/svg">
<circle cx="24" cy="24" r="24" fill="url(#paint0_linear_3344_10092)"/>
<path fill-rule="evenodd" clip-rule="evenodd" d="M23.9291 39.9373C19.2582 39.9338 15.4958 38.813 12.8669 36.7998C10.2065 34.7625 8.79517 31.8713 8.79517 28.5999C8.79517 25.4477 10.2034 23.1747 11.7968 21.6383C13.0456 20.4343 14.4236 19.6631 15.3831 19.2196C15.1661 18.5537 14.8954 17.6819 14.6532 16.7815C14.3291 15.5766 14.0112 14.1629 14.0112 13.127C14.0112 11.9009 14.2785 10.6695 14.9993 9.71261C15.7609 8.70171 16.9073 8.16016 18.2866 8.16016C19.3645 8.16016 20.2797 8.55996 20.9961 9.24976C21.681 9.90906 22.1368 10.7847 22.4515 11.6975C23.0045 13.3013 23.2198 15.3164 23.2802 17.3273H24.6013C24.6617 15.3164 24.877 13.3013 25.4301 11.6975C25.7448 10.7847 26.2006 9.90906 26.8854 9.24976C27.6019 8.55996 28.517 8.16016 29.595 8.16016C30.9742 8.16016 32.1207 8.70171 32.8822 9.71261C33.603 10.6695 33.8704 11.9009 33.8704 13.127C33.8704 14.1629 33.5524 15.5766 33.2283 16.7815C32.9861 17.6819 32.7154 18.5537 32.4984 19.2196C33.458 19.6631 34.836 20.4343 36.0847 21.6383C37.6781 23.1747 39.0863 25.4477 39.0863 28.5999C39.0863 31.8713 37.675 34.7625 35.0146 36.7998C32.3858 38.813 28.6233 39.9338 23.9525 39.9373H23.9291Z" fill="#633001"/>
<path d="M18.2866 9.32617C16.2665 9.32617 15.3366 10.8486 15.3366 12.9542C15.3366 14.6277 16.4171 17.9795 16.8604 19.2843C16.9601 19.5777 16.8034 19.8993 16.5177 20.0131C14.8986 20.658 10.1206 23.0193 10.1206 28.4271C10.1206 34.1236 14.9761 38.4188 23.9301 38.4256C23.9337 38.4256 23.9372 38.4256 23.9408 38.4256C23.9444 38.4256 23.9479 38.4256 23.9515 38.4256C32.9055 38.4188 37.761 34.1236 37.761 28.4271C37.761 23.0193 32.983 20.658 31.364 20.0131C31.0782 19.8993 30.9216 19.5777 31.0213 19.2843C31.4646 17.9795 32.545 14.6277 32.545 12.9542C32.545 10.8486 31.6151 9.32617 29.595 9.32617C26.6871 9.32617 25.9623 13.4873 25.9106 17.9533C25.9071 18.2514 25.6685 18.4933 25.3734 18.4933H22.5083C22.2131 18.4933 21.9745 18.2514 21.9711 17.9533C21.9194 13.4873 21.1945 9.32617 18.2866 9.32617Z" fill="#D1884F"/>
<path d="M23.9515 36.6009C17.3726 36.6009 10.132 33.0433 10.1206 28.438C10.1206 28.4452 10.1206 28.4524 10.1206 28.4595C10.1206 34.1607 14.9839 38.4581 23.9515 38.4581C32.9191 38.4581 37.7824 34.1607 37.7824 28.4595C37.7824 28.4524 37.7824 28.4452 37.7824 28.438C37.771 33.0433 30.5305 36.6009 23.9515 36.6009Z" fill="#FEDC90"/>
<path d="M20.2959 27.0233C20.2959 28.5782 19.5685 29.388 18.6713 29.388C17.774 29.388 17.0466 28.5782 17.0466 27.0233C17.0466 25.4685 17.774 24.6587 18.6713 24.6587C19.5685 24.6587 20.2959 25.4685 20.2959 27.0233Z" fill="#633001"/>
<path d="M30.8562 27.0233C30.8562 28.5782 30.1289 29.388 29.2316 29.388C28.3343 29.388 27.6069 28.5782 27.6069 27.0233C27.6069 25.4685 28.3343 24.6587 29.2316 24.6587C30.1289 24.6587 30.8562 25.4685 30.8562 27.0233Z" fill="#633001"/>
<defs>
<linearGradient id="paint0_linear_3344_10092" x1="0" y1="0" x2="0" y2="48" gradientUnits="userSpaceOnUse">
<stop stop-color="#53DEE9"/>
<stop offset="1" stop-color="#1FC7D4"/>
</linearGradient>
</defs>
</svg>
