<svg width="48" height="48" viewBox="0 0 48 48" fill="none" xmlns="http://www.w3.org/2000/svg">
<g clip-path="url(#clip0_3344_2243)">
<circle cx="24" cy="24" r="24" fill="white"/>
<path d="M20.9813 15.167C20.6331 15.1173 20.6165 15.1007 20.7823 15.0841C21.0974 15.0343 21.827 15.1007 22.3411 15.2168C23.535 15.4986 24.6128 16.2283 25.757 17.5051L26.0555 17.8533L26.4866 17.787C28.3272 17.4885 30.2176 17.7207 31.7929 18.4503C32.224 18.6492 32.9039 19.0472 32.9868 19.1467C33.02 19.1799 33.0697 19.3954 33.1029 19.611C33.2189 20.3904 33.1692 20.9707 32.9205 21.4185C32.7878 21.6672 32.7878 21.7335 32.8707 21.9491C32.937 22.1149 33.136 22.231 33.3184 22.231C33.7164 22.231 34.131 21.6009 34.3299 20.722L34.4129 20.3738L34.5621 20.5396C35.4078 21.4848 36.0711 22.7948 36.1706 23.7234L36.2037 23.9721L36.0545 23.7565C35.8057 23.3752 35.5736 23.1264 35.2585 22.9109C34.6947 22.5295 34.0978 22.4134 32.5225 22.3305C31.0964 22.2476 30.2839 22.1315 29.488 21.8662C28.1282 21.4185 27.4318 20.8381 25.8233 18.699C25.1103 17.7538 24.6626 17.2398 24.2148 16.8086C23.2365 15.8635 22.2582 15.366 20.9813 15.167Z" fill="#FF007A"/>
<path d="M33.335 17.2729C33.3682 16.6428 33.4511 16.2282 33.6335 15.8468C33.6998 15.6976 33.7661 15.5649 33.7827 15.5649C33.7993 15.5649 33.7661 15.681 33.7164 15.8137C33.5837 16.1785 33.5672 16.6925 33.6501 17.2729C33.7661 18.0191 33.8159 18.1186 34.6118 18.9311C34.9766 19.3125 35.4078 19.7934 35.5736 19.9924L35.8555 20.3572L35.5736 20.0919C35.2254 19.7602 34.4294 19.1301 34.247 19.0472C34.131 18.9809 34.1144 18.9809 34.0315 19.0638C33.9651 19.1301 33.9485 19.2296 33.9485 19.7105C33.932 20.4567 33.8325 20.921 33.5837 21.4018C33.4511 21.6506 33.4345 21.6008 33.5506 21.3189C33.6335 21.1034 33.6501 21.0039 33.6501 20.2908C33.6501 18.8482 33.4842 18.5 32.4727 17.9196C32.224 17.7704 31.7929 17.5548 31.5441 17.4387C31.2788 17.3226 31.0798 17.2232 31.0964 17.2232C31.1296 17.19 32.1079 17.4719 32.4893 17.6377C33.0697 17.8699 33.1692 17.8864 33.2355 17.8699C33.2853 17.8201 33.3184 17.6875 33.335 17.2729Z" fill="#FF007A"/>
<path d="M21.661 19.7439C20.9646 18.7822 20.5168 17.2898 20.6163 16.1788L20.6495 15.8306L20.8153 15.8637C21.1138 15.9135 21.6278 16.1125 21.8766 16.2617C22.5399 16.6597 22.8383 17.2069 23.1202 18.5666C23.2031 18.9646 23.3192 19.4289 23.369 19.5781C23.4519 19.8269 23.7669 20.4072 24.0323 20.772C24.2147 21.0374 24.0986 21.17 23.684 21.1368C23.0539 21.0705 22.2082 20.4901 21.661 19.7439Z" fill="#FF007A"/>
<path d="M32.4894 26.9571C29.2062 25.6305 28.0454 24.4864 28.0454 22.5463C28.0454 22.2644 28.062 22.0322 28.062 22.0322C28.0786 22.0322 28.1946 22.1317 28.3439 22.2478C29.0072 22.7784 29.7534 23.0106 31.8261 23.309C33.0366 23.4915 33.7331 23.6241 34.3632 23.8397C36.3696 24.503 37.6133 25.8627 37.9118 27.7033C37.9947 28.2339 37.9449 29.2454 37.8123 29.7761C37.6962 30.1906 37.3646 30.9534 37.2817 30.97C37.2651 30.97 37.2319 30.8871 37.2319 30.7544C37.1987 30.058 36.8505 29.3947 36.2701 28.8806C35.5737 28.2837 34.6783 27.836 32.4894 26.9571Z" fill="#FF007A"/>
<path d="M30.1678 27.5043C30.1347 27.2555 30.0517 26.9405 30.002 26.8078L29.9191 26.5591L30.0683 26.7415C30.2839 26.9902 30.4497 27.2887 30.599 27.7032C30.715 28.0183 30.715 28.1178 30.715 28.6318C30.715 29.1293 30.6984 29.2454 30.599 29.5273C30.4331 29.975 30.2342 30.2901 29.9025 30.6383C29.3056 31.2518 28.5262 31.5835 27.4152 31.7327C27.2162 31.7493 26.6524 31.799 26.1549 31.8322C24.9113 31.8985 24.0822 32.0312 23.336 32.2965C23.2365 32.3297 23.137 32.3628 23.1204 32.3462C23.0873 32.3131 23.6013 32.0146 24.0159 31.8156C24.5962 31.5337 25.1932 31.3845 26.5032 31.1523C27.1499 31.0528 27.8132 30.9202 27.979 30.8538C29.6206 30.3398 30.4331 29.063 30.1678 27.5043Z" fill="#FF007A"/>
<path d="M31.6769 30.1739C31.2458 29.2287 31.1463 28.3333 31.3785 27.4876C31.4116 27.4047 31.4448 27.3218 31.478 27.3218C31.5111 27.3218 31.6106 27.3715 31.7101 27.4379C31.9091 27.5705 32.3237 27.8027 33.3849 28.383C34.7281 29.1126 35.4908 29.6764 36.0215 30.3231C36.4858 30.8869 36.7677 31.5336 36.9003 32.3296C36.9832 32.7773 36.9335 33.8551 36.8174 34.3028C36.4526 35.7123 35.6235 36.8399 34.413 37.4866C34.2306 37.5861 34.0814 37.6524 34.0648 37.6524C34.0482 37.6524 34.1145 37.4866 34.214 37.2876C34.612 36.4419 34.6617 35.6294 34.3633 34.7174C34.1808 34.1536 33.7995 33.4737 33.0367 32.3296C32.1247 31.003 31.9091 30.6548 31.6769 30.1739Z" fill="#FF007A"/>
<path d="M19.3231 35.2479C20.5502 34.2198 22.0591 33.4902 23.452 33.258C24.049 33.1586 25.0439 33.1917 25.5911 33.341C26.47 33.5731 27.2659 34.0706 27.6805 34.6841C28.0784 35.2811 28.2608 35.7951 28.4432 36.9393C28.5096 37.387 28.5925 37.8513 28.6091 37.9508C28.7417 38.5477 29.007 39.012 29.3387 39.2608C29.8527 39.6422 30.7482 39.6587 31.627 39.3271C31.7762 39.2774 31.9089 39.2276 31.9089 39.2442C31.9421 39.2774 31.4943 39.5758 31.1959 39.7251C30.7813 39.9406 30.4497 40.007 30.002 40.007C29.206 40.007 28.5262 39.5924 27.9789 38.7633C27.8629 38.5975 27.6307 38.1166 27.4317 37.6689C26.8514 36.3257 26.5529 35.9278 25.873 35.48C25.2761 35.0987 24.5133 35.0157 23.9329 35.2976C23.1701 35.6625 22.9711 36.6408 23.5018 37.2378C23.7173 37.4865 24.1153 37.6855 24.447 37.7352C25.0605 37.8181 25.5911 37.3372 25.5911 36.7237C25.5911 36.3257 25.4419 36.0936 25.0439 35.9112C24.5133 35.679 23.9329 35.9443 23.9495 36.4584C23.9495 36.674 24.049 36.8066 24.2645 36.9061C24.3972 36.9724 24.3972 36.9724 24.2977 36.9559C23.8168 36.8564 23.7008 36.2594 24.0821 35.878C24.5464 35.4137 25.5248 35.6127 25.8564 36.2594C25.9891 36.5247 26.0057 37.0554 25.8896 37.387C25.6077 38.1166 24.8118 38.498 23.9992 38.2824C23.452 38.1332 23.2199 37.9839 22.5566 37.3041C21.3958 36.1102 20.9481 35.878 19.2899 35.6293L18.9749 35.5795L19.3231 35.2479Z" fill="#FF007A"/>
<path fill-rule="evenodd" clip-rule="evenodd" d="M10.6009 8.56752C14.4645 13.2603 20.4175 20.5564 20.716 20.9544C20.9647 21.286 20.8652 21.6011 20.4507 21.8332C20.2185 21.9659 19.7377 22.0985 19.5055 22.0985C19.2402 22.0985 18.9251 21.9659 18.7096 21.7503C18.5603 21.6011 17.9136 20.6559 16.4544 18.3841C15.3434 16.643 14.3982 15.2004 14.3816 15.1838C14.3153 15.1506 14.3153 15.1506 16.3383 18.7655C17.6151 21.0373 18.0297 21.8498 18.0297 21.9493C18.0297 22.1649 17.9634 22.2809 17.6981 22.5794C17.2503 23.0769 17.0514 23.6407 16.9021 24.818C16.7363 26.128 16.2886 27.0566 15.0118 28.6319C14.2656 29.5605 14.1495 29.7263 13.9671 30.1077C13.7349 30.572 13.6686 30.8373 13.6354 31.4343C13.6023 32.0644 13.6686 32.4624 13.851 33.0593C14.0168 33.5899 14.1992 33.9382 14.6469 34.618C15.0283 35.215 15.2605 35.6627 15.2605 35.8285C15.2605 35.9612 15.2936 35.9612 15.8906 35.8285C17.3167 35.4969 18.494 34.9331 19.1407 34.2366C19.5387 33.8055 19.6382 33.5734 19.6382 32.9764C19.6382 32.595 19.6216 32.5121 19.5221 32.28C19.3563 31.9151 19.0412 31.6167 18.3613 31.1524C17.4659 30.5388 17.0845 30.0414 16.985 29.3781C16.9021 28.8143 17.0016 28.4329 17.4991 27.3882C18.0131 26.3104 18.1458 25.8627 18.2287 24.7683C18.2784 24.0718 18.3613 23.7899 18.5603 23.5743C18.7759 23.3422 18.9583 23.2593 19.4723 23.193C20.318 23.0769 20.8652 22.8613 21.2964 22.4468C21.6778 22.0985 21.8436 21.7503 21.8602 21.2363L21.8767 20.8549L21.6612 20.6227C20.8818 19.7273 10.0869 7.85449 10.0371 7.85449C10.0205 7.85449 10.2858 8.16955 10.6009 8.56752ZM15.6916 32.1473C15.874 31.8322 15.7745 31.4343 15.476 31.2353C15.1942 31.0529 14.763 31.1358 14.763 31.3845C14.763 31.4508 14.7962 31.5172 14.8957 31.5503C15.0449 31.6333 15.0615 31.7162 14.9454 31.8986C14.8293 32.081 14.8293 32.2468 14.9786 32.3629C15.2107 32.5453 15.5258 32.4458 15.6916 32.1473Z" fill="#FF007A"/>
<path fill-rule="evenodd" clip-rule="evenodd" d="M22.4075 23.4253C22.0095 23.5414 21.6282 23.9725 21.5121 24.4036C21.4457 24.669 21.4789 25.1498 21.595 25.2991C21.7774 25.5312 21.9432 25.5976 22.4075 25.5976C23.3195 25.5976 24.0989 25.1996 24.1818 24.7187C24.2647 24.3207 23.9165 23.7735 23.4356 23.5248C23.1869 23.3921 22.6728 23.3424 22.4075 23.4253ZM23.4688 24.2544C23.6014 24.0554 23.5517 23.8399 23.3029 23.6906C22.8552 23.4087 22.1754 23.6409 22.1754 24.072C22.1754 24.2876 22.5236 24.5197 22.8552 24.5197C23.0708 24.5197 23.3693 24.3871 23.4688 24.2544Z" fill="#FF007A"/>
</g>
<defs>
<clipPath id="clip0_3344_2243">
<rect width="48" height="48" fill="white"/>
</clipPath>
</defs>
</svg>
