<svg xmlns="http://www.w3.org/2000/svg" width="24" height="24" viewBox="0 0 24 24" fill="none">
  <path
    fill-rule="evenodd"
    clip-rule="evenodd"
    d="M19.4298 19.2532C18.4694 20.2341 17.4456 20.7575 16.1391 20.9357C15.3879 21.0381 8.05288 21.0113 7.45836 20.9039C6.20906 20.6783 4.95949 19.8794 4.12572 18.7733C3.68805 18.1926 3.4756 17.7835 3.26503 17.1159C3.01017 16.3079 2.98206 15.7092 3.00755 11.6318C3.02789 8.37712 3.04461 7.81055 3.13073 7.45703C3.58929 5.57481 4.84637 4.10666 6.59592 3.41002C7.54488 3.03216 8.16363 2.97504 10.9511 3.00796C12.7277 3.02895 13.258 3.05341 13.4949 3.1253C14.4843 3.42556 15.3513 3.96144 16.1285 4.75313C17.2193 5.8644 17.7714 7.09567 17.7735 8.4219C17.7746 9.11602 17.8859 9.37168 18.2901 9.60844C18.5448 9.7577 18.6352 9.77344 19.4423 9.80926C19.9241 9.83063 20.3759 9.87946 20.4464 9.91778C20.6756 10.0423 20.8764 10.341 20.9472 10.6626C20.9961 10.8845 21.0098 11.7634 20.9934 13.64C20.9718 16.1264 20.9619 16.3326 20.8438 16.7561C20.5596 17.7754 20.1246 18.5435 19.4298 19.2532ZM15.7083 16.1359C16.2894 15.8068 16.3911 15.0054 15.9089 14.5553L15.9041 14.5508C15.6081 14.2745 15.5737 14.2424 13.1323 14.2406L10.7042 14.2431C8.60464 14.2505 8.34856 14.2833 8.12601 14.4661L8.07574 14.5098C7.84994 14.7141 7.70264 15.1169 7.74659 15.4099C7.79273 15.7175 8.05972 16.0644 8.34642 16.1893L8.35107 16.1912C8.49702 16.2491 9.21095 16.2959 11.587 16.2737L15.1111 16.2329L15.7083 16.1359ZM12.9862 8.7907C12.9862 8.36642 12.8235 8.09994 12.4493 7.91093C12.2379 7.80419 12.1596 7.78201 11.179 7.77746L10.0188 7.77652C8.47916 7.7789 8.31202 7.80525 8.04923 8.05969L8.00352 8.10503C7.51263 8.60047 7.76219 9.55843 8.4301 9.74247C8.54654 9.77455 9.27508 9.79437 10.2215 9.79246L10.9849 9.78808C12.1681 9.77887 12.3178 9.76296 12.4705 9.67198L12.5312 9.6331C12.845 9.42161 12.9862 9.15916 12.9862 8.7907Z"
    fill="white"
  />
</svg>
