<svg width="24" height="24" viewBox="0 0 24 24" fill="none" xmlns="http://www.w3.org/2000/svg">
  <path
    opacity="0.8"
    d="M19.8293 15.6066C19.8293 18.5829 17.3743 21 14.3506 21H3.99988V17.3981H14.3506C15.3458 17.3981 16.1515 16.5924 16.1515 15.5972C16.1515 14.6019 15.3458 13.7962 14.3506 13.7962H10.7013V10.2038H14.3506C15.3458 10.2038 16.1515 9.3981 16.1515 8.40284C16.1515 7.40758 15.3458 6.6019 14.3506 6.6019H3.99988V3H14.3506C17.3743 3.00948 19.8293 5.42654 19.8293 8.40284C19.8293 9.73934 19.3364 11.019 18.4359 12.0047C19.3364 12.9905 19.8293 14.2796 19.8293 15.6066Z"
    fill="white"
  />
  <path
    opacity="0.12"
    d="M3.99988 17.3981H12.8909C11.0046 19.5782 7.99988 21 4.61599 21C4.40746 21 4.20841 20.9905 4.00936 20.981C3.99988 20.9905 3.99988 17.3981 3.99988 17.3981ZM14.7487 13.7962H11.3079V10.2038H14.7487C15.0236 11.3886 15.0236 12.6209 14.7487 13.7962ZM12.8909 6.6019H3.99988V3.01896C4.19893 3.00948 4.40746 3 4.60651 3C7.9904 3.00948 10.9951 4.4218 12.8909 6.6019Z"
    fill="white"
  />
  <path
    d="M3.99988 3.00928C9.04253 3.00928 13.1278 7.03771 13.1278 12.0045C13.1278 16.9714 9.04253 20.9998 3.99988 20.9998V17.3979C7.02357 17.3979 9.47855 14.9808 9.47855 12.0045C9.47855 9.02824 7.02357 6.61117 3.99988 6.61117V3.00928Z"
    fill="white"
  />
</svg>
