<svg xmlns="http://www.w3.org/2000/svg" width="24" height="24" viewBox="0 0 24 24" fill="none">
  <path
    d="M20.2415 5.18576C18.7257 4.49024 17.1003 3.97782 15.4007 3.68434C15.3698 3.67867 15.3389 3.69283 15.3229 3.72114C15.1139 4.09295 14.8823 4.578 14.7202 4.95926C12.8922 4.68559 11.0736 4.68559 9.28318 4.95926C9.12099 4.56953 8.88103 4.09295 8.67104 3.72114C8.6551 3.69377 8.62418 3.67962 8.59323 3.68434C6.89465 3.97688 5.26918 4.48931 3.75245 5.18576C3.73932 5.19142 3.72807 5.20086 3.7206 5.21312C0.637438 9.81929 -0.207169 14.3123 0.207167 18.7495C0.209041 18.7712 0.221228 18.792 0.238101 18.8052C2.27228 20.299 4.24273 21.2059 6.17659 21.8071C6.20754 21.8165 6.24034 21.8052 6.26003 21.7797C6.71749 21.155 7.12527 20.4963 7.4749 19.8036C7.49553 19.763 7.47584 19.7149 7.43366 19.6988C6.78686 19.4535 6.17097 19.1543 5.57852 18.8146C5.53166 18.7873 5.52791 18.7202 5.57102 18.6881C5.69569 18.5947 5.8204 18.4975 5.93944 18.3994C5.96098 18.3814 5.99099 18.3777 6.01631 18.389C9.90842 20.166 14.1221 20.166 17.9683 18.389C17.9936 18.3767 18.0236 18.3805 18.0461 18.3984C18.1652 18.4966 18.2898 18.5947 18.4154 18.6881C18.4585 18.7202 18.4557 18.7873 18.4089 18.8146C17.8164 19.1609 17.2005 19.4535 16.5528 19.6979C16.5106 19.714 16.4919 19.763 16.5125 19.8036C16.8696 20.4953 17.2774 21.154 17.7264 21.7788C17.7452 21.8052 17.7789 21.8165 17.8099 21.8071C19.7531 21.2059 21.7235 20.299 23.7577 18.8052C23.7755 18.792 23.7868 18.7721 23.7887 18.7504C24.2845 13.6205 22.9581 9.16438 20.2724 5.21406C20.2659 5.20086 20.2546 5.19142 20.2415 5.18576ZM8.05612 16.0477C6.88433 16.0477 5.91881 14.9719 5.91881 13.6507C5.91881 12.3295 6.86561 11.2537 8.05612 11.2537C9.25598 11.2537 10.2122 12.339 10.1934 13.6507C10.1934 14.9719 9.2466 16.0477 8.05612 16.0477ZM15.9585 16.0477C14.7867 16.0477 13.8212 14.9719 13.8212 13.6507C13.8212 12.3295 14.768 11.2537 15.9585 11.2537C17.1584 11.2537 18.1145 12.339 18.0958 13.6507C18.0958 14.9719 17.1584 16.0477 15.9585 16.0477Z"
    fill="white"
  />
</svg>
