<svg xmlns="http://www.w3.org/2000/svg" width="110" height="32" fill="none" viewBox="0 0 110 32">
  <path fill="#fff" d="M108.569 8.548h-2.425V5.624a.515.515 0 0 0-.189-.395.499.499 0 0 0-.413-.086l-2.133.516a.496.496 0 0 0-.378.481v2.39h-1.221a.485.485 0 0 0-.482.5v1.77c0 .276.224.5.482.5h1.221v7.12c.034 3.027 1.96 3.44 4.059 3.44.206 0 .412 0 .619-.017.206 0 .43-.018.653-.018h.018a.495.495 0 0 0 .464-.516v-1.892a.496.496 0 0 0-.482-.498h-.739c-1.066 0-1.496-.465-1.496-1.617V11.3h2.425a.484.484 0 0 0 .481-.5V9.048a.47.47 0 0 0-.464-.5Zm-13.019-.19c-1.273 0-2.254.396-2.959 1.17v-.482a.485.485 0 0 0-.481-.498h-2.253c-.276 0-.482.206-.482.498v12.28c0 .275.206.499.482.499h2.253c.275 0 .481-.206.481-.499v-7.688c0-1.427.86-2.373 2.15-2.373s2.133.946 2.133 2.408v7.67c0 .276.206.5.481.5h2.253c.275 0 .482-.207.482-.5v-8.272c0-2.872-1.789-4.713-4.54-4.713ZM84.215 13.88h-4.781c.034-.43.086-.723.172-.981v-.017c.31-1.067 1.066-1.634 2.167-1.634 1.187 0 2.03.636 2.305 1.788.069.19.12.482.137.843Zm-2.442-5.522c-2.614 0-4.592 1.48-5.28 3.939-.224.74-.327 1.651-.31 2.803 0 1.41.19 2.546.568 3.474.86 2.185 2.717 3.423 5.263 3.474h.086c2.115 0 3.921-.877 4.987-2.407.155-.224.104-.465-.103-.654l-1.513-1.29c-.138-.12-.275-.137-.361-.12a.547.547 0 0 0-.344.24c-.602.878-1.428 1.325-2.477 1.325-1.41-.017-2.322-.602-2.683-1.72-.103-.24-.155-.602-.19-.997h7.568c.293 0 .482-.207.482-.5.017-.86.017-1.513-.069-2.218-.413-3.543-2.305-5.349-5.624-5.349Zm-10.715 6.708c0 1.393-.051 1.754-.172 2.184-.258 1.05-1.032 1.669-2.115 1.669-1.084 0-1.926-.637-2.253-1.703-.103-.275-.224-.86-.224-2.116 0-.997.086-1.668.276-2.15.36-1.083 1.152-1.702 2.184-1.702 1.083 0 1.874.636 2.132 1.685.12.465.172.792.172 2.133Zm2.735-6.518h-2.236c-.275 0-.481.206-.481.498v.327c-.74-.688-1.703-1.032-2.941-1.032-2.185 0-3.973 1.342-4.661 3.492-.361 1.014-.396 2.27-.396 3.25 0 1.29.103 2.27.327 3.096.774 2.58 3.044 3.509 4.901 3.509 1.17 0 2.099-.327 2.77-.964-.018 1.084-.293 1.858-.86 2.374-.74.67-1.995.928-3.87.74-.482 0-.533.326-.533.464l-.07 2.064c0 .292.156.481.448.515.464.052.912.07 1.342.07 2.08 0 3.818-.551 4.97-1.583 1.187-1.066 1.789-2.631 1.789-4.644V9.046c-.017-.275-.224-.498-.5-.498ZM61.977 8.6a3.057 3.057 0 0 0-1.152-.207c-1.153 0-2.081.464-2.787 1.393v-.74a.496.496 0 0 0-.481-.498h-2.253a.485.485 0 0 0-.482.499v12.28c0 .275.224.498.482.498h2.253a.485.485 0 0 0 .481-.498v-7.138c0-1.53 1.118-2.287 2.219-2.356.396-.052.602-.035.86.017a.523.523 0 0 0 .602-.378l.602-2.185c.052-.292-.086-.584-.344-.688Zm-12.641 7.48v1.12c0 1.324-1.376 2.132-2.717 2.132-.895 0-1.858-.395-1.858-1.496 0-1.118.946-1.754 2.597-1.754h1.978Zm-2.133-7.722c-2.476 0-4.454 1.136-5.039 2.89a.513.513 0 0 0 .052.447c.069.12.19.206.344.24l2.218.551a.519.519 0 0 0 .55-.292c.259-.602.947-.946 1.961-.946 1.342 0 2.047.653 2.047 1.874v.534h-2.545c-3.302 0-5.28 1.633-5.28 4.35 0 2.942 2.27 3.99 4.385 3.99 1.428 0 2.597-.429 3.423-1.22v.533c0 .275.223.499.481.499h2.254a.485.485 0 0 0 .481-.499V12.83c.017-2.631-2.184-4.472-5.331-4.472Z"/>
  <path fill="#FF875B" d="M22.988 0h-9.012c-.31 0-.55.258-.55.568-.19 8.736-4.61 17.026-12.229 22.891a.589.589 0 0 0-.12.791l5.28 7.516c.172.258.533.31.774.12 4.764-3.646 8.6-8.049 11.35-12.916 2.753 4.885 6.588 9.27 11.352 12.916.24.19.602.138.774-.12l5.28-7.516a.589.589 0 0 0-.12-.791C28.147 17.594 23.727 9.304 23.538.568a.547.547 0 0 0-.55-.568Z"/>
</svg>
