<svg xmlns="http://www.w3.org/2000/svg" width="110" height="32" fill="none" viewBox="0 0 110 32">
  <path fill="#D9B432" d="M26.231 0H5.899c-1.55 0-3.03.62-4.12 1.71A5.863 5.863 0 0 0 .07 5.838v20.324c0 1.55.612 3.03 1.71 4.128A5.843 5.843 0 0 0 5.9 32h20.33c1.55 0 3.03-.62 4.12-1.71a5.843 5.843 0 0 0 1.71-4.12V5.838a5.79 5.79 0 0 0-1.71-4.12A5.799 5.799 0 0 0 26.23 0Zm-4.935 8a4.25 4.25 0 0 1 3.021 1.258 4.34 4.34 0 0 1 1.258 3.021c0 .718-.177 1.418-.522 2.047a5.76 5.76 0 0 0-1.799-.993c.177-.328.266-.69.266-1.054a2.243 2.243 0 0 0-.638-1.595 2.218 2.218 0 0 0-1.586-.656c-.292 0-.584.063-.859.17a2.38 2.38 0 0 0-.727.486 2.243 2.243 0 0 0-.637 1.595c0 .372.088.735.265 1.054a5.861 5.861 0 0 0-1.798.993A4.278 4.278 0 0 1 21.296 8ZM10.834 24a4.25 4.25 0 0 1-3.022-1.258 4.287 4.287 0 0 1-1.258-3.021H8.61c0 .292.053.585.168.85.115.266.275.514.478.718.204.204.452.372.718.478.275.116.558.169.85.169.293 0 .585-.062.851-.169.266-.115.514-.274.718-.478.204-.204.372-.452.487-.718.115-.274.168-.558.168-.85h2.056a4.309 4.309 0 0 1-2.649 3.96 4.167 4.167 0 0 1-1.621.319Zm0-6.007a5.007 5.007 0 0 1-4.616-3.083 4.963 4.963 0 0 1-.284-2.888 5.003 5.003 0 0 1 9.063-1.798 5.01 5.01 0 0 1-.62 6.316 5 5 0 0 1-1.621 1.081 5.121 5.121 0 0 1-1.922.372ZM21.296 24a5.01 5.01 0 0 1-4.624-3.083 4.962 4.962 0 0 1-.284-2.888 4.938 4.938 0 0 1 1.373-2.56c.7-.7 1.586-1.179 2.56-1.365a5.03 5.03 0 0 1 2.889.284 5.007 5.007 0 0 1 3.083 4.624 5 5 0 0 1-1.462 3.526A5.018 5.018 0 0 1 21.296 24Zm2.95-4.997c0 .585-.177 1.152-.496 1.64a2.98 2.98 0 0 1-1.32 1.089 2.947 2.947 0 0 1-1.7.168 3.046 3.046 0 0 1-1.516-.806 2.934 2.934 0 0 1 .452-4.527 2.923 2.923 0 0 1 1.64-.496c.389 0 .77.08 1.124.221.355.151.683.364.957.638.275.275.487.603.638.957.142.346.222.735.222 1.116Zm-10.462-6.006c0 .584-.178 1.151-.497 1.639a3.04 3.04 0 0 1-1.32 1.09 2.948 2.948 0 0 1-1.7.168 2.953 2.953 0 0 1-2.312-2.312 2.933 2.933 0 0 1 1.257-3.022 2.923 2.923 0 0 1 1.64-.496c.779 0 1.532.31 2.081.868.54.54.85 1.285.85 2.065Zm45.218 7.318a4.945 4.945 0 0 1-1.542-1.046 5.214 5.214 0 0 1-1.045-1.541 4.724 4.724 0 0 1-.363-2.348c.07-.797.345-1.568.788-2.242a4.815 4.815 0 0 1 1.754-1.594 4.743 4.743 0 0 1 2.304-.567c.655 0 1.293.133 1.896.38.576.249 1.09.603 1.541 1.046.443.443.797.966 1.028 1.542a4.81 4.81 0 0 1 0 3.792 4.922 4.922 0 0 1-1.037 1.541 5.052 5.052 0 0 1-1.541 1.046 4.987 4.987 0 0 1-1.896.372 4.79 4.79 0 0 1-1.887-.381ZM58.31 9.7a6.61 6.61 0 0 0-3.544 3.544 6.692 6.692 0 0 0 0 5.191 6.64 6.64 0 0 0 3.544 3.544 6.682 6.682 0 0 0 5.183 0 6.61 6.61 0 0 0 3.543-3.544 6.649 6.649 0 0 0 0-5.174 6.643 6.643 0 0 0-3.552-3.552 6.672 6.672 0 0 0-2.587-.514 6.355 6.355 0 0 0-2.587.505Zm-14.175-.009a6.901 6.901 0 0 0-2.126 1.427 6.863 6.863 0 0 0-1.427 2.117 6.693 6.693 0 0 0 0 5.192 6.863 6.863 0 0 0 1.427 2.117 6.86 6.86 0 0 0 2.117 1.426 6.684 6.684 0 0 0 2.596.514c1.763 0 3.455-.7 4.704-1.94a6.749 6.749 0 0 0 1.426-2.126c.071-.178.133-.355.195-.532h-1.94a4.903 4.903 0 0 1-2.543 2.445 4.812 4.812 0 0 1-1.869.364 4.936 4.936 0 0 1-1.86-.364 4.879 4.879 0 0 1-1.577-1.054 5.213 5.213 0 0 1-1.046-1.541 4.975 4.975 0 0 1 .01-3.792 4.856 4.856 0 0 1 1.798-2.162 4.85 4.85 0 0 1 2.693-.806c.656 0 1.302.133 1.896.38a4.947 4.947 0 0 1 1.541 1.046c.399.408.727.877.966 1.391h1.931a9.85 9.85 0 0 0-.195-.54A6.673 6.673 0 0 0 49.301 9.7a6.673 6.673 0 0 0-2.587-.514 6.651 6.651 0 0 0-2.578.505ZM69.57 22.494h1.799V9.178H69.57v13.316Zm22.21-8.62a3.144 3.144 0 0 1 .93-2.241 3.232 3.232 0 0 1 1.028-.692 3.166 3.166 0 0 1 1.214-.239c.416 0 .833.08 1.214.24.39.159.735.39 1.028.69.292.302.531.647.69 1.028a3.189 3.189 0 0 1-.69 3.464 3.19 3.19 0 0 1-4.501 0 3.269 3.269 0 0 1-.913-2.25Zm-1.62.026c0 2.596 2.143 4.634 4.88 4.634h1.09l-2.117 4.022h1.807l3.305-6.326a5.088 5.088 0 0 0 .655-2.383 4.793 4.793 0 0 0-1.461-3.322 4.78 4.78 0 0 0-3.367-1.355 4.816 4.816 0 0 0-3.358 1.39 4.84 4.84 0 0 0-1.435 3.34Zm12.721 4.652c.009-.727.31-1.418.833-1.932a2.758 2.758 0 0 1 1.94-.797c.727 0 1.427.283 1.949.797.523.514.815 1.205.833 1.932 0 .735-.292 1.444-.815 1.957a2.77 2.77 0 0 1-1.967.816 2.733 2.733 0 0 1-1.958-.816 2.75 2.75 0 0 1-.815-1.957Zm.922-6.087c0-.487.195-.957.531-1.311a1.93 1.93 0 0 1 1.294-.567 1.877 1.877 0 0 1 1.878 1.878c0 .496-.195.975-.549 1.32-.355.355-.824.55-1.329.55a1.877 1.877 0 0 1-1.825-1.87Zm-1.498 0a3.326 3.326 0 0 0 .656 2.02l.372.496-.469.399a4.2 4.2 0 0 0-1.09 1.426 4.011 4.011 0 0 0-.381 1.755c0 1.134.452 2.214 1.249 3.02a4.277 4.277 0 0 0 6.042 0 4.28 4.28 0 0 0 1.249-3.02 4.23 4.23 0 0 0-.39-1.772 4.074 4.074 0 0 0-1.107-1.436l-.478-.407.389-.496a3.154 3.154 0 0 0 .665-1.985 3.359 3.359 0 0 0-1.001-2.33 3.372 3.372 0 0 0-2.348-.957c-.877 0-1.719.346-2.348.957a3.351 3.351 0 0 0-1.01 2.33Zm-16.45-3.287v10.33a.835.835 0 0 1-.036.364.868.868 0 0 1-.177.319.912.912 0 0 1-.292.221.829.829 0 0 1-.355.08 1.15 1.15 0 0 1-.983-.665l-4.11-8.85a2.854 2.854 0 0 0-1.064-1.311 2.927 2.927 0 0 0-1.621-.488 2.895 2.895 0 0 0-1.843.638c-.027.018-.044.036-.07.053a2.302 2.302 0 0 0-.648.833 2.42 2.42 0 0 0-.23 1.028v10.764h1.905v-10.48a.823.823 0 0 1 .053-.355.955.955 0 0 1 .186-.301.83.83 0 0 1 .292-.204.928.928 0 0 1 .346-.07c.213.008.416.079.585.194.168.124.3.292.372.487l.035.089c.966 2.135 3.127 6.83 4.394 9.329.426.833 1.152 1.214 2.357 1.222a2.982 2.982 0 0 0 1.887-.637c.292-.187.54-.452.691-.771.16-.31.23-.665.204-1.01V9.178h-1.878Z"/>
</svg>
