<svg xmlns="http://www.w3.org/2000/svg" width="97" height="32" fill="none" viewBox="0 0 97 32">
  <g clip-path="url(#a)">
    <path fill="#fff" d="M82.454 29.985V32h13.827v-9.086h-2.015v7.07H82.454Zm0-29.985v2.015h11.813v7.071h2.014V0H82.454Zm-7.13 15.585v-4.681h3.16c1.541 0 2.094.513 2.094 1.916v.83c0 1.441-.533 1.935-2.094 1.935h-3.16Zm5.017.83c1.442-.376 2.449-1.719 2.449-3.319 0-1.007-.395-1.916-1.146-2.647-.948-.909-2.212-1.363-3.852-1.363h-4.444v13.827h1.976v-5.51h2.963c1.52 0 2.133.632 2.133 2.212v3.299h2.015V19.93c0-2.173-.514-3.002-2.094-3.24v-.276Zm-16.632.454h6.084v-1.817H63.71v-4.149h6.677V9.086h-8.692v13.827h8.988v-1.817H63.71V16.87Zm-6.617.73v.949c0 1.995-.731 2.647-2.568 2.647h-.434c-1.838 0-2.727-.593-2.727-3.338v-3.714c0-2.765.929-3.338 2.766-3.338h.395c1.797 0 2.37.671 2.39 2.528h2.172c-.197-2.726-2.014-4.444-4.74-4.444-1.324 0-2.43.415-3.26 1.205-1.244 1.165-1.935 3.14-1.935 5.906 0 2.666.593 4.642 1.817 5.866a4.48 4.48 0 0 0 3.101 1.245c1.185 0 2.272-.475 2.825-1.502h.276v1.304h1.817v-7.13h-5.353V17.6h3.458ZM39.67 10.904h2.154c2.034 0 3.14.514 3.14 3.28v3.634c0 2.765-1.106 3.28-3.14 3.28H39.67V10.902ZM42 22.913c3.774 0 5.176-2.864 5.176-6.913 0-4.108-1.501-6.913-5.215-6.913h-4.267v13.827h4.307ZM28.155 16.87h6.084v-1.817h-6.084v-4.149h6.677V9.086H26.14v13.827h8.988v-1.817h-6.973V16.87ZM16.5 9.086h-2.014v13.827h9.086v-1.817H16.5V9.086ZM.64 22.914V32h13.827v-2.015H2.653v-7.071H.64ZM.639 0v9.086h2.014V2.015h11.813V0H.639Z"/>
  </g>
  <defs>
    <clipPath id="a">
      <path fill="#fff" d="M.639 0h95.643v32H.639z"/>
    </clipPath>
  </defs>
</svg>
