<svg xmlns="http://www.w3.org/2000/svg" width="107" height="32" fill="none" viewBox="0 0 107 32">
  <path fill="#fff" d="M40.628 25.946v-6.29h.05l4.067 6.29h4.714l-4.888-6.723 4.257-5.553 1.417-1.862h-4.663l-1.366 1.855-3.538 5.461h-.05V2.132l-3.93 1.009v22.805h3.93Z"/>
  <path fill="#fff" d="M53.978 25.946v-6.072c0-1.076.239-1.926.718-2.551.478-.625 1.142-.938 1.992-.938h4.924v-3.154h-4.217c-1.61 0-2.749.638-3.368 2.36h-.05v-2.36h-3.91v12.715h3.91Z"/>
  <path fill="#fff" d="M61.596 32c2.494 0 4.36-1.659 5.599-4.976l5.153-13.793H68.47l-2.39 7.795a11.98 11.98 0 0 0-.41 1.683h-.049a10.162 10.162 0 0 0-.347-1.708l-1.744-5.729a2.88 2.88 0 0 0-2.755-2.04h-2.202l5.153 12.745-.669 1.583c-.396.956-1.098 1.434-2.106 1.434a3.275 3.275 0 0 1-1.697-.461v3.143c.611.216 1.392.324 2.341.324Zm13.691-5.247c.775 0 1.522-.078 2.242-.233a6.024 6.024 0 0 0 1.906-.743c.552-.34.994-.78 1.326-1.322.333-.541.499-1.194.499-1.957 0-.546-.082-1.016-.246-1.41a3.014 3.014 0 0 0-.707-1.033 4.6 4.6 0 0 0-1.105-.768c-.43-.218-.91-.42-1.44-.604-.294-.1-.591-.2-.89-.296a5.873 5.873 0 0 1-.814-.327 1.974 1.974 0 0 1-.594-.435c-.151-.168-.233-.268-.233-.503 0-.177.056-.31.157-.448s.24-.252.417-.34a2.44 2.44 0 0 1 .612-.201c.232-.046.478-.07.74-.07h3.32v-2.832h-3.485a9.44 9.44 0 0 0-2.115.233 5.775 5.775 0 0 0-1.806.73 3.862 3.862 0 0 0-1.263 1.278c-.315.52-.473 1.142-.473 1.864 0 .529.07.986.208 1.372.14.386.341.726.606 1.02.266.293.594.552.985.774.392.222.844.43 1.358.623.32.126.652.24.997.34.346.1.663.214.954.34.29.126.528.273.713.44a.814.814 0 0 1 .278.63c0 .395-.204.688-.612.881-.409.194-.966.29-1.674.29a6.53 6.53 0 0 1-1.85-.29 8.51 8.51 0 0 1-1.963-.88v3.222c1.212.437 2.53.655 3.952.655Z"/>
  <path fill="#fff" d="M86.11 26.35c1.177 0 2.06-.155 2.644-.462V22.97c-.443.241-.873.362-1.291.362-1.061 0-1.592-.665-1.592-1.995v-5.276h2.883v-2.83h-2.883V9.396l-3.948 1.122v2.712h-2.081v2.83h2.08v5.963c0 2.883 1.396 4.325 4.187 4.325Z"/>
  <path fill="#fff" fill-rule="evenodd" d="M96.935 24.014c-.854 1.422-2.12 2.133-3.795 2.133-1.236 0-2.208-.35-2.917-1.048-.71-.698-1.064-1.63-1.064-2.796 0-2.464 1.464-3.886 4.392-4.267l3.459-.459c0-1.389-.755-2.083-2.265-2.083-1.518 0-2.96.45-4.33 1.352v-2.952c.548-.28 1.297-.529 2.246-.744.95-.215 1.815-.322 2.594-.322 3.633 0 5.45 1.806 5.45 5.42v7.59h-3.72v-1.824h-.05Zm-3.689-1.073c.311.286.732.428 1.263.428.738 0 1.34-.254 1.804-.762.464-.509.697-1.152.697-1.929v-.856l-2.315.298c-1.277.165-1.915.74-1.915 1.724 0 .446.155.812.466 1.097Z" clip-rule="evenodd"/>
  <path fill="#fff" d="M105.097 26.35c.678 0 1.159-.044 1.684-.196v-3.232h-.109c-.503.065-.7.065-1.116.065-.24 0-.393-.238-.393-.52V6.773h-3.851v16.128c0 2.255 1.204 3.448 3.785 3.448Z"/>
  <path fill="#1DE9B6" d="M19.294.697c0-.481.477-.818.932-.657l6.243 2.212c.453.16.611.719.31 1.093l-6.242 7.761c-.413.514-1.243.222-1.243-.436V.697ZM7.617 8.346a.696.696 0 0 0 .1 1.254l9.419 3.596a.698.698 0 0 0 .948-.65v-9.05a.698.698 0 0 0-1.049-.603L7.617 8.346Zm-6.68 9.877a.698.698 0 0 0 .871.73l13.973-3.617c.659-.17.71-1.084.074-1.326L2.585 8.955a.698.698 0 0 0-.945.595l-.703 8.672Zm14.844-.297a.698.698 0 0 0-.834-.907L5.55 19.462a.696.696 0 0 0-.31 1.175l6.344 6.148a.699.699 0 0 0 1.144-.267l3.053-8.592Zm5.192-3.576a.697.697 0 0 1-.405-1.12l6.576-8.181a.699.699 0 0 1 1.23.3l1.995 9.934a.698.698 0 0 1-.825.82l-8.571-1.753Zm.775 1.665c-.662-.136-1.112.654-.657 1.153l8.57 9.377a.699.699 0 0 0 1.208-.375l1.023-7.408a.697.697 0 0 0-.552-.777l-9.592-1.97Zm-3.763 3.242c-.014-.775-1.095-.951-1.356-.221l-3.765 10.547a.697.697 0 0 0 .795.918l3.946-.79a.697.697 0 0 0 .561-.696l-.18-9.758Zm1.343.101c-.012-.641.777-.957 1.212-.486l6.276 6.799a.697.697 0 0 1-.388 1.158L20.3 27.95a.698.698 0 0 1-.824-.673l-.148-7.92Z"/>
</svg>
