<svg xmlns="http://www.w3.org/2000/svg" width="168" height="32" fill="none" viewBox="0 0 168 32">
  <path fill="#fff" d="M146.955 16.136c-.857-.566-1.802-.968-2.696-1.47-.58-.327-1.198-.616-1.701-1.03-.857-.704-.681-2.086.214-2.69 1.285-.854 3.414-.377 3.641 1.37 0 .037.037.063.075.063h1.941c.05 0 .088-.038.075-.088-.101-1.207-.567-2.212-1.423-2.853-.82-.615-1.751-.942-2.747-.942-5.127 0-5.594 5.416-2.835 7.124.315.202 3.024 1.559 3.982 2.15.957.59 1.259 1.67.843 2.525-.378.779-1.36 1.319-2.342 1.256-1.072-.063-1.903-.64-2.193-1.545a2.757 2.757 0 0 1-.075-.616c0-.038-.038-.075-.076-.075h-2.103c-.038 0-.076.037-.076.075 0 1.52.378 2.362 1.411 3.129.97.729 2.028 1.03 3.124 1.03 2.873 0 4.359-1.62 4.661-3.305.264-1.646-.226-3.128-1.7-4.108ZM55.61 8.773h-1.952a.085.085 0 0 0-.076.05l-1.726 5.68a.079.079 0 0 1-.151 0l-1.726-5.68c-.013-.037-.038-.05-.076-.05h-3.212c-.038 0-.076.038-.076.075v14.5c0 .038.038.076.076.076h2.104c.037 0 .075-.038.075-.075v-11.02c0-.088.126-.1.151-.025l1.739 5.717.126.402c.012.038.038.05.075.05h1.613a.085.085 0 0 0 .076-.05l.125-.402 1.739-5.717c.025-.088.151-.063.151.025v11.02c0 .037.038.075.076.075h2.103c.038 0 .076-.038.076-.075v-14.5a.082.082 0 0 0-.076-.076H55.61Zm59.132 0a.083.083 0 0 0-.075.05l-1.726 5.68a.079.079 0 0 1-.151 0l-1.726-5.68c-.012-.037-.038-.05-.075-.05h-3.2c-.038 0-.076.038-.076.075v14.5c0 .038.038.076.076.076h2.104c.038 0 .075-.038.075-.075v-11.02c0-.088.126-.1.152-.025l1.737 5.717.126.402c.013.038.038.05.076.05h1.613a.084.084 0 0 0 .075-.05l.126-.402 1.739-5.717c.025-.088.151-.063.151.025v11.02c0 .037.038.075.076.075h2.103c.038 0 .076-.038.076-.075v-14.5a.082.082 0 0 0-.076-.076h-3.2Zm-27.134 0h-9.94c-.037 0-.075.038-.075.075v1.81c0 .037.038.075.075.075h3.843V23.35c0 .037.037.075.075.075h2.104c.038 0 .076-.038.076-.075V10.733h3.842a.081.081 0 0 0 .075-.075v-1.81c0-.037-.025-.075-.075-.075Zm12.408 14.65h1.914a.08.08 0 0 0 .076-.1l-3.955-14.55c-.013-.038-.038-.05-.076-.05H95.23a.085.085 0 0 0-.076.05l-3.955 14.55a.08.08 0 0 0 .075.1h1.915a.085.085 0 0 0 .076-.05l1.146-4.234c.013-.038.038-.05.076-.05h4.233c.038 0 .063.024.076.05l1.146 4.234c.012.025.05.05.075.05Zm-5.026-6.408 1.537-5.667a.079.079 0 0 1 .15 0l1.538 5.667a.08.08 0 0 1-.076.1h-3.074a.08.08 0 0 1-.075-.1Zm37.68 6.408h1.914a.08.08 0 0 0 .075-.1l-3.955-14.55c-.013-.038-.038-.05-.076-.05h-2.746a.084.084 0 0 0-.076.05l-3.955 14.55a.08.08 0 0 0 .076.1h1.915c.038 0 .063-.025.076-.05l1.146-4.234c.012-.038.037-.05.075-.05h4.233c.038 0 .063.024.076.05l1.146 4.234c.012.025.038.05.076.05Zm-5.027-6.408 1.537-5.667a.079.079 0 0 1 .151 0l1.537 5.667c.012.05-.025.1-.076.1h-3.074a.08.08 0 0 1-.075-.1Zm-62.182 4.26v-4.498c0-.038.038-.076.076-.076h5.605c.038 0 .076-.038.076-.075v-1.81c0-.037-.038-.075-.076-.075h-5.605c-.038 0-.076-.038-.076-.075V10.82c0-.038.038-.076.076-.076h6.374c.038 0 .076-.037.076-.075V8.86c0-.037-.038-.075-.076-.075h-8.63c-.037 0-.075.038-.075.076v14.487c0 .038.038.076.076.076h8.894c.037 0 .075-.038.075-.076v-1.91c0-.037-.038-.075-.076-.075h-6.651c-.038-.013-.063-.038-.063-.088Zm100.717 2.023-7.282-7.502a.077.077 0 0 1 0-.1l6.552-6.785a.073.073 0 0 0-.051-.126h-2.683c-.025 0-.038.013-.05.025l-5.556 5.755a.073.073 0 0 1-.126-.05V8.86a.082.082 0 0 0-.076-.076h-2.104c-.038 0-.075.038-.075.076v14.5c0 .037.037.075.075.075h2.104c.038 0 .076-.038.076-.075v-6.383c0-.063.088-.1.126-.05l6.298 6.483a.097.097 0 0 0 .051.025h2.683c.05-.012.088-.1.038-.138Z"/>
  <path fill="#E17726" stroke="#E17726" stroke-linecap="round" stroke-linejoin="round" stroke-width=".25" d="m32.242.97-12.736 9.423 2.368-5.553L32.242.97Z"/>
  <path fill="#E27625" stroke="#E27625" stroke-linecap="round" stroke-linejoin="round" stroke-width=".25" d="m2.864.97 12.623 9.511-2.255-5.641L2.864.97Zm24.792 21.85-3.388 5.177 7.256 1.998 2.078-7.062-5.946-.113Zm-26.139.113 2.066 7.062 7.243-1.998L7.45 22.82l-5.933.113Z"/>
  <path fill="#E27625" stroke="#E27625" stroke-linecap="round" stroke-linejoin="round" stroke-width=".25" d="m10.435 14.075-2.015 3.04 7.18.327-.239-7.727-4.926 4.36Zm14.235 0-5-4.448-.164 7.815 7.18-.326-2.015-3.041ZM10.826 27.997l4.346-2.098-3.741-2.915-.605 5.013Zm9.108-2.098 4.333 2.098-.592-5.013-3.741 2.915Z"/>
  <path fill="#D5BFB2" stroke="#D5BFB2" stroke-linecap="round" stroke-linejoin="round" stroke-width=".25" d="M24.267 27.997 19.934 25.9l.352 2.814-.038 1.194 4.02-1.91Zm-13.441 0 4.031 1.91-.025-1.194.34-2.814-4.346 2.098Z"/>
  <path fill="#233447" stroke="#233447" stroke-linecap="round" stroke-linejoin="round" stroke-width=".25" d="m14.933 21.124-3.603-1.055 2.545-1.17 1.058 2.225Zm5.24 0L21.23 18.9l2.557 1.169-3.615 1.055Z"/>
  <path fill="#CC6228" stroke="#CC6228" stroke-linecap="round" stroke-linejoin="round" stroke-width=".25" d="m10.826 27.997.63-5.177-4.006.113 3.376 5.064ZM23.65 22.82l.618 5.177 3.388-5.064-4.006-.113Zm3.036-5.704-7.18.326.668 3.682 1.058-2.224 2.557 1.169 2.897-2.953ZM11.33 20.069l2.545-1.169 1.058 2.224.668-3.682-7.181-.326 2.91 2.953Z"/>
  <path fill="#E27525" stroke="#E27525" stroke-linecap="round" stroke-linejoin="round" stroke-width=".25" d="m8.42 17.116 3.01 5.868-.1-2.916-2.91-2.952Zm15.37 2.953-.114 2.915 3.01-5.868-2.897 2.953Zm-8.19-2.627-.667 3.682.844 4.348.189-5.73-.366-2.3Zm3.906 0-.353 2.287.177 5.742.844-4.347-.668-3.682Z"/>
  <path fill="#F5841F" stroke="#F5841F" stroke-linecap="round" stroke-linejoin="round" stroke-width=".25" d="m20.173 21.124-.844 4.348.605.427 3.741-2.915.114-2.915-3.616 1.055Zm-8.843-1.055.1 2.915 3.742 2.915.605-.427-.844-4.348-3.603-1.055Z"/>
  <path fill="#C0AC9D" stroke="#C0AC9D" stroke-linecap="round" stroke-linejoin="round" stroke-width=".25" d="m20.25 29.907.037-1.194-.328-.276h-4.812l-.315.276.025 1.194-4.03-1.91 1.41 1.156 2.86 1.973h4.9l2.872-1.973 1.399-1.156-4.019 1.91Z"/>
  <path fill="#161616" stroke="#161616" stroke-linecap="round" stroke-linejoin="round" stroke-width=".25" d="m19.934 25.899-.605-.427h-3.552l-.605.427-.34 2.814.315-.276h4.812l.328.276-.353-2.814Z"/>
  <path fill="#763E1A" stroke="#763E1A" stroke-linecap="round" stroke-linejoin="round" stroke-width=".25" d="m32.783 11.01 1.07-5.203L32.242.97l-12.307 9.11 4.736 3.995 6.69 1.948 1.473-1.722-.642-.465 1.02-.93-.78-.603 1.02-.779-.668-.515ZM1.252 5.807l1.083 5.202-.693.515 1.033.78-.78.603 1.02.93-.643.464 1.474 1.722 6.69-1.948 4.736-3.996L2.864.97 1.252 5.808Z"/>
  <path fill="#F5841F" stroke="#F5841F" stroke-linecap="round" stroke-linejoin="round" stroke-width=".25" d="m31.36 16.023-6.689-1.948 2.016 3.041-3.011 5.868 3.98-.05h5.947l-2.243-6.911Zm-20.924-1.948-6.69 1.948-2.23 6.91H7.45l3.98.05-3.01-5.867 2.016-3.04Zm9.07 3.368.428-7.364 1.94-5.24h-8.642l1.94 5.24.429 7.364.163 2.312.013 5.717h3.553l.012-5.717.164-2.312Z"/>
</svg>
