<svg xmlns="http://www.w3.org/2000/svg" width="106" height="32" fill="none" viewBox="0 0 106 32">
  <path fill="url(#a)" d="M16.361 32c8.837 0 16-7.163 16-16s-7.163-16-16-16c-8.836 0-16 7.163-16 16s7.164 16 16 16Z"/>
  <mask id="b" width="33" height="32" x="0" y="0" maskUnits="userSpaceOnUse" style="mask-type:luminance">
    <path fill="#fff" d="M16.361 32c8.837 0 16-7.163 16-16s-7.163-16-16-16c-8.836 0-16 7.163-16 16s7.164 16 16 16Z"/>
  </mask>
  <g mask="url(#b)">
    <path fill="url(#c)" d="M17.533 22.243a5.24 5.24 0 0 1-1.172.14c-2.798 0-5.158-2.134-5.333-5.281-.018-.403.21-1.417.28-1.784l-4.32-1.836c-.437 1.12-.681 2.588-.681 3.847 0 5.42 4.633 9.792 10.054 9.792a9.612 9.612 0 0 0 3.637-.7l-2.465-4.178Z"/>
    <path fill="url(#d)" d="M16.361 7.012a9.61 9.61 0 0 0-4.074.892l2.43 4.127a5.255 5.255 0 0 1 1.662-.28c2.465 0 5.088 2.063 5.35 4.616l-7.029.035 10.964 4.652c.577-1.242.752-2.693.752-4.162-.017-5.42-4.651-9.88-10.055-9.88Z"/>
    <path fill="#fff" d="M17.533 21.176a5.24 5.24 0 0 1-1.172.14c-2.798 0-5.158-2.133-5.333-5.28-.018-.403.21-1.417.28-1.784l-4.32-1.837c-.437 1.12-.681 2.589-.681 3.865 0 5.42 4.633 9.792 10.054 9.792a9.947 9.947 0 0 0 3.637-.682l-2.465-4.214ZM16.361 5.928a9.61 9.61 0 0 0-4.074.892l2.43 4.126a5.258 5.258 0 0 1 1.662-.28c2.465 0 5.088 2.064 5.35 4.617l-7.029.035 10.947 4.634c.577-1.242.752-2.693.752-4.162 0-5.386-4.634-9.862-10.038-9.862Z"/>
  </g>
  <path fill="#fff" d="M53.7 25.363V12.93l-4.84 9.258h-1.998l-4.84-9.258v12.434h-3.66V6.606h3.902l5.536 10.68 5.597-10.68h3.872v18.757H53.7Zm20.038-3.207v3.207H60.73V6.606h12.796v3.207H64.36v4.538h7.926v2.965H64.36v4.9l9.378-.06Zm11.84-15.459h3.358l2.118 6.202 2.118-6.202h3.388l-3.207 8.532 2.39 5.99 5.325-14.582h3.963l-7.624 18.756h-3.086l-3.237-7.865-3.237 7.865h-3.055L77.198 6.606h3.903l5.324 14.582 2.33-5.99-3.177-8.5Z"/>
  <defs>
    <linearGradient id="a" x1="26.758" x2="-2.365" y1=".688" y2="43.544" gradientUnits="userSpaceOnUse">
      <stop stop-color="#1ABC9C"/>
      <stop offset="1" stop-color="#1A5DAF"/>
    </linearGradient>
    <linearGradient id="c" x1="16.334" x2="11.839" y1=".166" y2="30.163" gradientUnits="userSpaceOnUse">
      <stop stop-color="#1ABC9C"/>
      <stop offset="1" stop-color="#1A5DAF"/>
    </linearGradient>
    <linearGradient id="d" x1="21.145" x2="16.648" y1=".887" y2="30.885" gradientUnits="userSpaceOnUse">
      <stop stop-color="#1ABC9C"/>
      <stop offset="1" stop-color="#1A5DAF"/>
    </linearGradient>
  </defs>
</svg>
