<svg xmlns="http://www.w3.org/2000/svg" width="154" height="44" fill="none" viewBox="0 0 154 44">
  <path fill="url(#a)" d="M40.704 24.07c1.298-2.91-5.119-11.037-11.249-14.424-3.864-2.623-7.89-2.263-8.706-1.11-1.79 2.527 5.926 4.669 11.086 7.168-1.11.484-2.154 1.351-2.769 2.46-1.924-2.107-6.146-3.921-11.1-2.46-3.339.986-6.113 3.308-7.186 6.815a2.105 2.105 0 0 0-2.954 1.928c0 1.165.941 2.109 2.102 2.109.215 0 .888-.145.888-.145l10.749.078c-4.299 6.843-7.696 7.843-7.696 9.029 0 1.185 3.25.864 4.47.422 5.844-2.115 12.12-8.708 13.196-10.606 4.522.566 8.323.633 9.169-1.264Z"/>
  <path fill="url(#b)" fill-rule="evenodd" d="M31.835 15.705c.24-.094.201-.449.135-.727-.15-.64-2.755-3.22-5.2-4.376-3.333-1.575-5.787-1.494-6.15-.768.679 1.396 3.826 2.707 7.113 4.075 1.402.585 2.83 1.18 4.102 1.795Z" clip-rule="evenodd"/>
  <path fill="url(#c)" fill-rule="evenodd" d="M27.605 29.755a19.687 19.687 0 0 0-2.3-.71c.922-1.657 1.116-4.11.244-5.661-1.223-2.177-2.758-3.335-6.326-3.335-1.963 0-7.247.663-7.34 5.089-.01.464 0 .89.033 1.281l9.648.07c-1.3 2.07-2.519 3.606-3.585 4.774 1.28.33 2.337.605 3.307.86.92.24 1.763.46 2.645.686a40.21 40.21 0 0 0 3.674-3.054Z" clip-rule="evenodd"/>
  <path fill="url(#d)" d="M10.651 25.964c.395 3.362 2.299 4.68 6.19 5.07 3.891.39 6.123.128 9.095.399 2.481.227 4.697 1.496 5.52 1.057.74-.395.326-1.82-.665-2.735-1.283-1.186-3.059-2.01-6.184-2.303.623-1.711.448-4.11-.519-5.415-1.399-1.887-3.98-2.74-7.247-2.368-3.414.39-6.684 2.076-6.19 6.295Z"/>
  <path fill="#8697FF" d="M51.102 22.346h.552c.576 0 1.018-.131 1.327-.393.308-.262.462-.639.462-1.13 0-.491-.154-.868-.462-1.13-.309-.262-.75-.393-1.328-.393h-.551v3.046Zm6.427 6.829H53.89l-2.788-4.75v4.75h-2.923V16.827h4.548c.627 0 1.173.104 1.64.311.468.197.85.47 1.149.82.308.349.537.753.686 1.211.159.459.239.95.239 1.474 0 .939-.21 1.703-.627 2.292-.407.579-1.014.972-1.82 1.18l3.535 5.06Zm2.406-4.225c0 .273.044.53.134.77.09.229.209.43.358.605.159.175.343.311.551.41.22.098.453.147.701.147.239 0 .463-.05.671-.147.22-.099.403-.235.552-.41.16-.174.284-.377.373-.606.1-.229.15-.475.15-.737s-.05-.507-.15-.737a1.894 1.894 0 0 0-.373-.622 1.547 1.547 0 0 0-.552-.41 1.556 1.556 0 0 0-.67-.147c-.25 0-.483.05-.702.148a1.744 1.744 0 0 0-.551.41 2.06 2.06 0 0 0-.358.605c-.09.219-.134.459-.134.72Zm3.4-4.176h2.714v8.4h-2.714v-.933c-.577.797-1.357 1.196-2.342 1.196-.556 0-1.068-.11-1.536-.328a3.823 3.823 0 0 1-1.223-.95 4.536 4.536 0 0 1-.82-1.424 5.425 5.425 0 0 1-.283-1.785c0-.6.094-1.168.283-1.703.19-.546.453-1.021.79-1.425a3.68 3.68 0 0 1 1.209-.95c.467-.24.984-.36 1.55-.36.955 0 1.745.366 2.372 1.097v-.835Zm9.755 4.225a2.01 2.01 0 0 0-.135-.737 1.895 1.895 0 0 0-.372-.622 1.743 1.743 0 0 0-.552-.41 1.456 1.456 0 0 0-.686-.164c-.239 0-.463.05-.671.148a1.747 1.747 0 0 0-.552.41c-.15.174-.273.381-.373.621-.09.23-.134.475-.134.737s.045.508.134.737c.09.23.214.431.373.606.16.164.343.3.552.41.218.098.447.147.686.147a1.585 1.585 0 0 0 1.208-.557c.159-.175.283-.377.373-.606a1.8 1.8 0 0 0 .149-.72Zm-3.4-9.416v6.026c.636-.732 1.431-1.097 2.386-1.097.566 0 1.083.12 1.55.36.478.23.88.546 1.209.95.338.393.601.862.79 1.408a5.13 5.13 0 0 1 .283 1.72 5.1 5.1 0 0 1-.298 1.752 4.319 4.319 0 0 1-.805 1.424c-.348.404-.76.726-1.238.967a3.407 3.407 0 0 1-1.521.343c-.995 0-1.78-.398-2.356-1.195v.934h-2.7V15.582h2.7Zm12.962 9.416a2.01 2.01 0 0 0-.134-.737 1.895 1.895 0 0 0-.373-.622 1.746 1.746 0 0 0-.552-.41 1.456 1.456 0 0 0-.686-.164c-.238 0-.462.05-.67.148a1.747 1.747 0 0 0-.553.41 2.31 2.31 0 0 0-.372.621c-.09.23-.135.475-.135.737a1.998 1.998 0 0 0 .507 1.343c.16.164.343.3.552.41.219.098.447.147.686.147a1.586 1.586 0 0 0 1.208-.557c.16-.175.283-.377.373-.606.1-.229.15-.47.15-.72Zm-3.4-9.416v6.026c.636-.732 1.431-1.097 2.386-1.097.567 0 1.084.12 1.55.36.478.23.88.546 1.209.95.338.393.602.862.79 1.408a5.1 5.1 0 0 1 .284 1.72c0 .622-.1 1.206-.299 1.752a4.323 4.323 0 0 1-.805 1.424 3.98 3.98 0 0 1-1.238.967 3.406 3.406 0 0 1-1.52.343c-.995 0-1.78-.398-2.357-1.195v.934h-2.7V15.582h2.7Z"/>
  <path fill="#8697FF" d="m88.48 28.028-3.698-7.254h3.132l2.043 4.307 1.984-4.307h3.101l-6.144 12.593h-3.027l2.61-5.339Zm12.905-11.201 1.939 7.975 2.386-7.975h2.327l2.386 7.975 1.938-7.975h3.058l-3.356 12.348h-2.983l-2.207-7.157-2.207 7.157h-2.982l-3.356-12.348h3.057Zm16.065 8.123c0 .273.045.53.134.77.091.229.209.43.359.605.159.175.343.311.552.41.219.098.452.147.7.147.238 0 .463-.05.672-.147a1.55 1.55 0 0 0 .551-.41c.159-.174.284-.377.373-.606a1.84 1.84 0 0 0 .149-.737c0-.262-.05-.507-.149-.737a1.888 1.888 0 0 0-.373-.622 1.54 1.54 0 0 0-.551-.41 1.562 1.562 0 0 0-.672-.147c-.248 0-.481.05-.7.148a1.741 1.741 0 0 0-.552.41c-.15.174-.268.376-.359.605a1.892 1.892 0 0 0-.134.72Zm3.4-4.176h2.715v8.4h-2.715v-.933c-.576.797-1.357 1.196-2.341 1.196a3.59 3.59 0 0 1-1.536-.328 3.828 3.828 0 0 1-1.223-.95 4.54 4.54 0 0 1-.82-1.424 5.422 5.422 0 0 1-.284-1.785c0-.6.095-1.168.284-1.703a4.46 4.46 0 0 1 .791-1.425c.338-.404.741-.72 1.208-.95a3.34 3.34 0 0 1 1.55-.36c.954 0 1.745.366 2.371 1.097v-.835Zm6.356-5.192v13.593h-2.699V15.582h2.699Zm3.65 0v13.593h-2.7V15.582h2.7Zm6.542 8.172c-.09-.414-.274-.748-.553-.998a1.456 1.456 0 0 0-1.013-.377c-.418 0-.761.12-1.029.36-.259.24-.423.579-.493 1.015h3.088Zm-3.162 1.72c0 1.277.547 1.916 1.64 1.916.587 0 1.029-.262 1.328-.786h2.61c-.527 1.921-1.845 2.882-3.952 2.882a4.886 4.886 0 0 1-1.775-.311c-.537-.219-1-.524-1.387-.917a4.153 4.153 0 0 1-.88-1.409 5.117 5.117 0 0 1-.313-1.834c0-.698.099-1.326.299-1.883a4.02 4.02 0 0 1 .849-1.44c.368-.394.81-.694 1.328-.902.527-.218 1.118-.327 1.775-.327.645 0 1.227.109 1.744.327.517.208.955.514 1.312.917.359.404.632.901.82 1.49.19.58.284 1.234.284 1.966v.31h-5.682Zm9.444-2.227v5.928h-2.698v-5.928h-.895v-2.473h.895v-2.522h2.698v2.522h1.537v2.473h-1.537Z"/>
  <defs>
    <linearGradient id="a" x1="17.577" x2="40.436" y1="21.494" y2="27.954" gradientUnits="userSpaceOnUse">
      <stop stop-color="#8697FF"/>
      <stop offset="1" stop-color="#ABB7FF"/>
    </linearGradient>
    <linearGradient id="b" x1="36.577" x2="20.036" y1="21.058" y2="4.532" gradientUnits="userSpaceOnUse">
      <stop stop-color="#8697FF"/>
      <stop offset="1" stop-color="#5156D8" stop-opacity="0"/>
    </linearGradient>
    <linearGradient id="c" x1="28.064" x2="12.201" y1="30.333" y2="21.244" gradientUnits="userSpaceOnUse">
      <stop stop-color="#465EED"/>
      <stop offset="1" stop-color="#8697FF" stop-opacity="0"/>
    </linearGradient>
    <linearGradient id="d" x1="18.941" x2="29.689" y1="21.323" y2="34.934" gradientUnits="userSpaceOnUse">
      <stop stop-color="#8898FF"/>
      <stop offset=".984" stop-color="#6277F1"/>
    </linearGradient>
  </defs>
</svg>
