<svg xmlns="http://www.w3.org/2000/svg" width="87" height="32" fill="none" viewBox="0 0 87 32">
  <path fill="#72FA8D" d="M43.281 15.268c-.859-.346-1.908-.633-3.148-.864h-.026c-1.204-.212-2.108-.407-2.71-.585-.602-.176-1.075-.415-1.42-.717-.346-.3-.519-.716-.519-1.248 0-.78.293-1.372.877-1.78.585-.407 1.355-.61 2.31-.61 1.046 0 1.89.265 2.538.796.58.478.936 1.084 1.066 1.818.026.147.15.255.299.256l2.939.023a.305.305 0 0 0 .306-.333 5.682 5.682 0 0 0-.97-2.68c-.612-.894-1.453-1.59-2.525-2.086-1.071-.495-2.288-.743-3.652-.743-1.293 0-2.457.239-3.493.717s-1.842 1.142-2.418 1.992c-.575.85-.863 1.807-.863 2.87 0 1.168.257 2.107.77 2.815a4.82 4.82 0 0 0 2.019 1.607c.832.363 1.832.65 3.001.863l.133.027c1.239.23 2.165.434 2.776.61.611.178 1.093.426 1.448.745.354.318.53.752.53 1.301 0 .78-.318 1.39-.955 1.833-.638.443-1.462.664-2.471.664-1.205 0-2.178-.306-2.922-.917a3.249 3.249 0 0 1-1.195-2.14.306.306 0 0 0-.297-.267l-2.936-.045a.305.305 0 0 0-.31.326 5.849 5.849 0 0 0 1.006 2.897c.646.948 1.536 1.692 2.67 2.232 1.133.54 2.434.81 3.904.81 1.364 0 2.586-.248 3.666-.744s1.926-1.182 2.537-2.059a5.057 5.057 0 0 0 .917-2.962c0-1.169-.266-2.112-.797-2.829a4.736 4.736 0 0 0-2.085-1.594Zm18.051 7.159h-.459c-.265 0-.474-.07-.624-.213-.15-.141-.226-.372-.226-.69v-5.075c0-1.61-.513-2.837-1.54-3.679-1.027-.84-2.237-1.269-4.131-1.269-1.79 0-3.187.389-4.285 1.15-1 .694-1.604 1.645-1.81 2.854-.032.188.11.36.3.36h2.7a.302.302 0 0 0 .292-.22c.123-.447.395-.812.816-1.095.486-.327 1.065-.491 1.826-.491 1.437 0 2.458.886 2.458 2.205v.412a.305.305 0 0 1-.305.305H53.9c-1.983 0-3.489.39-4.515 1.169-1.028.78-1.541 1.886-1.541 3.32 0 1.24.47 2.214 1.408 2.922.704.531 1.546.838 2.412.972.663.103 1.343.14 2.006.034.696-.111 1.26-.398 1.826-.807.508-.366.931-.836 1.318-1.41.188-.323.683-.193.683.181v.45c0 .82.662 1.483 1.481 1.483h2.355a.305.305 0 0 0 .305-.305v-2.259a.305.305 0 0 0-.305-.305ZM56.65 19.69c0 .655-.138 1.226-.412 1.713-.575 1.02-1.605 1.554-2.763 1.554-.673 0-1.213-.16-1.62-.478-.408-.319-.611-.744-.611-1.275 0-.602.226-1.067.677-1.395.452-.327 1.093-.491 1.926-.491h2.498c.168 0 .305.136.305.305v.067ZM71.174 6.709h-3.513a3.356 3.356 0 0 0-3.356 3.356v1.474a.305.305 0 0 1-.305.305h-2.006a.305.305 0 0 0-.304.305v2.285c0 .169.136.305.304.305H64c.169 0 .305.136.305.305v9.947c0 .168.137.305.305.305h2.737a.305.305 0 0 0 .306-.305v-9.947c0-.168.136-.305.304-.305h3.19a.305.305 0 0 0 .305-.305V12.15a.305.305 0 0 0-.305-.305h-3.19a.305.305 0 0 1-.304-.305v-1.325a.61.61 0 0 1 .61-.61h2.91a.305.305 0 0 0 .305-.305V7.014a.305.305 0 0 0-.305-.305h.001Zm13.409 7.881a5.988 5.988 0 0 0-2.43-2.284c-1.028-.531-2.215-.804-3.56-.804-1.345 0-2.506.295-3.533.87a5.995 5.995 0 0 0-2.39 2.444c-.567 1.054-.85 2.289-.85 3.706 0 1.417.292 2.599.876 3.652a5.942 5.942 0 0 0 2.51 2.43c1.089.568 2.368.851 3.838.851 1.134 0 2.148-.208 3.042-.624.894-.416 1.616-.987 2.165-1.713.47-.622.79-1.302.962-2.041a.306.306 0 0 0-.297-.377h-2.75a.306.306 0 0 0-.289.21 2.599 2.599 0 0 1-1.026 1.358c-.55.372-1.231.558-2.046.558-.673 0-1.261-.142-1.766-.426a3.1 3.1 0 0 1-1.195-1.195 3.714 3.714 0 0 1-.285-.638 4.487 4.487 0 0 1-.179-.729 7.197 7.197 0 0 1-.037-.261.305.305 0 0 1 .304-.338h9.482a.303.303 0 0 0 .303-.267 4.52 4.52 0 0 0 .027-.344c.009-.212.013-.407.013-.584 0-1.31-.296-2.461-.89-3.453h.001Zm-2.85 2.338h-5.938a.305.305 0 0 1-.299-.371 3.21 3.21 0 0 1 .493-1.13 2.95 2.95 0 0 1 1.17-.996c.477-.23 1-.346 1.566-.346.921 0 1.683.248 2.285.744.517.426.857 1 1.022 1.726a.306.306 0 0 1-.298.373Zm-57.098-.93h-2.603c-.778 0-1.408.63-1.408 1.407v3.779c0 .777-.63 1.407-1.407 1.407H8.86c-.778 0-1.408.63-1.408 1.408v2.603c0 .777.63 1.407 1.408 1.407h10.956a1.4 1.4 0 0 0 1.399-1.407v-2.089c0-.777.63-1.329 1.407-1.329h2.012c.778 0 1.408-.63 1.408-1.407v-4.388c0-.778-.63-1.391-1.408-1.391ZM7.452 10.826c0-.778.63-1.408 1.407-1.408h10.35c.778 0 1.408-.63 1.408-1.407V5.408c0-.778-.63-1.408-1.407-1.408H8.26c-.778 0-1.408.63-1.408 1.408v2.005c0 .778-.63 1.408-1.408 1.408H3.441c-.778 0-1.408.63-1.408 1.408v4.392c0 .778.633 1.376 1.41 1.376h2.604c.777 0 1.407-.63 1.407-1.407l-.002-3.764Zm5.361 2.435h2.5c.815 0 1.476.662 1.476 1.476v2.5c0 .816-.661 1.477-1.476 1.477h-2.5a1.477 1.477 0 0 1-1.476-1.476v-2.5c0-.816.662-1.477 1.476-1.477Z"/>
</svg>
