<svg xmlns="http://www.w3.org/2000/svg" width="115" height="32" fill="none" viewBox="0 0 115 32">
  <path fill="#fff" d="M11.813 0a7.94 7.94 0 0 0-7.94 7.94v2.969c-1.539.275-3.092.655-3.092 1.141v15.555s0 .436.475.625c1.755.698 8.642 3.14 10.223 3.698.208.074.252.072.324.072.076 0 .115.003.322-.07 1.578-.558 8.489-3.006 10.232-3.696.453-.179.466-.623.466-.623v-15.56c0-.486-1.531-.867-3.07-1.142v-2.97A7.94 7.94 0 0 0 11.813 0Zm0 3.795c2.58 0 4.148 1.566 4.148 4.145v2.586a54.205 54.205 0 0 0-8.299 0V7.94c0-2.58 1.571-4.145 4.151-4.145Zm-.01 10.55c3.608.005 6.641.274 6.641.788v9.692c0 .141-.022.165-.156.216-.134.05-6.17 2.232-6.17 2.232s-.247.082-.315.082c-.077 0-.325-.086-.325-.086L5.31 25.04c-.135-.05-.153-.077-.153-.22v-9.687c0-.527 3.038-.793 6.646-.787ZM32.84 23.2V12.58h-3.871V8.774h12.09v3.806h-3.85V23.2h-4.37Zm18.016 0-1.99-4.542h-1.579v4.541H42.92V8.774h7.699c3.373 0 5.19 2.249 5.19 4.952 0 2.488-1.449 3.807-2.595 4.369l2.617 5.104h-4.974Zm.519-9.496c0-.778-.693-1.124-1.428-1.124h-2.66v2.27h2.66c.735 0 1.428-.345 1.428-1.146Zm6.722 9.496V8.773H69.04v3.806h-6.575v1.428h6.424v3.806h-6.424v1.578h6.575V23.2H58.097Zm13.217.001v-3.46l5.493-7.158h-5.493V8.776h11.268v3.439l-5.515 7.18h5.666v3.806H71.314ZM83.803 16c0-4.434 3.438-7.461 7.893-7.461S99.59 11.566 99.59 16c0 4.433-3.439 7.461-7.894 7.461s-7.893-3.028-7.893-7.46Zm11.354 0c0-2.012-1.363-3.612-3.46-3.612-2.098 0-3.461 1.6-3.461 3.612 0 2.011 1.362 3.611 3.46 3.611s3.46-1.6 3.46-3.61Zm14.23 7.201-1.989-4.541h-1.579v4.54h-4.369V8.776h7.7c3.374 0 5.19 2.25 5.19 4.953 0 2.487-1.449 3.806-2.595 4.369l2.617 5.104h-4.975Zm.519-9.494c0-.779-.692-1.125-1.427-1.125h-2.66v2.27h2.66c.735.001 1.427-.345 1.427-1.145Z"/>
</svg>
