<svg xmlns="http://www.w3.org/2000/svg" width="121" height="32" fill="none" viewBox="0 0 121 32">
  <path fill="#0500FF" d="M.38 4.622 14.602 0v32C4.443 27.733.38 19.555.38 14.934V4.622Z"/>
  <path fill="url(#a)" d="M28.824 4.622 14.602 0v32c10.16-4.267 14.222-12.445 14.222-17.066V4.622Z"/>
  <path fill="#0500FF" d="M53.8 7.549h5.641v3.16c1.848-2.84 3.975-3.16 7.088-3.16v5.583h-1.418c-3.73 0-5.516 1.756-5.516 5.233V24.3H53.8V7.549ZM85.348 24.3h-5.793v-1.598c-1.265 1.468-2.99 2.106-5.115 2.106-4.037 0-6.319-2.393-6.319-6.795V7.548h5.793v9.158c0 2.073 1.017 3.285 2.742 3.285s2.898-1.182 2.898-3.19V7.548h5.793v16.751Zm1.416-5.172h5.426c.247 1.212 1.079 1.722 3.08 1.722 1.635 0 2.59-.382 2.59-1.084 0-.543-.463-.895-1.786-1.181l-4.377-.99c-2.928-.668-4.408-2.36-4.408-5.073 0-3.575 2.62-5.425 7.705-5.425s7.581 1.802 8.014 5.665h-5.393c-.091-1.02-1.14-1.644-2.866-1.644-1.386 0-2.278.446-2.278 1.117 0 .574.584 1.02 1.758 1.31l4.59 1.117c3.02.732 4.47 2.265 4.47 4.753 0 3.447-2.99 5.49-8.072 5.49-5.082 0-8.445-2.202-8.445-5.777h-.008Zm31.952-6.37v-5.21h-14.3v5.213h4.267V24.3h5.764V12.76h4.269Zm-66.529 0v-5.21H37.89v5.213h4.267V24.3h5.764V12.76h4.267Z"/>
  <defs>
    <linearGradient id="a" x1="25.047" x2="14.303" y1="-2.241" y2="31.563" gradientUnits="userSpaceOnUse">
      <stop offset=".02" stop-color="#00F"/>
      <stop offset=".08" stop-color="#0094FF"/>
      <stop offset=".16" stop-color="#48FF91"/>
      <stop offset=".42" stop-color="#0094FF"/>
      <stop offset=".68" stop-color="#0038FF"/>
      <stop offset=".9" stop-color="#0500FF"/>
    </linearGradient>
  </defs>
</svg>
