<svg xmlns="http://www.w3.org/2000/svg" width="169" height="28" fill="none" viewBox="0 0 169 28">
  <g clip-path="url(#a)">
    <path fill="#fff" fill-rule="evenodd" d="M88.22 23.892c.866.442 1.818.664 2.857.664 1.866 0 3.443-.731 4.732-2.193C97.136 20.9 97.8 19.12 97.8 17.025c0-2.078-.664-3.857-1.99-5.338-1.29-1.462-2.867-2.193-4.733-2.193-1.039 0-1.991.22-2.856.663-.49.256-.917.56-1.28.912-.229.221-.691.07-.691-.248V3.824a.39.39 0 0 0-.391-.39h-1.865a.39.39 0 0 0-.39.39v19.88c0 .215.175.39.39.39h1.874a.39.39 0 0 0 .39-.39v-.475c0-.319.462-.47.69-.247.36.351.784.655 1.273.91Zm5.627-3.203c-.865.962-1.933 1.443-3.203 1.443-1.288 0-2.366-.472-3.231-1.414-.847-.962-1.27-2.193-1.27-3.694 0-1.48.423-2.702 1.27-3.664.865-.962 1.943-1.443 3.231-1.443 1.27 0 2.337.481 3.203 1.443.866.962 1.299 2.183 1.299 3.665 0 1.5-.433 2.722-1.299 3.664ZM69.346 22.42c1.346 1.424 3.059 2.136 5.136 2.136 1.423 0 2.693-.337 3.809-1.01a6.97 6.97 0 0 0 2.429-2.404.42.42 0 0 0-.184-.595l-1.586-.774a.46.46 0 0 0-.585.173c-.941 1.457-2.197 2.186-3.767 2.186-1.232 0-2.29-.423-3.175-1.27-.78-.747-1.232-1.704-1.354-2.871a.438.438 0 0 1 .446-.476h10.19c.251 0 .463-.19.474-.44.083-1.955-.552-4.104-1.878-5.533-1.231-1.366-2.895-2.048-4.992-2.048-2.04 0-3.713.72-5.021 2.164-1.308 1.423-1.962 3.212-1.962 5.367 0 2.173.673 3.972 2.02 5.395Zm1.473-7.098c-.297 0-.519-.275-.425-.557.26-.782.681-1.423 1.26-1.924.731-.616 1.597-.924 2.597-.924 1.212 0 2.174.327 2.886.981a3.413 3.413 0 0 1 1.142 1.928c.055.264-.162.496-.432.496h-7.028Zm-4.702-5.367c.282 0 .482.275.395.543l-4.291 13.308a.415.415 0 0 1-.395.288h-2.108a.415.415 0 0 1-.395-.287l-3.054-9.413a.39.39 0 0 0-.744.001l-3.028 9.411a.415.415 0 0 1-.395.288h-2.08a.415.415 0 0 1-.394-.288l-4.291-13.308a.415.415 0 0 1 .394-.543h1.89c.184 0 .347.121.399.298l2.703 9.178a.39.39 0 0 0 .746.012l3.034-9.203a.415.415 0 0 1 .394-.285h2.14c.18 0 .339.116.395.286l3.007 9.196a.39.39 0 0 0 .746-.011l2.702-9.173a.415.415 0 0 1 .398-.298h1.832Zm85.527 14.37c-1.154 0-2.116-.356-2.885-1.068-.75-.712-1.135-1.702-1.154-2.972V12.77a.39.39 0 0 0-.391-.391h-1.7a.39.39 0 0 1-.391-.39v-1.643a.39.39 0 0 1 .391-.39h1.7a.39.39 0 0 0 .391-.391V3.824a.39.39 0 0 1 .39-.39h1.874a.39.39 0 0 1 .39.39v5.74a.39.39 0 0 0 .391.391h2.681a.39.39 0 0 1 .391.39v1.643a.39.39 0 0 1-.391.391h-2.681a.39.39 0 0 0-.391.39v6.65c0 .943.183 1.587.549 1.934.365.327.779.49 1.24.49.212 0 .414-.019.606-.058.063-.016.123-.034.182-.053.217-.069.46.035.536.25l.567 1.602a.37.37 0 0 1-.24.484c-.606.171-1.291.257-2.055.257Zm-38.863-5.829c0 1.731-.645 3.174-1.934 4.328-1.269 1.154-2.847 1.732-4.732 1.732a6.568 6.568 0 0 1-4.011-1.328 6.72 6.72 0 0 1-2.335-3.233.422.422 0 0 1 .244-.524l1.605-.669a.463.463 0 0 1 .608.282c.31.87.761 1.56 1.35 2.067.712.577 1.558.865 2.539.865 1.078 0 2.011-.336 2.799-1.01.769-.692 1.154-1.529 1.154-2.51 0-.98-.404-1.808-1.212-2.481-.788-.674-1.74-1.01-2.856-1.01h-1.263a.44.44 0 0 1-.44-.44v-1.602a.44.44 0 0 1 .44-.44h1.061c1.058 0 1.924-.288 2.597-.865.673-.597 1.01-1.366 1.01-2.309 0-.865-.318-1.567-.952-2.106-.635-.539-1.472-.808-2.511-.808-1.526 0-2.613.712-3.259 2.137a.468.468 0 0 1-.602.25l-1.641-.695a.419.419 0 0 1-.229-.55 6.128 6.128 0 0 1 2.066-2.556c1.04-.75 2.261-1.125 3.665-1.125 1.751 0 3.222.52 4.415 1.558 1.173 1 1.76 2.299 1.76 3.895 0 1.684-.692 3.12-2.075 4.068-.231.158-.225.523.019.66 1.157.649 1.551 1.16 1.825 1.563.596.846.895 1.798.895 2.856Zm5.778-.663c-.712.519-1.068 1.163-1.068 1.933 0 .692.289 1.27.866 1.731.596.462 1.289.692 2.077.692 1.116 0 2.107-.413 2.972-1.24.829-.774 1.269-1.675 1.322-2.702a.39.39 0 0 0-.165-.34c-.813-.569-1.91-.854-3.292-.854-1.077 0-1.981.26-2.712.78Zm2.366-8.34c1.962 0 3.511.53 4.645 1.588 1.135 1.038 1.703 2.471 1.703 4.299v8.323a.39.39 0 0 1-.391.39h-1.873a.39.39 0 0 1-.391-.39v-1.571c-1.096 1.616-2.558 2.424-4.386 2.424-1.558 0-2.866-.462-3.924-1.386-1.039-.923-1.558-2.077-1.558-3.462 0-1.462.548-2.626 1.645-3.491 1.115-.866 2.597-1.299 4.443-1.299 1.283 0 2.38.19 3.294.572.276.115.601-.077.576-.376-.075-.867-.335-1.635-1.071-2.273a3.729 3.729 0 0 0-2.568-.981c-1.357 0-2.457.525-3.297 1.575a.412.412 0 0 1-.539.1l-1.675-1.053a.375.375 0 0 1-.103-.547c1.281-1.628 3.104-2.441 5.47-2.441Zm21.334 14.6c.23 0 .415-.185.415-.414V10.37a.414.414 0 0 0-.415-.415h-1.825a.414.414 0 0 0-.414.415v7.405c0 1.192-.356 2.222-1.068 3.087-.712.847-1.597 1.27-2.655 1.27-2.269 0-3.433-1.154-3.491-3.463V10.37a.415.415 0 0 0-.415-.415h-1.825a.415.415 0 0 0-.415.415v8.472c0 1.828.462 3.242 1.385 4.242.943.981 2.28 1.472 4.011 1.472.904 0 1.77-.231 2.597-.693.472-.258.876-.55 1.21-.88.213-.21.666-.067.666.232v.464c0 .23.185.415.414.415h1.825Zm14.52-20.66a.39.39 0 0 0-.391.39v19.88c0 .216.175.39.391.39h1.873a.39.39 0 0 0 .39-.39V16.39c0-1.193.366-2.232 1.097-3.117.75-.904 1.664-1.356 2.741-1.356 2.251 0 3.376 1.27 3.376 3.81v7.976c0 .216.175.39.391.39h1.873a.39.39 0 0 0 .391-.39v-8.496c0-1.828-.471-3.232-1.414-4.213-.923-1-2.251-1.5-3.982-1.5-.904 0-1.779.23-2.626.692-.46.257-.855.55-1.184.878-.211.211-.663.069-.663-.23v-7.01a.39.39 0 0 0-.39-.39h-1.873ZM31.006 22.175c-.207.772-1.303.772-1.51 0l-2.409-8.991a1.025 1.025 0 0 1 0-.531l2.135-7.968a1.611 1.611 0 0 1 1.556-1.194h3.134a1.61 1.61 0 0 1 1.556 2.028l-4.463 16.656Zm-20.671-9.006a1.027 1.027 0 0 0 0-.531L8.203 4.685A1.611 1.611 0 0 0 6.647 3.49H3.513a1.611 1.611 0 0 0-1.556 2.028l4.46 16.641c.206.772 1.301.772 1.508 0l2.41-8.991Zm6.787 10.818a.415.415 0 0 0 .4.522h2.39a.415.415 0 0 0 .401-.522l-1.194-4.46c-.11-.41-.692-.41-.802 0l-1.195 4.46Z" clip-rule="evenodd"/>
    <path fill="#fff" fill-rule="evenodd" d="M14.743 26.842A1.562 1.562 0 0 1 13.233 28H10a1.562 1.562 0 0 1-1.51-1.967l6.637-24.766c.2-.748.877-1.267 1.65-1.267h3.85c.774 0 1.45.52 1.651 1.267l6.636 24.766A1.562 1.562 0 0 1 27.404 28H24.17a1.562 1.562 0 0 1-1.509-1.158l-3.228-12.046c-.2-.748-1.261-.748-1.461 0l-3.228 12.046Zm16.272-4.667c-.207.772-1.302.772-1.509 0l-2.41-8.991a1.027 1.027 0 0 1 0-.531l3.071-11.459A1.611 1.611 0 0 1 31.723 0h3.134a1.61 1.61 0 0 1 1.556 2.028l-5.398 20.147Zm-20.67-9.006a1.027 1.027 0 0 0 0-.531L7.277 1.194A1.611 1.611 0 0 0 5.72 0H2.588A1.611 1.611 0 0 0 1.03 2.028L6.426 22.16c.207.772 1.302.772 1.509 0l2.41-8.991Z" clip-rule="evenodd"/>
  </g>
  <defs>
    <clipPath id="a">
      <path fill="#fff" d="M.976 0h168v28h-168z"/>
    </clipPath>
  </defs>
</svg>
