<svg xmlns="http://www.w3.org/2000/svg" width="25" height="25" xmlns:v="https://vecta.io/nano"><path fill="#1de9b6" d="M12.985 14.416a.48.48 0 0 1 .49.471l.15 8.201a.48.48 0 0 1-.385.48l-3.304.664c-.085.017-.174.01-.256-.019a.48.48 0 0 1-.291-.613l3.153-8.865a.48.48 0 0 1 .443-.32zm1.71.394a.48.48 0 0 1 .679.028l5.18 5.633c.062.067.103.15.12.238.047.261-.126.511-.386.56l-5.06.929a.48.48 0 0 1-.566-.464l-.122-6.562c-.002-.137.054-.269.155-.362zm-2.898-.994a.48.48 0 0 1-.012.281l-2.498 7.055a.48.48 0 0 1-.613.292c-.065-.023-.125-.06-.174-.108l-5.19-5.048c-.19-.185-.194-.49-.01-.68.062-.062.139-.107.223-.13l7.688-2.006a.48.48 0 0 1 .586.344zm4.497-1.101l7.87 1.621a.48.48 0 0 1 .378.536l-.839 6.1a.48.48 0 0 1-.541.41c-.111-.015-.214-.07-.29-.152l-7.03-7.722a.48.48 0 0 1 .452-.793zM.657 7.465a.48.48 0 0 1 .62-.278l10.796 4.128a.48.48 0 0 1-.051.913L.654 15.182c-.052.014-.106.018-.16.014a.48.48 0 0 1-.44-.517l.573-7.082c.003-.045.014-.09.03-.133zm20.838-3.653c.088.07.149.17.17.28l1.63 8.145a.48.48 0 0 1-.376.565.47.47 0 0 1-.19 0l-7.002-1.437a.48.48 0 0 1-.278-.771l5.371-6.707a.48.48 0 0 1 .675-.075zm-8-1.404c.042.073.065.156.065.24v7.414a.48.48 0 0 1-.48.48c-.06 0-.117-.01-.172-.032L5.22 7.564a.48.48 0 0 1-.277-.62c.04-.103.113-.188.208-.244l7.687-4.466a.48.48 0 0 1 .657.174zm1.05-2.119a.48.48 0 0 1 .613-.291l5.128 1.823c.05.018.098.045.14.078a.48.48 0 0 1 .074.675l-5.129 6.4c-.09.114-.228.18-.374.18a.48.48 0 0 1-.48-.48V.45a.48.48 0 0 1 .027-.16z" fill-rule="evenodd"/></svg>