<svg
  xmlns="http://www.w3.org/2000/svg"
  xmlns:v="https://vecta.io/nano"
  width="38"
  height="35"
  fill="none"
  stroke-width=".25"
  stroke-linejoin="round"
>
  <path d="M35.22.5L21.156 10.955l2.615-6.162L35.22.5z" fill="#e17726" stroke="#e17726" />
  <g fill="#e27625" stroke="#e27625">
    <path
      d="M2.781.5l13.938 10.553-2.49-6.259L2.781.5zm27.375 24.242l-3.742 5.744 8.012 2.216 2.295-7.834-6.566-.125zm-28.864.126l2.281 7.834 7.999-2.216-3.728-5.744-6.552.125z"
    />
    <path
      d="M11.141 15.039l-2.226 3.374 7.929.363-.264-8.573-5.439 4.837zm15.718 0l-5.522-4.935-.181 8.671 7.929-.362-2.226-3.374zM11.572 30.485l4.799-2.328-4.131-3.234-.668 5.562zm10.057-2.328l4.785 2.328-.654-5.562-4.131 3.234z"
    />
  </g>
  <path
    d="M26.414 30.486l-4.785-2.328.389 3.123-.042 1.324 4.437-2.119zm-14.842 0l4.451 2.119-.028-1.324.375-3.123-4.799 2.328z"
    fill="#d5bfb2"
    stroke="#d5bfb2"
  />
  <path
    d="M16.107 22.861l-3.978-1.171 2.81-1.296 1.169 2.467zm5.786 0l1.169-2.467 2.824 1.296-3.992 1.171z"
    fill="#233447"
    stroke="#233447"
  />
  <path
    d="M11.572 30.486l.696-5.743-4.424.125 3.728 5.618zm14.16-5.744l.682 5.743 3.742-5.618-4.424-.125zm3.353-6.328l-7.929.362.737 4.085 1.168-2.468 2.824 1.297 3.199-3.276zM12.128 21.69l2.81-1.297 1.168 2.468.737-4.085-7.929-.362 3.213 3.276z"
    fill="#cc6228"
    stroke="#cc6228"
  />
  <path
    d="M8.915 18.414l3.325 6.51-.111-3.234-3.213-3.276zm16.97 3.276l-.125 3.234 3.325-6.51-3.199 3.276zm-9.041-2.915l-.737 4.085.932 4.823.209-6.357-.403-2.551zm4.312 0l-.389 2.537.195 6.371.932-4.823-.737-4.085z"
    fill="#e27525"
    stroke="#e27525"
  />
  <path
    d="M21.893 22.861l-.932 4.823.668.474 4.131-3.234.125-3.234-3.992 1.171zm-9.765-1.171l.111 3.234 4.131 3.234.668-.474-.932-4.823-3.978-1.171z"
    fill="#f5841f"
    stroke="#f5841f"
  />
  <path
    d="M21.977 32.604l.042-1.324-.362-.307h-5.314l-.348.307.028 1.324-4.451-2.119 1.558 1.283 3.158 2.189h5.411l3.172-2.189 1.544-1.283-4.437 2.119z"
    fill="#c0ac9d"
    stroke="#c0ac9d"
  />
  <path
    d="M21.629 28.158l-.668-.474h-3.923l-.668.474-.376 3.123.348-.307h5.314l.362.307-.39-3.123z"
    fill="#151515"
    stroke="#151515"
  />
  <path
    d="M35.818 11.638L37 5.867 35.22.5 21.63 10.607l5.23 4.433 7.386 2.161 1.627-1.91-.709-.516 1.127-1.032-.862-.669 1.127-.864-.737-.571zM1 5.867l1.196 5.771-.765.571 1.141.864-.862.669 1.127 1.032-.709.516 1.628 1.91 7.386-2.161 5.23-4.433L2.781.5 1 5.867z"
    fill="#763e1a"
    stroke="#763e1a"
  />
  <path
    d="M34.246 17.201L26.86 15.04l2.226 3.374-3.325 6.51 4.396-.056h6.566l-2.476-7.667zM11.141 15.04l-7.386 2.161-2.462 7.667h6.552l4.396.056-3.325-6.51 2.226-3.374zm10.015 3.736l.473-8.169 2.142-5.813h-9.542l2.142 5.813.473 8.169.181 2.565.014 6.343h3.923l.014-6.343.181-2.565z"
    fill="#f5841f"
    stroke="#f5841f"
  />
</svg>
