<svg xmlns="http://www.w3.org/2000/svg" width="48" height="30" fill="none" xmlns:v="https://vecta.io/nano">
  <path
    d="M9.827 5.748c7.828-7.664 20.519-7.664 28.347 0l.942.922c.391.383.391 1.004 0 1.388l-3.223 3.155a.51.51 0 0 1-.709 0l-1.296-1.269c-5.461-5.347-14.315-5.347-19.775 0l-1.388 1.359a.51.51 0 0 1-.709 0L8.793 8.148c-.391-.383-.391-1.004 0-1.388l1.034-1.012zm35.012 6.525l2.868 2.808c.391.383.391 1.005 0 1.388L34.774 29.132a1.02 1.02 0 0 1-1.417 0l-9.179-8.987c-.098-.096-.256-.096-.354 0h0l-9.179 8.987a1.02 1.02 0 0 1-1.417 0L.294 16.469c-.391-.383-.391-1.005 0-1.388l2.868-2.808a1.02 1.02 0 0 1 1.417 0l9.179 8.987c.098.096.256.096.354 0l9.179-8.987a1.02 1.02 0 0 1 1.417 0l9.179 8.987c.098.096.257.096.354 0l9.179-8.987a1.02 1.02 0 0 1 1.417 0z"
    fill="#3b99fc"
  />
</svg>
