<svg xmlns="http://www.w3.org/2000/svg" xmlns:xlink="http://www.w3.org/1999/xlink" width="229" height="47" xmlns:v="https://vecta.io/nano"><g fill="none" fill-rule="evenodd"><g fill="#a9a9a980" fill-rule="nonzero"><use xlink:href="#B"/><path d="M89.124 16.17v13.806h-1.966v-5.9H79.25v5.9h-2.009V16.17h2.009v5.941h7.908V16.17h1.966m9.66 0l5.343 13.806h-1.966l-1.24-3.163H94.68l-1.24 3.163h-1.965l5.343-13.806h1.966 0zm-3.334 8.677h4.7l-2.351-6.112-2.349 6.112zm11.028-8.677h1.966v13.806h-1.966zm7.523 13.806h-1.966V16.17h1.966l8.292 10.729V16.17h1.966v13.806h-1.966l-8.292-10.729v10.729m15.815-5.899a2.02 2.02 0 0 1-1.838-1.24 2.5 2.5 0 0 1-.171-.769v-3.932a2.12 2.12 0 0 1 .6-1.411 2.4 2.4 0 0 1 .641-.427 2.5 2.5 0 0 1 .769-.171h6.711a2.02 2.02 0 0 1 1.838 1.24 2.5 2.5 0 0 1 .171.769v1.8h-1.966v-1.8h-6.712v3.932h6.711a2.02 2.02 0 0 1 1.838 1.24 2.5 2.5 0 0 1 .171.769v3.932a2.02 2.02 0 0 1-1.24 1.838 2.5 2.5 0 0 1-.769.171h-6.882a2.02 2.02 0 0 1-1.838-1.24 2.5 2.5 0 0 1-.171-.769v-1.8h1.966v1.8h6.882v-3.932h-6.711m12.225-7.907h10.088v1.966h-8.121v3.975h6.925v1.966h-6.925v3.933h8.121v1.966h-10.088V16.17"/><use xlink:href="#B" x="92.455"/><path d="M169.697 16.17h1.966v11.84h7.908V16.17h1.966v11.84a2.02 2.02 0 0 1-1.24 1.838 2.5 2.5 0 0 1-.769.171h-7.908a2.02 2.02 0 0 1-1.838-1.24 2.5 2.5 0 0 1-.171-.769V16.17m26.416 4.916c0 1.923-.812 3.035-2.479 3.291l2.607 5.6h-2.18l-2.565-5.514h-4.317v5.514h-1.966V16.17h7.566c2.223 0 3.334 1.111 3.334 3.377v1.539h0zm-8.976 1.411h5.471a1.77 1.77 0 0 0 1.154-.342 1.61 1.61 0 0 0 .342-1.154v-1.369a1.77 1.77 0 0 0-.342-1.154 1.61 1.61 0 0 0-1.154-.342h-5.471v4.361zm12.267-6.327h1.966v13.806h-1.966zm4.318 0h11.071v1.966h-4.531v11.84h-1.966v-11.84h-4.574V16.17m14.361 0l4.018 6.454 4.018-6.454h2.308l-5.343 8.335v5.471h-1.966v-5.471l-5.343-8.335h2.308"/></g><g stroke="#a9a9a980"><g stroke-width=".28"><path d="M39.966 34.617L20.554 1"/><path d="M1.142 12.194l38.824 22.423"/><path d="M39.966 12.194L1.142 34.617"/><path d="M20.554 45.846V1"/><path d="M39.966 34.617H1.142M20.554 1L1.142 34.617"/><path d="M39.966 12.194H1.142"/><path d="M20.554 45.846l19.412-33.652m-38.824 0l19.412 33.652"/><path d="M39.966 34.617V12.194L20.554 1 1.142 12.194v22.423l19.412 11.229z"/><path d="M1.142 23.423h38.824"/><path d="M10.671 40.143l19.731-33.44"/><path d="M29.941 40.426L11.131 6.42"/></g><g stroke-linecap="round" stroke-linejoin="round"><path stroke-width="3" d="M30.118 17.826l-3.153-5.491-12.752-.141-3.507 5.632L30.118 29.02l-3.507 5.6H13.93l-3.224-5.6"/><path stroke-width="2" d="M30.26 6.7L20.412 1 1 12.194v22.423l19.412 11.229 9.423-5.42"/></g></g></g><defs ><path id="B" d="M62.623 18.136a2.12 2.12 0 0 1 .6-1.411 2.4 2.4 0 0 1 .641-.427 2.5 2.5 0 0 1 .769-.171h7.48a2.02 2.02 0 0 1 1.838 1.24 2.5 2.5 0 0 1 .171.769v1.8h-1.966v-1.8h-7.48v9.874h7.48v-1.8h1.967v1.8a2.02 2.02 0 0 1-1.24 1.838 2.5 2.5 0 0 1-.769.171h-7.48a2.02 2.02 0 0 1-1.838-1.24 2.5 2.5 0 0 1-.171-.769v-9.874"/></defs></svg>