<svg xmlns="http://www.w3.org/2000/svg" width="48" height="30" viewBox="0 0 56 30" fill="none" xmlns:v="https://vecta.io/nano"><path d="M29.853 13.812c-.142.081-.317.121-.52.121-.068 0-.223-.007-.479-.034v.736a2.52 2.52 0 0 0 .675.081 1.39 1.39 0 0 0 .877-.277c.236-.182.445-.466.621-.857l1.984-4.534-.938.013-1.201 2.969-1.167-2.969h-.938l1.626 3.887-.169.385c-.108.236-.236.398-.371.479zm5.229-.749a1.5 1.5 0 0 1-.594-.486h-.007v.56h-.81V6.923h.87v2.645c.324-.391.783-.587 1.37-.587l-.034.007a1.9 1.9 0 0 1 1.437.607c.385.405.574.911.574 1.518s-.196 1.113-.567 1.518c-.371.412-.843.607-1.417.607a1.94 1.94 0 0 1-.823-.175zm.649-3.28a1.23 1.23 0 0 0-.87.351c-.243.229-.358.56-.358.999s.121.769.364.992a1.24 1.24 0 0 0 .87.331h.013c.358 0 .634-.135.877-.385s.358-.574.358-.965c0-.385-.115-.702-.358-.951a1.2 1.2 0 0 0-.898-.371zm-8.996 8.969h-.007c-.506 0-.911.169-1.221.499v-.405h-.81v4.089h.87v-2.443c0-.277.081-.499.256-.675a.91.91 0 0 1 .675-.263.89.89 0 0 1 .648.263c.169.175.25.405.25.688v2.429h.87v-2.551c0-.486-.135-.877-.405-1.174s-.654-.459-1.127-.459zm2.935.613c.405-.412.904-.621 1.491-.621.54 0 .992.176 1.343.533a1.82 1.82 0 0 1 .54 1.343s-.007.344-.081.547h-3.036c.054.337.202.607.445.796s.54.283.897.283c.425 0 .823-.155 1.188-.479l.412.594a2.29 2.29 0 0 1-1.626.654c-.628 0-1.154-.209-1.565-.614s-.621-.911-.621-1.518c0-.601.209-1.107.614-1.518zm.701.398c-.216.182-.358.425-.425.729h2.213c-.007-.304-.108-.547-.304-.729a1.06 1.06 0 0 0-.736-.277 1.15 1.15 0 0 0-.749.277zm12.127-7.172a2.29 2.29 0 0 1-1.626.655c-.628 0-1.154-.202-1.565-.614-.412-.405-.621-.911-.621-1.518 0-.6.209-1.107.614-1.518a2.02 2.02 0 0 1 1.491-.621c.54 0 .985.175 1.343.533a1.82 1.82 0 0 1 .54 1.343s0 .331-.081.547h-3.037c.054.337.203.607.445.796s.54.283.897.283c.425 0 .823-.155 1.188-.479l.412.594zm-1.754-2.868a1.15 1.15 0 0 0-.749.277 1.26 1.26 0 0 0-.425.729h2.213c-.007-.304-.108-.547-.304-.729a1.06 1.06 0 0 0-.736-.277zM35.952 22.22c-.263 0-.466-.047-.594-.155-.135-.108-.196-.29-.196-.547v-1.916h1.208v-.756h-1.208V17.78h-.877v1.066h-.661v.756h.661v1.991c0 .472.135.83.398 1.059s.628.351 1.1.351c.209 0 .445-.034.722-.094v-.736l-.54.047h-.014zm5.878-.749l-1.255-2.719h-.297l-1.235 2.753-1.073-2.659h-.925l1.808 4.157h.297l1.275-2.706 1.275 2.706h.304l1.802-4.157h-.924l-1.053 2.625zm2.846-2.105a2.09 2.09 0 0 1 1.525-.614c.594.007 1.1.203 1.511.607a2.03 2.03 0 0 1 .641 1.511 2.02 2.02 0 0 1-.627 1.518 2.11 2.11 0 0 1-1.525.621c-.607-.007-1.113-.216-1.525-.621a2.05 2.05 0 0 1-.621-1.511 2.04 2.04 0 0 1 .621-1.512zm1.511 2.82a1.19 1.19 0 0 0 .897-.371 1.33 1.33 0 0 0 .364-.945c0-.378-.115-.695-.358-.945-.243-.243-.54-.371-.898-.378h-.007c-.364.014-.661.135-.904.385s-.358.56-.358.945c0 .371.115.688.358.938a1.2 1.2 0 0 0 .904.371zm3.78-2.814v-.533h-.81v4.089h.87v-2.186c0-.358.115-.628.337-.83.223-.196.506-.297.843-.297h.263v-.769a1.18 1.18 0 0 0-.324-.041c-.493 0-.891.189-1.181.567zm-5.621-8.394c0-.358.115-.628.337-.83.223-.196.506-.297.843-.297h.263v-.769a1.18 1.18 0 0 0-.324-.04c-.499 0-.898.196-1.188.574v-.533h-.81v4.082h.87v-2.186h.007z" fill-rule="evenodd" fill="#a9a9a980"/><path fill="#a9a9a980" d="M52.28 16.694h.87v6.235h-.87z"/><path d="M54.205 20.634l1.64-1.788h-1.073l-1.593 1.781 1.775 2.301H56l-1.795-2.294zM28.259 9.076h-1.08l-1.586 1.788 1.775 2.301h1.046l-1.795-2.294 1.64-1.795z" fill="#a9a9a980" fill-rule="evenodd"/><path fill="#a9a9a980" d="M24.697 6.929h.87v6.235h-.87z"/><path d="M8.934 14.919l11.14 6.39c.391.223.877-.061.877-.506V9.028c0-.452-.486-.729-.877-.506l-11.14 6.397zm10.498-9.143L12.023.121a.58.58 0 0 0-.924.344L8.393 13.05l10.972-6.302c.364-.209.398-.715.068-.972zm-7.407 23.941l7.416-5.654a.59.59 0 0 0-.061-.972L8.402 16.788l2.706 12.584a.58.58 0 0 0 .918.344zM6.08 14.92L8.995 1.357C9.109.824 8.502.439 8.07.77L.607 6.465A1.54 1.54 0 0 0 0 7.693V22.14a1.54 1.54 0 0 0 .607 1.228l7.463 5.695c.432.331 1.039-.054.924-.587L6.08 14.92z" fill="#a9a9a980" fill-rule="evenodd"/></svg>