<svg width="38" height="35" viewBox="0 0 38 35" fill="none" xmlns="http://www.w3.org/2000/svg">
<g id="Group 16334">
<path id="Vector" d="M35.2195 0.5L21.1561 10.9553L23.7713 4.79365L35.2195 0.5Z" fill="#E17726" stroke="#E17726" stroke-width="0.25" stroke-linecap="round" stroke-linejoin="round"/>
<path id="Vector_2" d="M2.78052 0.5L16.7187 11.0529L14.2288 4.79364L2.78052 0.5Z" fill="#E27625" stroke="#E27625" stroke-width="0.25" stroke-linecap="round" stroke-linejoin="round"/>
<path id="Vector_3" d="M30.1558 24.7422L26.4139 30.4857L34.4263 32.7022L36.7216 24.8677L30.1558 24.7422Z" fill="#E27625" stroke="#E27625" stroke-width="0.25" stroke-linecap="round" stroke-linejoin="round"/>
<path id="Vector_4" d="M1.29211 24.8677L3.5734 32.7022L11.5719 30.4857L7.84388 24.7422L1.29211 24.8677Z" fill="#E27625" stroke="#E27625" stroke-width="0.25" stroke-linecap="round" stroke-linejoin="round"/>
<path id="Vector_5" d="M11.1405 15.0394L8.91492 18.413L16.8438 18.7755L16.5795 10.2021L11.1405 15.0394Z" fill="#E27625" stroke="#E27625" stroke-width="0.25" stroke-linecap="round" stroke-linejoin="round"/>
<path id="Vector_6" d="M26.859 15.0394L21.3367 10.1045L21.1559 18.7754L29.0847 18.413L26.859 15.0394Z" fill="#E27625" stroke="#E27625" stroke-width="0.25" stroke-linecap="round" stroke-linejoin="round"/>
<path id="Vector_7" d="M11.5719 30.485L16.3709 28.157L12.2396 24.9229L11.5719 30.485Z" fill="#E27625" stroke="#E27625" stroke-width="0.25" stroke-linecap="round" stroke-linejoin="round"/>
<path id="Vector_8" d="M21.6292 28.157L26.4142 30.485L25.7604 24.9229L21.6292 28.157Z" fill="#E27625" stroke="#E27625" stroke-width="0.25" stroke-linecap="round" stroke-linejoin="round"/>
<path id="Vector_9" d="M26.4142 30.4862L21.6292 28.1582L22.0186 31.2808L21.9768 32.6052L26.4142 30.4862Z" fill="#D5BFB2" stroke="#D5BFB2" stroke-width="0.25" stroke-linecap="round" stroke-linejoin="round"/>
<path id="Vector_10" d="M11.5719 30.4862L16.0232 32.6052L15.9954 31.2808L16.3709 28.1582L11.5719 30.4862Z" fill="#D5BFB2" stroke="#D5BFB2" stroke-width="0.25" stroke-linecap="round" stroke-linejoin="round"/>
<path id="Vector_11" d="M16.1066 22.861L12.1282 21.69L14.938 20.3936L16.1066 22.861Z" fill="#233447" stroke="#233447" stroke-width="0.25" stroke-linecap="round" stroke-linejoin="round"/>
<path id="Vector_12" d="M21.8934 22.861L23.0619 20.3936L25.8857 21.69L21.8934 22.861Z" fill="#233447" stroke="#233447" stroke-width="0.25" stroke-linecap="round" stroke-linejoin="round"/>
<path id="Vector_13" d="M11.5717 30.4856L12.2673 24.7422L7.84375 24.8677L11.5717 30.4856Z" fill="#CC6228" stroke="#CC6228" stroke-width="0.25" stroke-linecap="round" stroke-linejoin="round"/>
<path id="Vector_14" d="M25.7323 24.7422L26.4139 30.4856L30.1558 24.8677L25.7323 24.7422Z" fill="#CC6228" stroke="#CC6228" stroke-width="0.25" stroke-linecap="round" stroke-linejoin="round"/>
<path id="Vector_15" d="M29.0847 18.4141L21.1559 18.7765L21.8931 22.8611L23.0616 20.3936L25.8854 21.6901L29.0847 18.4141Z" fill="#CC6228" stroke="#CC6228" stroke-width="0.25" stroke-linecap="round" stroke-linejoin="round"/>
<path id="Vector_16" d="M12.1282 21.6901L14.9381 20.3936L16.1066 22.8611L16.8438 18.7765L8.91492 18.4141L12.1282 21.6901Z" fill="#CC6228" stroke="#CC6228" stroke-width="0.25" stroke-linecap="round" stroke-linejoin="round"/>
<path id="Vector_17" d="M8.91516 18.4141L12.2398 24.9243L12.1284 21.6901L8.91516 18.4141Z" fill="#E27525" stroke="#E27525" stroke-width="0.25" stroke-linecap="round" stroke-linejoin="round"/>
<path id="Vector_18" d="M25.8854 21.6901L25.7603 24.9243L29.0848 18.4141L25.8854 21.6901Z" fill="#E27525" stroke="#E27525" stroke-width="0.25" stroke-linecap="round" stroke-linejoin="round"/>
<path id="Vector_19" d="M16.8441 18.7754L16.1068 22.86L17.0388 27.6833L17.2475 21.3265L16.8441 18.7754Z" fill="#E27525" stroke="#E27525" stroke-width="0.25" stroke-linecap="round" stroke-linejoin="round"/>
<path id="Vector_20" d="M21.156 18.7754L20.7665 21.3126L20.9612 27.6833L21.8932 22.86L21.156 18.7754Z" fill="#E27525" stroke="#E27525" stroke-width="0.25" stroke-linecap="round" stroke-linejoin="round"/>
<path id="Vector_21" d="M21.8934 22.8605L20.9614 27.6838L21.6291 28.1578L25.7606 24.9236L25.8857 21.6895L21.8934 22.8605Z" fill="#F5841F" stroke="#F5841F" stroke-width="0.25" stroke-linecap="round" stroke-linejoin="round"/>
<path id="Vector_22" d="M12.1282 21.6895L12.2395 24.9236L16.3708 28.1578L17.0385 27.6838L16.1066 22.8605L12.1282 21.6895Z" fill="#F5841F" stroke="#F5841F" stroke-width="0.25" stroke-linecap="round" stroke-linejoin="round"/>
<path id="Vector_23" d="M21.9769 32.6043L22.0185 31.28L21.6569 30.9732H16.3432L15.9954 31.28L16.0232 32.6043L11.5719 30.4854L13.1298 31.7679L16.2875 33.9565H21.6986L24.8701 31.7679L26.4142 30.4854L21.9769 32.6043Z" fill="#C0AC9D" stroke="#C0AC9D" stroke-width="0.25" stroke-linecap="round" stroke-linejoin="round"/>
<path id="Vector_24" d="M21.629 28.1575L20.9613 27.6836H17.0386L16.371 28.1575L15.9954 31.2802L16.3431 30.9735H21.6569L22.0186 31.2802L21.629 28.1575Z" fill="#151515" stroke="#151515" stroke-width="0.25" stroke-linecap="round" stroke-linejoin="round"/>
<path id="Vector_25" d="M35.8176 11.6384L37.0001 5.86706L35.2195 0.5L21.6292 10.6068L26.8594 15.0398L34.2458 17.2006L35.8733 15.2908L35.1639 14.775L36.2906 13.7434L35.4282 13.0743L36.5549 12.2099L35.8176 11.6384Z" fill="#763E1A" stroke="#763E1A" stroke-width="0.25" stroke-linecap="round" stroke-linejoin="round"/>
<path id="Vector_26" d="M1 5.86706L2.19629 11.6384L1.43123 12.2099L2.57187 13.0743L1.70943 13.7434L2.83616 14.775L2.12673 15.2908L3.75425 17.2006L11.1407 15.0398L16.3709 10.6068L2.78053 0.5L1 5.86706Z" fill="#763E1A" stroke="#763E1A" stroke-width="0.25" stroke-linecap="round" stroke-linejoin="round"/>
<path id="Vector_27" d="M34.2456 17.2008L26.8592 15.04L29.0848 18.4136L25.7603 24.9238L30.1559 24.868H36.7216L34.2456 17.2008Z" fill="#F5841F" stroke="#F5841F" stroke-width="0.25" stroke-linecap="round" stroke-linejoin="round"/>
<path id="Vector_28" d="M11.1406 15.04L3.75424 17.2008L1.29211 24.868H7.84388L12.2395 24.9238L8.91498 18.4136L11.1406 15.04Z" fill="#F5841F" stroke="#F5841F" stroke-width="0.25" stroke-linecap="round" stroke-linejoin="round"/>
<path id="Vector_29" d="M21.1561 18.7762L21.6291 10.607L23.7712 4.79395H14.2288L16.3709 10.607L16.8439 18.7762L17.0247 21.3412L17.0386 27.6841H20.9613L20.9753 21.3412L21.1561 18.7762Z" fill="#F5841F" stroke="#F5841F" stroke-width="0.25" stroke-linecap="round" stroke-linejoin="round"/>
</g>
</svg>
