<svg xmlns="http://www.w3.org/2000/svg" width="40" height="40" viewBox="0 0 40 40" fill="none">
  <g clip-path="url(#clip0_3344_20684)">
    <path d="M20.0003 19.1295C23.3622 19.1295 26.0875 16.4041 26.0875 13.0423C26.0875 9.68041 23.3622 6.95508 20.0003 6.95508C16.6384 6.95508 13.9131 9.68041 13.9131 13.0423C13.9131 16.4041 16.6384 19.1295 20.0003 19.1295Z" fill="url(#paint0_linear_3344_20684)"/>
    <path d="M20.0004 27.8255C21.9214 27.8255 23.4788 26.2681 23.4788 24.3471C23.4788 22.426 21.9214 20.8687 20.0004 20.8687C18.0793 20.8687 16.522 22.426 16.522 24.3471C16.522 26.2681 18.0793 27.8255 20.0004 27.8255Z" fill="url(#paint1_linear_3344_20684)"/>
    <path d="M20.0004 39.9998C21.9214 39.9998 23.4788 38.4424 23.4788 36.5214C23.4788 34.6003 21.9214 33.043 20.0004 33.043C18.0793 33.043 16.522 34.6003 16.522 36.5214C16.522 38.4424 18.0793 39.9998 20.0004 39.9998Z" fill="url(#paint2_linear_3344_20684)"/>
    <path d="M10.4349 37.3911C12.356 37.3911 13.9133 35.8338 13.9133 33.9127C13.9133 31.9917 12.356 30.4343 10.4349 30.4343C8.51388 30.4343 6.95654 31.9917 6.95654 33.9127C6.95654 35.8338 8.51388 37.3911 10.4349 37.3911Z" fill="url(#paint3_linear_3344_20684)"/>
    <path d="M29.5658 37.3911C31.4869 37.3911 33.0442 35.8338 33.0442 33.9127C33.0442 31.9917 31.4869 30.4343 29.5658 30.4343C27.6447 30.4343 26.0874 31.9917 26.0874 33.9127C26.0874 35.8338 27.6447 37.3911 29.5658 37.3911Z" fill="url(#paint4_linear_3344_20684)"/>
    <g filter="url(#filter0_bi_3344_20684)">
      <path d="M28.5226 22.608C28.3499 22.608 28.1811 22.5565 28.0378 22.4602C27.8944 22.3639 27.783 22.2271 27.7177 22.0672C27.6524 21.9073 27.6362 21.7316 27.6711 21.5624C27.7061 21.3933 27.7906 21.2384 27.9139 21.1175C29.5175 19.5456 30.6167 17.5318 31.0713 15.3328C31.5259 13.1338 31.3153 10.8492 30.4663 8.77037C29.6174 6.69152 28.1686 4.91259 26.3046 3.66038C24.4407 2.40818 22.2461 1.73945 20.0006 1.73945C17.755 1.73945 15.5604 2.40818 13.6965 3.66038C11.8325 4.91259 10.3837 6.69152 9.53477 8.77037C8.68584 10.8492 8.47524 13.1338 8.92982 15.3328C9.38441 17.5318 10.4836 19.5456 12.0872 21.1175C12.1706 21.197 12.2374 21.2923 12.2837 21.3978C12.33 21.5034 12.3548 21.617 12.3568 21.7323C12.3588 21.8475 12.3378 21.962 12.2952 22.069C12.2525 22.1761 12.189 22.2736 12.1083 22.3559C12.0276 22.4382 11.9314 22.5036 11.8252 22.5484C11.719 22.5931 11.605 22.6164 11.4897 22.6167C11.3745 22.617 11.2603 22.5944 11.1539 22.5502C11.0475 22.506 10.9509 22.4411 10.8698 22.3593C9.01943 20.5456 7.75115 18.222 7.22663 15.6846C6.70211 13.1473 6.94512 10.5113 7.92466 8.1126C8.9042 5.71393 10.5759 3.66131 12.7266 2.21646C14.8773 0.771615 17.4096 0 20.0006 0C22.5915 0 25.1238 0.771615 27.2745 2.21646C29.4252 3.66131 31.0969 5.71393 32.0765 8.1126C33.056 10.5113 33.299 13.1473 32.7745 15.6846C32.25 18.222 30.9817 20.5456 29.1314 22.3593C28.9688 22.5187 28.7503 22.608 28.5226 22.608Z" fill="#1D1D1D" fill-opacity="0.05"/>
      <path d="M28.5226 22.608C28.3499 22.608 28.1811 22.5565 28.0378 22.4602C27.8944 22.3639 27.783 22.2271 27.7177 22.0672C27.6524 21.9073 27.6362 21.7316 27.6711 21.5624C27.7061 21.3933 27.7906 21.2384 27.9139 21.1175C29.5175 19.5456 30.6167 17.5318 31.0713 15.3328C31.5259 13.1338 31.3153 10.8492 30.4663 8.77037C29.6174 6.69152 28.1686 4.91259 26.3046 3.66038C24.4407 2.40818 22.2461 1.73945 20.0006 1.73945C17.755 1.73945 15.5604 2.40818 13.6965 3.66038C11.8325 4.91259 10.3837 6.69152 9.53477 8.77037C8.68584 10.8492 8.47524 13.1338 8.92982 15.3328C9.38441 17.5318 10.4836 19.5456 12.0872 21.1175C12.1706 21.197 12.2374 21.2923 12.2837 21.3978C12.33 21.5034 12.3548 21.617 12.3568 21.7323C12.3588 21.8475 12.3378 21.962 12.2952 22.069C12.2525 22.1761 12.189 22.2736 12.1083 22.3559C12.0276 22.4382 11.9314 22.5036 11.8252 22.5484C11.719 22.5931 11.605 22.6164 11.4897 22.6167C11.3745 22.617 11.2603 22.5944 11.1539 22.5502C11.0475 22.506 10.9509 22.4411 10.8698 22.3593C9.01943 20.5456 7.75115 18.222 7.22663 15.6846C6.70211 13.1473 6.94512 10.5113 7.92466 8.1126C8.9042 5.71393 10.5759 3.66131 12.7266 2.21646C14.8773 0.771615 17.4096 0 20.0006 0C22.5915 0 25.1238 0.771615 27.2745 2.21646C29.4252 3.66131 31.0969 5.71393 32.0765 8.1126C33.056 10.5113 33.299 13.1473 32.7745 15.6846C32.25 18.222 30.9817 20.5456 29.1314 22.3593C28.9688 22.5187 28.7503 22.608 28.5226 22.608Z" fill="url(#paint5_linear_3344_20684)" fill-opacity="0.2"/>
      <path d="M11.9147 21.2985L11.9122 21.296C10.2731 19.6894 9.14963 17.6311 8.685 15.3834C8.22036 13.1358 8.43562 10.8007 9.30333 8.67586C10.171 6.55103 11.6519 4.73276 13.557 3.45286C15.4622 2.17297 17.7054 1.48945 20.0006 1.48945C22.2957 1.48945 24.5389 2.17297 26.4441 3.45286C28.3492 4.73276 29.8301 6.55103 30.6978 8.67586C31.5655 10.8007 31.7807 13.1358 31.3161 15.3834C30.8515 17.6311 29.728 19.6894 28.089 21.296C28.0011 21.3822 27.9409 21.4925 27.916 21.613C27.8911 21.7335 27.9026 21.8587 27.9492 21.9727C27.9957 22.0866 28.0751 22.1841 28.1772 22.2527C28.2793 22.3213 28.3996 22.358 28.5226 22.358L11.9147 21.2985ZM11.9147 21.2985C11.9742 21.3551 12.0218 21.423 12.0548 21.4982C12.0877 21.5734 12.1055 21.6544 12.1068 21.7365C12.1082 21.8186 12.0933 21.9002 12.0629 21.9765C12.0325 22.0527 11.9873 22.1222 11.9298 22.1808L12.1083 22.3559M11.9147 21.2985L12.1083 22.3559M12.1083 22.3559L11.9298 22.1809C11.8723 22.2395 11.8037 22.2861 11.7281 22.318C11.6524 22.3499 11.5712 22.3665 11.489 22.3667C11.4069 22.3669 11.3256 22.3508 11.2498 22.3193C11.1739 22.2878 11.1051 22.2416 11.0473 22.1833L11.0448 22.1808M12.1083 22.3559L11.0448 22.1808M11.0448 22.1808C9.22989 20.4018 7.98592 18.1227 7.47146 15.634C6.95699 13.1453 7.19533 10.5598 8.1561 8.20712C9.11687 5.85442 10.7565 3.84114 12.866 2.42398C14.9755 1.00683 17.4592 0.25 20.0006 0.25C22.5419 0.25 25.0256 1.00683 27.1351 2.42398C29.2446 3.84114 30.8842 5.85442 31.845 8.20712C32.8058 10.5598 33.0441 13.1453 32.5296 15.634C32.0152 18.1227 30.7712 20.4018 28.9564 22.1808L28.9563 22.1808M11.0448 22.1808L28.9563 22.1808M28.9563 22.1808C28.8405 22.2943 28.6848 22.358 28.5227 22.358L28.9563 22.1808Z" stroke="url(#paint6_linear_3344_20684)" stroke-opacity="0.1" stroke-width="0.5"/>
    </g>
    <g filter="url(#filter1_bi_3344_20684)">
      <path d="M20.0005 34.7822C19.7698 34.7822 19.5486 34.6906 19.3856 34.5275C19.2225 34.3644 19.1309 34.1432 19.1309 33.9126V26.9558C19.1309 26.7251 19.2225 26.504 19.3856 26.3409C19.5486 26.1778 19.7698 26.0862 20.0005 26.0862C20.2311 26.0862 20.4523 26.1778 20.6154 26.3409C20.7784 26.504 20.8701 26.7251 20.8701 26.9558V33.9126C20.8701 34.1432 20.7784 34.3644 20.6154 34.5275C20.4523 34.6906 20.2311 34.7822 20.0005 34.7822Z" fill="#1D1D1D" fill-opacity="0.05"/>
      <path d="M20.0005 34.7822C19.7698 34.7822 19.5486 34.6906 19.3856 34.5275C19.2225 34.3644 19.1309 34.1432 19.1309 33.9126V26.9558C19.1309 26.7251 19.2225 26.504 19.3856 26.3409C19.5486 26.1778 19.7698 26.0862 20.0005 26.0862C20.2311 26.0862 20.4523 26.1778 20.6154 26.3409C20.7784 26.504 20.8701 26.7251 20.8701 26.9558V33.9126C20.8701 34.1432 20.7784 34.3644 20.6154 34.5275C20.4523 34.6906 20.2311 34.7822 20.0005 34.7822Z" fill="url(#paint7_linear_3344_20684)" fill-opacity="0.2"/>
      <path d="M20.0005 34.5322C19.8361 34.5322 19.6785 34.4669 19.5623 34.3507C19.4461 34.2345 19.3809 34.0769 19.3809 33.9126V26.9558C19.3809 26.7915 19.4461 26.6339 19.5623 26.5177C19.6785 26.4015 19.8361 26.3362 20.0005 26.3362C20.1648 26.3362 20.3224 26.4015 20.4386 26.5177C20.5548 26.6339 20.6201 26.7915 20.6201 26.9558V33.9126C20.6201 34.0769 20.5548 34.2345 20.4386 34.3507C20.3224 34.4669 20.1648 34.5322 20.0005 34.5322Z" stroke="url(#paint8_linear_3344_20684)" stroke-opacity="0.1" stroke-width="0.5"/>
    </g>
    <g filter="url(#filter2_bi_3344_20684)">
      <path d="M10.4346 32.1739C10.2039 32.1739 9.98274 32.0822 9.81965 31.9192C9.65657 31.7561 9.56495 31.5349 9.56495 31.3043V27.8259C9.56407 27.6635 9.60864 27.5042 9.69363 27.3659C9.77862 27.2275 9.90062 27.1158 10.0458 27.0432L17.0026 23.5648C17.2091 23.4617 17.448 23.4449 17.6668 23.5179C17.8857 23.591 18.0666 23.748 18.1697 23.9544C18.2727 24.1608 18.2896 24.3997 18.2166 24.6186C18.1435 24.8374 17.9865 25.0183 17.7801 25.1214L11.3042 28.3633V31.3043C11.3042 31.5349 11.2125 31.7561 11.0495 31.9192C10.8864 32.0822 10.6652 32.1739 10.4346 32.1739Z" fill="#1D1D1D" fill-opacity="0.05"/>
      <path d="M10.4346 32.1739C10.2039 32.1739 9.98274 32.0822 9.81965 31.9192C9.65657 31.7561 9.56495 31.5349 9.56495 31.3043V27.8259C9.56407 27.6635 9.60864 27.5042 9.69363 27.3659C9.77862 27.2275 9.90062 27.1158 10.0458 27.0432L17.0026 23.5648C17.2091 23.4617 17.448 23.4449 17.6668 23.5179C17.8857 23.591 18.0666 23.748 18.1697 23.9544C18.2727 24.1608 18.2896 24.3997 18.2166 24.6186C18.1435 24.8374 17.9865 25.0183 17.7801 25.1214L11.3042 28.3633V31.3043C11.3042 31.5349 11.2125 31.7561 11.0495 31.9192C10.8864 32.0822 10.6652 32.1739 10.4346 32.1739Z" fill="url(#paint9_linear_3344_20684)" fill-opacity="0.2"/>
      <path d="M9.81496 27.8259L9.81495 27.8245C9.81432 27.7088 9.84608 27.5953 9.90663 27.4967C9.96719 27.3982 10.0541 27.3186 10.1576 27.2669L10.1576 27.2668L17.1143 23.7885C17.1144 23.7885 17.1144 23.7884 17.1144 23.7884C17.2615 23.715 17.4317 23.703 17.5877 23.755C17.7436 23.8071 17.8725 23.919 17.946 24.0661C18.0195 24.2132 18.0315 24.3835 17.9794 24.5394C17.9274 24.6954 17.8155 24.8243 17.6684 24.8977L17.6682 24.8978L11.1922 28.1397L11.0542 28.2088V28.3633V31.3043C11.0542 31.4686 10.9889 31.6262 10.8727 31.7424C10.7565 31.8586 10.5989 31.9239 10.4346 31.9239C10.2702 31.9239 10.1126 31.8586 9.99643 31.7424C9.88023 31.6262 9.81495 31.4686 9.81495 31.3043L9.81496 27.8259Z" stroke="url(#paint10_linear_3344_20684)" stroke-opacity="0.1" stroke-width="0.5"/>
    </g>
    <g filter="url(#filter3_bi_3344_20684)">
      <path d="M29.5665 32.1737C29.3359 32.1737 29.1147 32.0821 28.9516 31.919C28.7885 31.7559 28.6969 31.5347 28.6969 31.3041V28.3631L22.221 25.1299C22.0146 25.0269 21.8576 24.846 21.7845 24.6271C21.7115 24.4083 21.7283 24.1694 21.8314 23.9629C21.9345 23.7565 22.1154 23.5995 22.3342 23.5265C22.5531 23.4534 22.792 23.4703 22.9984 23.5734L29.9552 27.0518C30.0991 27.1237 30.2203 27.2341 30.3052 27.3707C30.39 27.5073 30.4354 27.6648 30.4361 27.8257V31.3041C30.4361 31.5347 30.3445 31.7559 30.1814 31.919C30.0183 32.0821 29.7971 32.1737 29.5665 32.1737Z" fill="#1D1D1D" fill-opacity="0.05"/>
      <path d="M29.5665 32.1737C29.3359 32.1737 29.1147 32.0821 28.9516 31.919C28.7885 31.7559 28.6969 31.5347 28.6969 31.3041V28.3631L22.221 25.1299C22.0146 25.0269 21.8576 24.846 21.7845 24.6271C21.7115 24.4083 21.7283 24.1694 21.8314 23.9629C21.9345 23.7565 22.1154 23.5995 22.3342 23.5265C22.5531 23.4534 22.792 23.4703 22.9984 23.5734L29.9552 27.0518C30.0991 27.1237 30.2203 27.2341 30.3052 27.3707C30.39 27.5073 30.4354 27.6648 30.4361 27.8257V31.3041C30.4361 31.5347 30.3445 31.7559 30.1814 31.919C30.0183 32.0821 29.7971 32.1737 29.5665 32.1737Z" fill="url(#paint11_linear_3344_20684)" fill-opacity="0.2"/>
      <path d="M28.9469 28.3631V28.2085L28.8086 28.1394L22.3327 24.9063C22.3327 24.9063 22.3327 24.9063 22.3327 24.9063C22.1856 24.8328 22.0737 24.7039 22.0216 24.548C21.9696 24.392 21.9816 24.2217 22.0551 24.0746C22.1285 23.9275 22.2574 23.8157 22.4134 23.7636C22.5693 23.7115 22.7395 23.7235 22.8866 23.797C22.8867 23.797 22.8867 23.797 22.8867 23.797L29.8434 27.2754L29.8435 27.2754C29.946 27.3266 30.0323 27.4053 30.0928 27.5026C30.1532 27.5998 30.1855 27.7119 30.1861 27.8263V31.3041C30.1861 31.4684 30.1208 31.626 30.0046 31.7422C29.8884 31.8584 29.7308 31.9237 29.5665 31.9237C29.4022 31.9237 29.2446 31.8584 29.1284 31.7422C29.0122 31.626 28.9469 31.4684 28.9469 31.3041V28.3631Z" stroke="url(#paint12_linear_3344_20684)" stroke-opacity="0.1" stroke-width="0.5"/>
    </g>
  </g>
  <defs>
    <filter id="filter0_bi_3344_20684" x="-3.04346" y="-10" width="46.0879" height="42.6167" filterUnits="userSpaceOnUse" color-interpolation-filters="sRGB">
      <feFlood flood-opacity="0" result="BackgroundImageFix"/>
      <feGaussianBlur in="BackgroundImageFix" stdDeviation="5"/>
      <feComposite in2="SourceAlpha" operator="in" result="effect1_backgroundBlur_3344_20684"/>
      <feBlend mode="normal" in="SourceGraphic" in2="effect1_backgroundBlur_3344_20684" result="shape"/>
      <feColorMatrix in="SourceAlpha" type="matrix" values="0 0 0 0 0 0 0 0 0 0 0 0 0 0 0 0 0 0 127 0" result="hardAlpha"/>
      <feOffset dy="4"/>
      <feGaussianBlur stdDeviation="2.5"/>
      <feComposite in2="hardAlpha" operator="arithmetic" k2="-1" k3="1"/>
      <feColorMatrix type="matrix" values="0 0 0 0 1 0 0 0 0 1 0 0 0 0 1 0 0 0 0.15 0"/>
      <feBlend mode="normal" in2="shape" result="effect2_innerShadow_3344_20684"/>
    </filter>
    <filter id="filter1_bi_3344_20684" x="9.13086" y="16.0862" width="21.7393" height="28.696" filterUnits="userSpaceOnUse" color-interpolation-filters="sRGB">
      <feFlood flood-opacity="0" result="BackgroundImageFix"/>
      <feGaussianBlur in="BackgroundImageFix" stdDeviation="5"/>
      <feComposite in2="SourceAlpha" operator="in" result="effect1_backgroundBlur_3344_20684"/>
      <feBlend mode="normal" in="SourceGraphic" in2="effect1_backgroundBlur_3344_20684" result="shape"/>
      <feColorMatrix in="SourceAlpha" type="matrix" values="0 0 0 0 0 0 0 0 0 0 0 0 0 0 0 0 0 0 127 0" result="hardAlpha"/>
      <feOffset dy="4"/>
      <feGaussianBlur stdDeviation="2.5"/>
      <feComposite in2="hardAlpha" operator="arithmetic" k2="-1" k3="1"/>
      <feColorMatrix type="matrix" values="0 0 0 0 1 0 0 0 0 1 0 0 0 0 1 0 0 0 0.15 0"/>
      <feBlend mode="normal" in2="shape" result="effect2_innerShadow_3344_20684"/>
    </filter>
    <filter id="filter2_bi_3344_20684" x="-0.435059" y="13.4731" width="28.6963" height="28.7007" filterUnits="userSpaceOnUse" color-interpolation-filters="sRGB">
      <feFlood flood-opacity="0" result="BackgroundImageFix"/>
      <feGaussianBlur in="BackgroundImageFix" stdDeviation="5"/>
      <feComposite in2="SourceAlpha" operator="in" result="effect1_backgroundBlur_3344_20684"/>
      <feBlend mode="normal" in="SourceGraphic" in2="effect1_backgroundBlur_3344_20684" result="shape"/>
      <feColorMatrix in="SourceAlpha" type="matrix" values="0 0 0 0 0 0 0 0 0 0 0 0 0 0 0 0 0 0 127 0" result="hardAlpha"/>
      <feOffset dy="4"/>
      <feGaussianBlur stdDeviation="2.5"/>
      <feComposite in2="hardAlpha" operator="arithmetic" k2="-1" k3="1"/>
      <feColorMatrix type="matrix" values="0 0 0 0 1 0 0 0 0 1 0 0 0 0 1 0 0 0 0.15 0"/>
      <feBlend mode="normal" in2="shape" result="effect2_innerShadow_3344_20684"/>
    </filter>
    <filter id="filter3_bi_3344_20684" x="11.7397" y="13.4817" width="28.6963" height="28.6921" filterUnits="userSpaceOnUse" color-interpolation-filters="sRGB">
      <feFlood flood-opacity="0" result="BackgroundImageFix"/>
      <feGaussianBlur in="BackgroundImageFix" stdDeviation="5"/>
      <feComposite in2="SourceAlpha" operator="in" result="effect1_backgroundBlur_3344_20684"/>
      <feBlend mode="normal" in="SourceGraphic" in2="effect1_backgroundBlur_3344_20684" result="shape"/>
      <feColorMatrix in="SourceAlpha" type="matrix" values="0 0 0 0 0 0 0 0 0 0 0 0 0 0 0 0 0 0 127 0" result="hardAlpha"/>
      <feOffset dy="4"/>
      <feGaussianBlur stdDeviation="2.5"/>
      <feComposite in2="hardAlpha" operator="arithmetic" k2="-1" k3="1"/>
      <feColorMatrix type="matrix" values="0 0 0 0 1 0 0 0 0 1 0 0 0 0 1 0 0 0 0.15 0"/>
      <feBlend mode="normal" in2="shape" result="effect2_innerShadow_3344_20684"/>
    </filter>
    <linearGradient id="paint0_linear_3344_20684" x1="14.4204" y1="9.38996" x2="27.6915" y2="11.2332" gradientUnits="userSpaceOnUse">
      <stop offset="0.192708" stop-color="#6EE7C3"/>
      <stop offset="1" stop-color="#048F89"/>
    </linearGradient>
    <linearGradient id="paint1_linear_3344_20684" x1="16.8118" y1="22.26" x2="24.3953" y2="23.3133" gradientUnits="userSpaceOnUse">
      <stop offset="0.192708" stop-color="#6EE7C3"/>
      <stop offset="1" stop-color="#048F89"/>
    </linearGradient>
    <linearGradient id="paint2_linear_3344_20684" x1="16.8118" y1="34.4343" x2="24.3953" y2="35.4876" gradientUnits="userSpaceOnUse">
      <stop offset="0.192708" stop-color="#6EE7C3"/>
      <stop offset="1" stop-color="#048F89"/>
    </linearGradient>
    <linearGradient id="paint3_linear_3344_20684" x1="7.24641" y1="31.8257" x2="14.8299" y2="32.879" gradientUnits="userSpaceOnUse">
      <stop offset="0.192708" stop-color="#6EE7C3"/>
      <stop offset="1" stop-color="#048F89"/>
    </linearGradient>
    <linearGradient id="paint4_linear_3344_20684" x1="26.3773" y1="31.8257" x2="33.9608" y2="32.879" gradientUnits="userSpaceOnUse">
      <stop offset="0.192708" stop-color="#6EE7C3"/>
      <stop offset="1" stop-color="#048F89"/>
    </linearGradient>
    <linearGradient id="paint5_linear_3344_20684" x1="8.04354" y1="4.52334" x2="36.3049" y2="9.05098" gradientUnits="userSpaceOnUse">
      <stop stop-color="#66FECB"/>
      <stop offset="1" stop-color="#2C9CE4"/>
    </linearGradient>
    <linearGradient id="paint6_linear_3344_20684" x1="7.77179" y1="1.02803" x2="33.0446" y2="1.02803" gradientUnits="userSpaceOnUse">
      <stop stop-color="#A8ABFF"/>
      <stop offset="1" stop-color="#31CB9E"/>
    </linearGradient>
    <linearGradient id="paint7_linear_3344_20684" x1="19.2033" y1="27.8254" x2="21.1343" y2="27.879" gradientUnits="userSpaceOnUse">
      <stop stop-color="#66FECB"/>
      <stop offset="1" stop-color="#2C9CE4"/>
    </linearGradient>
    <linearGradient id="paint8_linear_3344_20684" x1="19.1852" y1="26.4815" x2="20.8701" y2="26.4815" gradientUnits="userSpaceOnUse">
      <stop stop-color="#A8ABFF"/>
      <stop offset="1" stop-color="#31CB9E"/>
    </linearGradient>
    <linearGradient id="paint9_linear_3344_20684" x1="9.92729" y1="25.2133" x2="19.4072" y2="26.5293" gradientUnits="userSpaceOnUse">
      <stop stop-color="#66FECB"/>
      <stop offset="1" stop-color="#2C9CE4"/>
    </linearGradient>
    <linearGradient id="paint10_linear_3344_20684" x1="9.8367" y1="23.8686" x2="18.2613" y2="23.8686" gradientUnits="userSpaceOnUse">
      <stop stop-color="#A8ABFF"/>
      <stop offset="1" stop-color="#31CB9E"/>
    </linearGradient>
    <linearGradient id="paint11_linear_3344_20684" x1="22.1021" y1="25.2201" x2="31.5817" y2="26.5374" gradientUnits="userSpaceOnUse">
      <stop stop-color="#66FECB"/>
      <stop offset="1" stop-color="#2C9CE4"/>
    </linearGradient>
    <linearGradient id="paint12_linear_3344_20684" x1="22.0115" y1="23.8768" x2="30.4361" y2="23.8768" gradientUnits="userSpaceOnUse">
      <stop stop-color="#A8ABFF"/>
      <stop offset="1" stop-color="#31CB9E"/>
    </linearGradient>
    <clipPath id="clip0_3344_20684">
      <rect width="40.0001" height="40" fill="white"/>
    </clipPath>
  </defs>
</svg>