<svg xmlns="http://www.w3.org/2000/svg" width="117" height="24" fill="none" viewBox="0 0 117 24">
  <g clip-path="url(#a)">
    <path fill="#fff" d="M41.71.752c.123-1.058 2.137-.876 2.026.222.01 3.378-.004 6.756.003 10.136.713-1.064 1.784-1.94 3.071-2.163 1.767-.371 3.688.23 4.931 1.54a5.853 5.853 0 0 1 1.691 3.958c.019 1.246.012 2.494.003 3.743-.01 2.31-1.539 4.486-3.624 5.428-2.16.945-4.877.074-6.14-1.906-.042.62.226 1.445-.362 1.88-.532.46-1.62.12-1.603-.635-.002-7.401-.007-14.801.005-22.203Zm4.584 10.225c-1.296.46-2.341 1.624-2.519 3.006-.088 1.07-.015 2.144-.038 3.215.048.785-.117 1.604.104 2.369.678 1.329 2.02 2.45 3.563 2.491 2.096.103 3.91-1.846 3.986-3.88.019-1.247.04-2.499-.01-3.745-.147-2.378-2.779-4.35-5.086-3.456ZM73.803.964c-.172-1.08 1.55-1.277 1.989-.466.094.478.043.972.053 1.46-.004 4.636.002 9.273-.002 13.909 2.27-1.992 4.513-4.015 6.775-6.016.322-.287.628-.604 1.004-.828.821-.361 1.778.882 1.057 1.514-1.5 1.344-3.037 2.648-4.533 3.997 1.732 2.502 3.431 5.022 5.158 7.526.16.275.41.554.353.897-.178.494-.654.97-1.218.904-.363-.016-.525-.386-.723-.632-1.671-2.474-3.358-4.938-5.034-7.41-.942.847-1.906 1.668-2.844 2.519-.01 1.58.04 3.166-.019 4.746-.213.978-1.973.904-2.01-.13-.01-7.326.004-14.657-.006-21.99Zm30.856.011c-.155-1.231 2.19-1.22 2.038-.007-.007 3.396 0 6.797-.007 10.197.875-1.46 2.529-2.403 4.243-2.326 2.403-.01 4.564 1.811 5.237 4.068.358 1.138.191 2.342.227 3.51-.031 1.125.126 2.28-.229 3.368-.549 1.762-1.921 3.287-3.658 3.938-2.13.768-4.701-.133-5.876-2.071.001.499.034.997-.016 1.496-.229.72-1.274.849-1.749.303-.264-.227-.198-.6-.221-.906.014-7.19 0-14.38.011-21.57Zm4.567 10.023c-1.024.396-1.921 1.209-2.286 2.26-.422 1.27-.184 2.631-.246 3.943.057.904-.203 1.916.32 2.727.782 1.174 2.051 2.18 3.528 2.133 2.097-.003 3.875-2.024 3.818-4.08-.013-1.186.012-2.37-.01-3.557-.131-2.4-2.818-4.364-5.124-3.426ZM57.752 2.223c.952-.517 2.264.45 1.92 1.515-.254 1.069-1.786 1.31-2.435.477-.567-.625-.269-1.705.515-1.992Zm6.124.719c-.069-1.167 2.135-1.148 2.032.024.007 2.016 0 4.036 0 6.054 1.355.017 2.713-.028 4.068.015.906.078.882 1.724-.041 1.732-1.341.026-2.686 0-4.027.007.007 2.807-.002 5.61.003 8.414.023.792.124 1.737.839 2.223.978.621 2.181.347 3.266.489.83.292.764 1.625-.081 1.852-1.343.115-2.769.055-4.005-.539-.871-.413-1.518-1.22-1.802-2.135-.29-.87-.254-1.795-.257-2.697.007-5.147-.005-10.294.005-15.439Zm-6.119 6.229c.568-.372 1.704-.101 1.647.706.009 4.289-.003 8.58.007 12.866.141.832-.986 1.333-1.613.883-.246-.151-.46-.406-.427-.712-.009-4.351-.003-8.698-.002-13.047a.676.676 0 0 1 .388-.696Zm31.241-.048c.637-.355 1.634.16 1.508.94-.003 2.643.002 5.289-.005 7.934-.067 2.06 1.715 4.047 3.803 4.063 1.805.07 3.43-1.378 3.843-3.084.212-1.176.105-2.376.13-3.564-.05-1.58.042-3.162-.02-4.741-.003-.386-.041-.778.054-1.154.421-.783 1.985-.638 1.997.348.008 2.772.01 5.547-.002 8.32.005 3.127-2.875 5.908-6 5.812-3.068.027-5.885-2.728-5.842-5.81.01-2.77-.001-5.54.005-8.31-.042-.348.23-.63.53-.754Z"/>
    <path fill="#02D767" d="M.82 12.39C4.515 8.752 8.2 5.104 11.825 1.397c2.674 2.66 5.35 5.318 7.987 8.013-.59.642-1.345 1.275-2.273 1.238-.945.065-1.784-.5-2.434-1.128-1.118-1.076-2.183-2.21-3.282-3.308-2.117 2.122-4.247 4.232-6.375 6.345 1.723 1.8 3.535 3.519 5.26 5.316.699.758 1.642 1.391 1.92 2.442.306 1.22-.16 2.465-.824 3.483C8.196 20.189 4.628 16.537 1 12.945c-.125-.145-.459-.372-.18-.555ZM24.501 1.458C28.24 5.148 31.916 8.9 35.63 12.611c-3.752 3.68-7.434 7.424-11.177 11.113-2.638-2.65-5.263-5.313-7.92-7.943 1.026-.6 2.266-1.033 3.459-.725.639.146 1.197.52 1.656.98.983.974 1.948 1.97 2.946 2.93 2.102-2.118 4.197-4.246 6.344-6.317-2.131-2.145-4.254-4.295-6.4-6.423-.528-.493-.915-1.157-.956-1.89-.083-1.04.396-2.012.92-2.878Z"/>
    <path fill="#02D767" d="M10.843 10.514c1.168-.542 2.688.124 3.063 1.359.44 1.167-.3 2.604-1.51 2.913-1.229.425-2.673-.474-2.882-1.746-.21-1.018.357-2.137 1.33-2.526Zm12.699.061c1.233-.632 2.906.13 3.192 1.496.307 1.138-.4 2.408-1.532 2.737-1.128.382-2.484-.296-2.83-1.44-.386-1.051.15-2.337 1.17-2.793Z"/>
  </g>
  <defs>
    <clipPath id="a">
      <path fill="#fff" d="M.712 0h115.696v24H.712z"/>
    </clipPath>
  </defs>
</svg>
