<svg xmlns="http://www.w3.org/2000/svg" width="124" height="28" fill="none" viewBox="0 0 124 28">
  <g clip-path="url(#a)">
    <path fill="#fff" d="M21.046 20.897h3.84V6.442h-3.84v14.455ZM20.674 2.27c0-.66.206-1.197.66-1.652.414-.413.992-.619 1.652-.619.703 0 1.24.206 1.652.62.413.412.661.95.661 1.651 0 .661-.206 1.198-.66 1.652-.414.413-.992.62-1.652.62-.661 0-1.198-.207-1.652-.62-.455-.413-.661-.99-.661-1.652Zm13.05 4.131h3.923v2.89h-3.923v6.939c0 .62.165 1.115.537 1.487.372.371.826.578 1.445.578a7.65 7.65 0 0 0 1.818-.248l.495 2.85c-1.115.289-2.189.454-3.221.454a5.795 5.795 0 0 1-1.941-.33c-.578-.207-1.074-.537-1.528-.95a4.688 4.688 0 0 1-.991-1.487c-.248-.578-.33-1.198-.33-1.9v-7.31h-2.644v-2.89h2.643V2.23h3.676v4.171h.041Zm6.195 4.006c0-.62.124-1.239.413-1.776.289-.537.66-.99 1.115-1.404a5.77 5.77 0 0 1 1.734-.908 7.651 7.651 0 0 1 2.23-.33c.826 0 1.694.082 2.56.247.868.165 1.777.413 2.685.743l-.826 2.726a13.76 13.76 0 0 0-2.106-.66 8.672 8.672 0 0 0-1.982-.248c-.66 0-1.198.123-1.61.413-.414.289-.579.66-.579 1.156 0 .454.207.784.578.991.372.207.826.413 1.404.578.579.165 1.157.33 1.817.454.661.166 1.28.413 1.818.744.578.33 1.032.785 1.404 1.321.371.579.578 1.322.578 2.23 0 .661-.124 1.24-.413 1.818a4.831 4.831 0 0 1-1.156 1.445c-.496.413-1.074.702-1.818.95a8.23 8.23 0 0 1-2.312.33c-1.776 0-3.676-.372-5.658-1.156l.785-2.684c1.693.702 3.22 1.032 4.584 1.032.702 0 1.28-.165 1.693-.454.413-.29.62-.702.62-1.24 0-.454-.207-.784-.579-1.032s-.826-.454-1.404-.62a54.058 54.058 0 0 0-1.817-.495 7.012 7.012 0 0 1-1.817-.743 4.181 4.181 0 0 1-1.404-1.28c-.372-.496-.537-1.24-.537-2.148Zm18.955-4.006h3.924v2.89h-3.924v6.939c0 .62.166 1.115.537 1.487.372.371.826.578 1.446.578a7.63 7.63 0 0 0 1.817-.248l.495 2.85c-1.114.289-2.188.454-3.22.454a5.795 5.795 0 0 1-1.942-.33c-.578-.207-1.073-.537-1.528-.95-.454-.413-.743-.909-.99-1.487-.249-.578-.331-1.198-.331-1.9v-7.31h-2.643v-2.89h2.643V2.23h3.675v4.171h.041Zm9.994 10.077c0 .578.248 1.074.702 1.487.496.413 1.074.62 1.776.62.991 0 1.776-.331 2.395-.95.62-.62.909-1.446.909-2.437v-.868c-.702-.206-1.487-.289-2.354-.289-1.074 0-1.9.207-2.52.661a2.118 2.118 0 0 0-.908 1.776Zm-3.593.206c0-1.528.579-2.725 1.735-3.551 1.156-.826 2.767-1.24 4.873-1.24.454 0 .909.042 1.363.083.454.042.95.124 1.404.207v-.785c0-.743-.248-1.363-.785-1.817-.536-.454-1.239-.702-2.147-.702-1.446 0-3.015.33-4.708 1.033l-.95-2.644c2.065-.826 4.088-1.197 6.07-1.197.91 0 1.694.124 2.437.413a5.14 5.14 0 0 1 1.9 1.115c.537.454.95 1.032 1.24 1.693.288.66.453 1.404.453 2.189v5.905c0 .33.083.579.248.744.165.206.413.289.743.289.166 0 .29 0 .455-.041.124 0 .248-.042.289-.042l.248 2.767c-.33.041-.62.124-.95.165-.33.042-.661.042-1.033.042-.743 0-1.362-.165-1.9-.537-.536-.33-.908-.826-1.156-1.446a6.789 6.789 0 0 1-2.147 1.446 6.732 6.732 0 0 1-2.56.495 6.561 6.561 0 0 1-2.066-.33 4.5 4.5 0 0 1-1.61-.95 4.033 4.033 0 0 1-1.033-1.445c-.289-.578-.413-1.198-.413-1.859ZM82.29 6.36h2.974l.454 1.982c.578-.743 1.239-1.321 2.065-1.734a5.789 5.789 0 0 1 2.643-.62c1.074 0 1.982.248 2.808.702a4.584 4.584 0 0 1 1.817 1.941 6.982 6.982 0 0 1 2.313-1.982c.867-.454 1.817-.66 2.891-.66.785 0 1.487.123 2.147.371a4.34 4.34 0 0 1 1.694 1.115 4.343 4.343 0 0 1 1.115 1.693c.247.661.413 1.363.413 2.148v9.58h-3.758v-8.96c0-.827-.248-1.488-.785-2.024a2.876 2.876 0 0 0-2.024-.785c-.95 0-1.734.33-2.354.991-.62.66-.908 1.487-.908 2.56v8.219h-3.758v-8.962c0-.826-.248-1.487-.744-2.023-.495-.496-1.156-.785-1.982-.785-.991 0-1.776.33-2.395.991-.62.66-.909 1.487-.909 2.56v8.219H82.25V6.36h.041Zm37.622 7.227c0-.66-.082-1.28-.289-1.858a3.738 3.738 0 0 0-.784-1.446 3.67 3.67 0 0 0-1.157-.95c-.454-.247-.95-.33-1.487-.33-.991 0-1.775.33-2.436 1.033-.62.66-.95 1.527-.95 2.601v1.941c0 .537.083 1.033.248 1.446.165.454.413.826.702 1.156.289.33.661.578 1.074.743a3.62 3.62 0 0 0 1.362.248 3.57 3.57 0 0 0 1.487-.33c.454-.207.826-.537 1.157-.95.33-.413.578-.909.784-1.445.207-.537.289-1.198.289-1.859ZM109.175 6.36h2.973l.455 1.858a5.747 5.747 0 0 1 1.941-1.652 6.005 6.005 0 0 1 2.601-.578c.95 0 1.817.207 2.643.578a6.376 6.376 0 0 1 2.065 1.57c.578.66 1.033 1.445 1.363 2.395.33.909.496 1.941.496 3.056s-.166 2.148-.496 3.056c-.33.909-.785 1.735-1.363 2.395a6.374 6.374 0 0 1-2.065 1.57 6.193 6.193 0 0 1-2.643.578c-.867 0-1.693-.165-2.395-.496a4.648 4.648 0 0 1-1.858-1.486V28h-3.717V6.36ZM12.786 17.18c-.579.578-1.363.826-2.354.826H5.806v-5.988h4.626c.95 0 1.734.289 2.354.826.578.537.867 1.28.867 2.147.041.909-.248 1.652-.867 2.189ZM5.806 3.923h4.254c.867 0 1.57.248 2.147.785.579.496.826 1.198.826 2.024 0 .825-.289 1.486-.826 1.982-.578.495-1.28.743-2.147.743H5.806V3.923Zm10.779 8.466a5.083 5.083 0 0 0-2.478-1.858 4.448 4.448 0 0 0 1.941-1.652c.496-.743.744-1.61.744-2.602 0-.784-.166-1.486-.455-2.106-.289-.66-.743-1.198-1.28-1.652a5.894 5.894 0 0 0-1.941-1.074c-.743-.247-1.57-.371-2.478-.371H.148v2.643c1.611 0 2.891 1.321 2.891 2.932 0 1.61-1.28 2.932-2.89 2.932v2.395c1.61 0 2.89 1.322 2.89 2.932v.455c0 1.61-1.28 2.932-2.89 2.932v2.643h10.943c.95 0 1.776-.124 2.56-.413a5.677 5.677 0 0 0 2.025-1.115c.578-.496 1.032-1.074 1.321-1.735.33-.66.496-1.404.496-2.23 0-1.197-.29-2.188-.909-3.056Z"/>
  </g>
  <defs>
    <clipPath id="a">
      <path fill="#fff" d="M.148 0h123.563v28H.148z"/>
    </clipPath>
  </defs>
</svg>
