<svg xmlns="http://www.w3.org/2000/svg" width="234" height="40" fill="none" viewBox="0 0 234 40">
  <path fill="#fff" fill-rule="evenodd" d="M35.09 23.902c-.699.441-1.522.496-2.148.144-.795-.448-1.232-1.497-1.232-2.955v-4.364c0-2.107-.836-3.607-2.232-4.012-2.367-.688-4.147 2.201-4.816 3.286l-4.174 6.751v-8.251c-.047-1.899-.665-3.035-1.839-3.377-.777-.226-1.939-.136-3.067 1.587L6.23 27.691A16.425 16.425 0 0 1 4.329 20c0-9.023 7.249-16.364 16.159-16.364S36.646 10.976 36.646 20c0 .016.004.03.005.044 0 .015-.003.03-.002.045.084 1.747-.483 3.137-1.558 3.814Zm5.146-3.901v-.091C40.185 8.921 31.345 0 20.485 0 9.599 0 .739 8.972.739 20c0 11.027 8.86 20 19.75 20a19.55 19.55 0 0 0 13.426-5.334c.728-.683.77-1.833.096-2.568a1.775 1.775 0 0 0-1.941-.47c-.222.084-.424.21-.596.372a15.994 15.994 0 0 1-10.985 4.364c-4.771 0-9.064-2.106-12.024-5.447l8.433-13.508v6.227c0 2.991 1.163 3.958 2.138 4.241.976.283 2.468.09 4.034-2.447l4.639-7.501c.148-.242.285-.451.41-.631v3.793c0 2.796 1.123 5.032 3.08 6.133 1.764.994 3.983.904 5.79-.234 2.19-1.38 3.371-3.924 3.248-6.989Zm27.496-6.833c.474.288.885.928.885 1.504 0 .928-.79 1.696-1.676 1.696a2.01 2.01 0 0 1-.631-.128c-1.044-.768-2.371-1.28-3.762-1.28-3.286 0-5.562 2.688-5.562 6.016s2.276 5.984 5.562 5.984c1.643 0 3.097-.672 4.204-1.696a1.71 1.71 0 0 1 .98-.32c.885 0 1.58.704 1.58 1.6 0 .576-.348 1.088-.79 1.376-1.58 1.344-3.73 2.24-5.942 2.24-5.056 0-9.166-4.16-9.166-9.28 0-5.12 4.109-9.28 9.166-9.28a9.17 9.17 0 0 1 5.152 1.568Zm9.246 3.872c3.445 0 6.352 2.912 6.352 6.496 0 3.584-2.907 6.624-6.352 6.624-3.603 0-6.606-3.04-6.606-6.624 0-3.584 3.003-6.496 6.606-6.496Zm-.032 9.92c1.518 0 2.813-1.44 2.813-3.392 0-1.951-1.295-3.168-2.813-3.168-1.643 0-3.003 1.184-3.003 3.168 0 1.952 1.36 3.392 3.003 3.392Zm8.55 1.216v-9.152c0-.992.79-1.824 1.77-1.824s1.802.832 1.802 1.824v9.152c0 .992-.821 1.824-1.801 1.824s-1.77-.832-1.77-1.824Zm-.283-14.432c0-1.184.915-2.144 2.054-2.144 1.169 0 2.117.96 2.117 2.144 0 1.152-.948 2.08-2.117 2.08a2.063 2.063 0 0 1-2.054-2.08Zm10.7 9.472v4.96c0 .992-.822 1.824-1.803 1.824-.979 0-1.77-.832-1.77-1.824v-9.568c0-.768.633-1.408 1.392-1.408.758 0 1.36.64 1.36 1.408 1.453-1.344 2.716-1.568 3.917-1.568 3.572 0 5.152 2.688 5.152 5.728v5.408c0 .992-.821 1.824-1.801 1.824s-1.77-.832-1.77-1.824v-4.96c0-1.568-.19-2.88-2.434-2.88-1.58 0-2.244 1.312-2.244 2.88Zm19.865 1.888c-.411 0-.695-.192-.917-.448l-4.172-4.512v8.032c0 .992-.822 1.824-1.802 1.824-.98 0-1.77-.832-1.77-1.824V12.273a.695.695 0 0 1 .665-.449c.315 0 .567.257.758.45l6.637 7.455c.19.224.442.352.569.352.126 0 .379-.128.568-.351l6.638-7.457c.19-.192.442-.449.758-.449s.57.193.664.45v15.902c0 .992-.79 1.824-1.77 1.824s-1.801-.832-1.801-1.824v-8.032l-4.172 4.512c-.222.256-.506.448-.853.448Zm17.179 1.856c1.611 0 2.97-1.44 2.97-3.392 0-1.951-1.39-3.232-2.97-3.232-1.581 0-2.845 1.312-2.845 3.232 0 1.888 1.264 3.392 2.845 3.392Zm3.792 1.632-.064-.416c-.694 1.375-2.908 1.984-4.33 1.984-3.351 0-5.815-3.04-5.815-6.624 0-3.584 2.528-6.496 6.005-6.496.6 0 2.592.16 4.14 1.984l.064-.416c0-.768.6-1.408 1.359-1.408.758 0 1.39.64 1.39 1.408v9.984c0 .768-.632 1.408-1.391 1.408-.758 0-1.359-.64-1.359-1.408h.001Zm12.659-8.256h-.378c-2.245.128-2.687 1.408-2.687 2.88v4.96c0 .992-.822 1.824-1.802 1.824-.98 0-1.77-.832-1.77-1.824v-9.568c0-.768.632-1.408 1.391-1.408s1.359.64 1.359 1.408c1.328-1.248 2.403-1.504 3.509-1.568h.347c.854 0 1.643.736 1.643 1.664 0 .864-.758 1.632-1.612 1.632Zm13.766 7.008c.158.256.253.544.253.864 0 .928-.854 1.792-1.77 1.792-.632 0-1.17-.48-1.58-.992l-4.108-4.768v3.936c0 .992-.823 1.824-1.803 1.824s-1.77-.832-1.77-1.824V13.649c0-.993.79-1.825 1.77-1.825s1.802.832 1.802 1.825v9.055l4.109-4.544c.41-.48.916-.96 1.549-.96.885 0 1.706.832 1.706 1.76 0 .288-.063.576-.222.832l-3.254 3.551 3.318 4v.001Zm7.003-6.944c-.98 0-2.561.512-2.561 2.016h5.152c0-1.536-1.644-2.016-2.592-2.016h.001Zm4.677 4.288h-7.238c0 2.144 2.054 2.464 2.971 2.464.665 0 1.612-.128 2.339-.449.221-.159.6-.287.916-.287.791 0 1.454.673 1.454 1.473 0 .543-.347 1.023-.79 1.279-1.106.8-2.529.992-3.887.992-3.603 0-6.606-1.951-6.606-6.464 0-3.552 1.833-6.656 6.1-6.656 3.445 0 6.068 2.24 6.131 6.24 0 .768-.631 1.408-1.39 1.408Zm9.941 5.472h-.98c-2.719 0-4.298-1.184-4.298-5.44v-4.384h-.916c-.854 0-1.612-.768-1.612-1.632 0-.928.758-1.664 1.612-1.664h.916v-3.392c0-.992.79-1.825 1.77-1.825.979 0 1.802.833 1.802 1.825v3.392h1.484c.854 0 1.613.736 1.613 1.664 0 .864-.759 1.632-1.613 1.632h-1.484v3.68c0 2.432.126 2.944 1.201 2.944h.505c.853 0 1.58.704 1.58 1.6 0 .864-.727 1.6-1.58 1.6Zm17.306-16.992c.473.288.885.928.885 1.504 0 .928-.79 1.696-1.676 1.696-.221 0-.443-.064-.631-.128-1.044-.768-2.371-1.28-3.762-1.28-3.286 0-5.563 2.688-5.563 6.016s2.276 5.984 5.563 5.984c1.643 0 3.098-.672 4.204-1.696a1.72 1.72 0 0 1 .98-.32c.885 0 1.579.704 1.579 1.6 0 .576-.347 1.088-.789 1.376-1.581 1.344-3.73 2.24-5.943 2.24-5.056 0-9.165-4.16-9.165-9.28 0-5.12 4.108-9.28 9.165-9.28a9.17 9.17 0 0 1 5.153 1.568Zm9.056 13.792c1.612 0 2.971-1.44 2.971-3.392 0-1.951-1.391-3.232-2.972-3.232-1.579 0-2.844 1.312-2.844 3.232 0 1.888 1.265 3.392 2.844 3.392h.001Zm3.792 1.632-.062-.416c-.696 1.375-2.908 1.984-4.331 1.984-3.35 0-5.816-3.04-5.816-6.624 0-3.584 2.53-6.496 6.006-6.496.6 0 2.591.16 4.141 1.984l.062-.416c0-.768.601-1.408 1.36-1.408.758 0 1.39.64 1.39 1.408v9.984c0 .768-.632 1.408-1.39 1.408-.759 0-1.36-.64-1.36-1.408Zm12.565-1.632c1.58 0 2.844-1.504 2.844-3.392 0-1.92-1.264-3.232-2.844-3.232-1.581 0-2.971 1.28-2.971 3.232 0 1.952 1.359 3.392 2.971 3.392Zm-2.971 2.144v4.544c0 .992-.822 1.824-1.802 1.824-.979 0-1.77-.832-1.77-1.824v-15.04c0-.768.633-1.408 1.392-1.408.758 0 1.359.64 1.359 1.536 1.326-1.376 2.97-1.696 4.203-1.696 3.477 0 6.005 2.912 6.005 6.496 0 3.584-2.465 6.624-5.816 6.624-1.042 0-2.591-.32-3.571-1.056Z" clip-rule="evenodd"/>
</svg>
