<svg xmlns="http://www.w3.org/2000/svg" width="196" height="52" fill="none" viewBox="0 0 196 52">
  <g clip-path="url(#a)">
    <path fill="#fff" d="M80.669 20.54c-.52-2.08-1.853-3.575-4.485-3.575-3.868 0-5.46 3.413-5.46 6.858 0 3.444 1.625 6.857 5.46 6.857 2.795 0 4.322-2.08 4.582-4.712h3.088c-.26 4.322-3.315 7.28-7.67 7.28-5.395 0-8.613-4.29-8.613-9.425 0-5.136 3.218-9.425 8.613-9.425 4.062.032 7.247 2.274 7.637 6.142H80.67Zm5.07 5.753c0-3.998 2.405-6.858 6.565-6.858s6.565 2.86 6.565 6.858c0 3.997-2.405 6.89-6.565 6.89s-6.565-2.893-6.565-6.89Zm10.27 0c0-2.243-1.138-4.583-3.705-4.583-2.568 0-3.705 2.34-3.705 4.582 0 2.243 1.137 4.615 3.705 4.615 2.567 0 3.705-2.34 3.705-4.614Zm5.33-11.473h2.86v2.73h-2.86v-2.73Zm0 4.973h2.86v13.032h-2.86V19.792Zm6.012 0h2.73v1.917l.065.065c.845-1.43 2.373-2.34 4.063-2.307 2.827 0 4.615 1.527 4.615 4.42v8.937h-2.86v-8.19c-.065-2.048-.845-2.925-2.535-2.925-1.918 0-3.153 1.495-3.153 3.412v7.703h-2.86V19.792h-.065Zm30.583 13.032h-2.015l-.488-2.113c-1.69 1.918-3.217 2.536-5.427 2.536-5.395 0-8.613-4.29-8.613-9.425 0-5.136 3.218-9.425 8.613-9.425 3.932 0 7.247 2.08 7.702 6.142h-3.087c-.293-2.372-2.373-3.575-4.648-3.575-3.867 0-5.46 3.413-5.46 6.858 0 3.444 1.625 6.857 5.46 6.857 3.218.065 5.005-1.885 5.038-4.94h-4.778v-2.405h7.67l.033 9.49Zm5.265-5.785c0 2.047 1.105 3.867 3.51 3.867 1.657 0 2.665-.715 3.185-2.177h2.73c-.618 2.86-3.055 4.452-5.915 4.452-4.095 0-6.37-2.86-6.37-6.857 0-3.705 2.437-6.89 6.305-6.89 4.095 0 6.63 3.705 6.142 7.605h-9.587Zm6.695-1.885c-.098-1.82-1.333-3.445-3.283-3.445-1.982 0-3.347 1.495-3.445 3.445h6.728Zm13.877-1.008c-.227-1.592-1.397-2.437-2.99-2.437-1.495 0-3.575.78-3.575 4.745 0 2.178.943 4.453 3.445 4.453 1.658 0 2.828-1.106 3.088-2.99h2.86c-.52 3.38-2.6 5.232-5.98 5.232-4.095 0-6.338-2.892-6.338-6.727 0-3.933 2.145-7.02 6.435-7.02 3.023 0 5.59 1.527 5.883 4.712h-2.828v.033Zm5.298-9.327h2.86v10.238l5.2-5.265h3.542l-5.005 4.777 5.46 8.255h-3.51l-3.997-6.338-1.723 1.658v4.68h-2.86V14.82h.033Zm12.837 11.473c0-3.998 2.405-6.858 6.565-6.858 4.193 0 6.565 2.86 6.565 6.858 0 3.997-2.405 6.89-6.565 6.89s-6.565-2.893-6.565-6.89Zm10.303 0c0-2.243-1.138-4.583-3.705-4.583-2.568 0-3.705 2.34-3.705 4.582 0 2.243 1.137 4.615 3.705 4.615 2.567 0 3.705-2.34 3.705-4.614Z"/>
    <path fill="#8DC63F" d="M51.614 25.968c.032 10.432-6.175 19.857-15.795 23.887a25.765 25.765 0 0 1-28.113-5.46c-7.41-7.345-9.652-18.427-5.72-28.08C5.92 6.663 15.311.358 25.711.293 39.98.26 51.55 11.733 51.614 25.968Z"/>
    <path fill="#F9E988" d="M49.696 25.968a23.852 23.852 0 0 1-14.625 22.1c-8.905 3.737-19.142 1.722-26-5.038a23.82 23.82 0 0 1-5.297-25.935C7.414 8.158 16.09 2.34 25.71 2.275c13.195-.065 23.92 10.53 23.985 23.693Z"/>
    <path fill="#fff" d="M26.297 3.802c1.527-.26 3.055-.26 4.582 0 1.528.228 3.023.748 4.388 1.463 1.365.747 2.535 1.755 3.705 2.697 1.17.943 2.34 1.918 3.445 2.99a16.983 16.983 0 0 1 2.925 3.543 20.345 20.345 0 0 1 2.047 4.127c1.008 2.925 1.333 6.078.845 9.068h-.162c-.488-2.99-1.17-5.818-2.243-8.515-.487-1.365-1.105-2.698-1.755-3.965-.715-1.268-1.462-2.535-2.307-3.705a13.675 13.675 0 0 0-3.12-3.153c-1.203-.877-2.6-1.43-3.933-1.95-1.332-.52-2.697-1.072-4.095-1.495A56.094 56.094 0 0 0 26.297 3.9v-.098Z"/>
    <path fill="#8BC53F" d="M37.931 17.55c-1.722-.487-3.51-1.202-5.33-1.917-.097-.455-.52-1.008-1.332-1.723-1.17-1.04-3.413-1.007-5.33-.552-2.113-.488-4.225-.683-6.24-.195-16.478 4.55-7.15 15.6-13.195 26.747.845 1.82 10.14 12.48 23.562 9.62 0 0-4.582-11.017 5.785-16.315 8.418-4.29 14.463-12.285 2.08-15.665Z"/>
    <path fill="#009345" d="M25.939 13.358c1.202.097 5.557 1.495 6.662 2.275-.942-2.698-4.063-3.055-6.662-2.275Z"/>
    <path fill="#fff" d="M39.979 24.797c0 .878-1.073 1.333-1.69.715-.618-.617-.195-1.69.682-1.722.553.032 1.008.455 1.008 1.007Zm-12.903-4.582a4.635 4.635 0 0 1-2.86 4.257 4.612 4.612 0 0 1-5.037-1.007 4.612 4.612 0 0 1-1.008-5.038 4.635 4.635 0 0 1 4.258-2.86c1.235 0 2.405.488 3.25 1.333.91.91 1.397 2.08 1.397 3.315Z"/>
    <path fill="#58595B" d="M25.712 20.248c0 1.3-.78 2.502-2.015 2.99a3.268 3.268 0 0 1-3.543-.715c-.942-.943-1.203-2.308-.715-3.543a3.258 3.258 0 0 1 2.99-2.015c1.82.033 3.283 1.495 3.283 3.283Z"/>
    <path fill="#8BC53F" d="M43.716 26.845c-3.738 2.633-7.995 4.615-14.008 4.615-2.827 0-3.38-2.99-5.265-1.527-.975.747-4.355 2.437-7.052 2.34-2.698-.13-7.053-1.723-8.255-7.443-.488 5.753-.715 9.978-2.893 14.82 4.29 6.89 14.528 12.188 23.823 9.913-1.008-6.988 5.102-13.813 8.515-17.29 1.332-1.365 3.835-3.51 5.135-5.428Z"/>
    <path fill="#58595B" d="M43.553 27.008c-1.17 1.072-2.534 1.852-3.932 2.535-1.43.682-2.893 1.202-4.42 1.625-1.528.39-3.12.682-4.713.552-1.625-.13-3.25-.682-4.322-1.885l.065-.065c1.3.845 2.827 1.138 4.322 1.203 1.528.032 3.055-.065 4.55-.358 1.495-.325 2.99-.78 4.42-1.365 1.43-.585 2.828-1.267 4.063-2.242h-.032Z"/>
  </g>
  <defs>
    <clipPath id="a">
      <path fill="#fff" d="M.004 0h195.325v52H.004z"/>
    </clipPath>
  </defs>
</svg>
