<svg xmlns="http://www.w3.org/2000/svg" width="166" height="32" fill="none" viewBox="0 0 166 32">
  <g clip-path="url(#a)">
    <path fill="#fff" d="M14.163 0 .397 7.945v15.89l13.766 7.944 13.765-7.945V7.944L14.163 0Zm0 0L.397 7.945v15.89l13.766 7.944 13.765-7.945V7.944L14.163 0Z"/>
    <path fill="#000" stroke="#fff" stroke-width="2" d="m1.397 8.522 12.766-7.367 12.765 7.367v14.735l-12.765 7.368-12.766-7.368V8.522Z"/>
    <path fill="#fff" d="M19.598 25.572h-1.959l-2.345-2.151v-1.104L17.722 20v-3.67l3.172-2.069 3.614 2.731-4.91 8.58Zm-8.11-5.793.358-3.448-1.186-3.09h7.007l-1.159 3.09.331 3.448h-5.352Zm1.6 3.642L10.742 25.6H8.755l-4.938-8.607L7.46 14.29l3.2 2.041V20l2.427 2.317v1.104ZM8.727 6.869H19.57l1.297 5.517H7.46L8.729 6.87Zm34.65 16.386c-3.642 0-6.317-2.841-6.317-6.345 0-3.503 2.703-6.427 6.344-6.427 2.318 0 3.752.855 4.883 2.096l-1.738 1.876c-.855-.91-1.765-1.517-3.172-1.517-2.042 0-3.531 1.765-3.531 3.917 0 2.207 1.517 3.973 3.669 3.973 1.324 0 2.29-.635 3.172-1.518l1.683 1.683c-1.214 1.297-2.62 2.262-4.993 2.262Zm10.317 0H50.88V10.51h2.814v2.98c.772-1.821 2.179-3.09 4.33-2.98v2.98h-.165c-2.455 0-4.165 1.6-4.165 4.855v4.91Zm19.035-12.8-6.207 16.22H63.68l1.352-3.42-5.324-12.8h3.007l3.614 9.462 3.476-9.462h2.924Zm8.276 2.455c-1.904 0-3.559 1.545-3.559 3.945S79.13 20.8 81.005 20.8c1.93 0 3.503-1.517 3.503-3.945s-1.6-3.945-3.503-3.945Zm.634 10.317c-2.014 0-3.282-1.02-4.138-2.151v5.6h-2.814v-16.22h2.814v2.289c.91-1.27 2.18-2.29 4.138-2.29 2.897 0 5.71 2.29 5.71 6.373 0 4.082-2.786 6.4-5.71 6.4Zm11.862-10.096v6.014c0 1.076.552 1.517 1.517 1.517h1.104v2.51H94.19c-2.041 0-3.504-.91-3.504-3.586v-6.455h-1.544v-2.4h1.544V7.365H93.5v3.366h2.62v2.4H93.5Zm11.476-.221c-2.262 0-3.697 1.766-3.697 3.918 0 2.179 1.545 3.972 3.724 3.972 2.263 0 3.697-1.766 3.697-3.917.055-2.18-1.517-3.973-3.724-3.973Zm0 10.345c-3.724 0-6.483-2.841-6.483-6.345 0-3.53 2.786-6.427 6.538-6.427 3.752 0 6.51 2.841 6.51 6.372 0 3.476-2.758 6.4-6.565 6.4Zm33.407-10.345c-2.262 0-3.696 1.766-3.696 3.918 0 2.179 1.544 3.972 3.724 3.972 2.262 0 3.696-1.766 3.696-3.917.028-2.18-1.517-3.973-3.724-3.973Zm0 10.345c-3.724 0-6.483-2.841-6.483-6.345 0-3.53 2.787-6.427 6.538-6.427 3.752 0 6.511 2.841 6.511 6.372 0 3.476-2.787 6.4-6.566 6.4Zm23.227-12.8c2.676 0 4.304 1.683 4.304 4.69v8.082h-2.814V16c0-1.959-.91-2.98-2.483-2.98-1.517 0-2.62 1.077-2.62 3.035v7.2h-2.814V16c0-1.903-.938-2.98-2.483-2.98-1.545 0-2.621 1.16-2.621 3.063v7.172h-2.813V10.483h2.813v2.096c.8-1.076 1.849-2.096 3.725-2.096 1.765 0 2.979.855 3.641 2.151 1.021-1.324 2.317-2.179 4.165-2.179Zm-44.91 10.207v1.434l-.083.139-1.241.69h-.165l-1.214-.69-.083-.139v-1.434l.083-.138 1.214-.69h.165l1.241.69.083.138Zm8.524 2.565c-3.641-.082-6.262-2.979-6.207-6.482.056-3.504 2.814-6.373 6.483-6.29 2.317.055 3.752.938 4.855 2.207l-1.765 1.848c-.828-.91-1.738-1.572-3.145-1.6-2.041-.027-3.559 1.683-3.586 3.862-.055 2.207 1.434 4 3.586 4.028 1.324.027 2.317-.58 3.2-1.462l1.655 1.71c-1.241 1.297-2.676 2.235-5.076 2.18Z"/>
  </g>
  <defs>
    <clipPath id="a">
      <path fill="#fff" d="M.397 0h165.517v32H.397z"/>
    </clipPath>
  </defs>
</svg>
