<svg xmlns="http://www.w3.org/2000/svg" width="141" height="32" fill="none" viewBox="0 0 141 32">
  <g clip-path="url(#a)">
    <mask id="b" width="141" height="32" x="0" y="0" maskUnits="userSpaceOnUse" style="mask-type:luminance">
      <path fill="#fff" d="M.717 0h140v32h-140V0Z"/>
    </mask>
    <g mask="url(#b)">
      <path fill="#fff" fill-rule="evenodd" d="M116.618 9.51h3.976V5.54h-3.976v3.97Zm-21.133 6.61a5.33 5.33 0 0 1 9.973 0h-9.973Zm4.987-7.134c-4.984 0-9.026 4.035-9.026 9.011 0 4.977 4.042 9.01 9.026 9.01a9.025 9.025 0 0 0 7.926-4.697l-3.335-1.615a5.325 5.325 0 0 1-4.591 2.622 5.329 5.329 0 0 1-5.152-3.958h10.303l-.001.006h3.773c.068-.446.103-.903.103-1.368 0-4.976-4.041-9.01-9.026-9.01Zm10.074 17.541h3.976v-3.97h-3.976v3.97Zm6.072 0h3.976V11.255h-3.976v15.272Zm15.073-3.21a5.324 5.324 0 0 1-5.328-5.32 5.324 5.324 0 0 1 5.328-5.32 5.325 5.325 0 0 1 5.329 5.32 5.324 5.324 0 0 1-5.329 5.32Zm-.001-14.33c-4.984 0-9.026 4.034-9.026 9.01 0 4.977 4.042 9.01 9.026 9.01 4.985 0 9.027-4.033 9.027-9.01 0-4.976-4.042-9.01-9.027-9.01Zm-83.128 5.689v4.104h5.56a6.616 6.616 0 0 1-1.688 3.063c-1.241 1.267-2.962 1.964-4.846 1.964-3.91 0-7.091-3.175-7.091-7.08 0-3.903 3.181-7.079 7.09-7.079 2.095 0 4.02.895 5.355 2.438l3.183-2.596a11.28 11.28 0 0 0-8.537-3.946c-6.177 0-11.202 5.017-11.202 11.184 0 6.167 5.025 11.184 11.202 11.184 2.999 0 5.764-1.079 7.785-3.141 1.696-1.73 2.82-4.145 3.036-6.564.105-1.18.115-2.351.053-3.531h-9.9Zm20.252 8.642a5.325 5.325 0 0 1-5.33-5.32 5.325 5.325 0 0 1 5.33-5.321 5.325 5.325 0 0 1 5.329 5.32 5.325 5.325 0 0 1-5.33 5.32Zm5.33-12.576a8.993 8.993 0 0 0-5.33-1.74c-4.984 0-9.024 4.034-9.024 9.01 0 4.975 4.04 9.009 9.024 9.009a8.993 8.993 0 0 0 5.33-1.74v1.246h3.694V9.496h-3.695v1.246Zm11.624-5.201h-3.694V9.51h-2.215v3.481h2.215v9.11c0 .94.118 1.732.353 2.353a3.69 3.69 0 0 0 1.006 1.471c.426.382.926.679 1.519.848.602.169 1.267.234 1.97.234.727 0 1.375-.075 1.928-.224a6.765 6.765 0 0 0 1.465-.58v-2.805c-.73.314-1.41.428-2.188.464-.82.039-1.306-.195-1.71-.58-.423-.402-.649-.927-.649-1.807V12.99h4.546V9.51h-4.546V5.54Z" clip-rule="evenodd"/>
    </g>
    <mask id="c" width="141" height="32" x="0" y="0" maskUnits="userSpaceOnUse" style="mask-type:luminance">
      <path fill="#2354E6" d="M.717 0h140v32h-140V0Z"/>
    </mask>
    <g mask="url(#c)">
      <path fill="#2354E6" fill-rule="evenodd" d="M16.743 24.8c-4.868 0-8.814-3.94-8.814-8.8 0-4.86 3.946-8.8 8.814-8.8V0C7.892 0 .717 7.163.717 16c0 8.836 7.175 16 16.026 16 8.851 0 16.027-7.164 16.027-16h-7.212c0 4.86-3.947 8.8-8.815 8.8Z" clip-rule="evenodd"/>
    </g>
    <mask id="d" width="141" height="32" x="0" y="0" maskUnits="userSpaceOnUse" style="mask-type:luminance">
      <path fill="#17E6A1" d="M.717 0h140v32h-140V0Z"/>
    </mask>
    <g mask="url(#d)">
      <path fill="#17E6A1" fill-rule="evenodd" d="M16.743 16h8.815V7.2h-8.815V16Z" clip-rule="evenodd"/>
    </g>
  </g>
  <defs>
    <clipPath id="a">
      <path fill="#fff" d="M.717 0h140v32h-140z"/>
    </clipPath>
  </defs>
</svg>
