<svg xmlns="http://www.w3.org/2000/svg" width="84" height="32" fill="none" viewBox="0 0 84 32">
  <g clip-path="url(#a)">
    <path fill="#fff" d="M13.973 9.874c.096-4.7-2.592-8.794-3.992-9.778-.007-.007-.131-.073-.122.11 0 .004-.003.004-.003.007-.144 8.876-4.754 11.268-7.257 14.521-5.562 7.234-.92 15.487 5.093 17.05.102.025.38.108.908.215.275.057.355-.174.153-.519-.72-1.237-1.998-3.326-2.25-6.01-.576-6.23 7.358-10.128 7.47-15.596Z"/>
    <path fill="#008CD6" d="M17.004 12.883c-.048-.035-.115-.032-.122.028-.127 1.13-1.307 3.472-2.86 5.662-5.23 7.382-2.596 10.73-.55 13.053.377.43.565.335.764.028.185-.29.466-.661 1.675-1.228.188-.088 4.753-2.487 5.249-7.948.476-5.285-2.948-8.627-4.156-9.595Z"/>
    <path fill="#fff" d="M44.16 11.538v19.426h-4.21v-7.847h-8.09v7.847h-4.316V11.538h4.316v7.848h8.09v-7.848h4.21Zm19.464 0v3.842H57.58v15.58h-4.332V15.38H47.31v-3.842h16.313Z"/>
    <path fill="#fff" fill-rule="evenodd" d="m78.956 30.983-4.949-6.759-4.91 6.73-4.801.007 7.279-9.917-6.87-9.506h4.798l14.232 19.445h-4.779Z" clip-rule="evenodd"/>
    <path fill="#008CD6" d="m75.353 15.886 2.376 3.266 5.626-7.617h-4.773l-3.228 4.351Z"/>
  </g>
  <defs>
    <clipPath id="a">
      <path fill="#fff" d="M.104 0h83.613v32H.104z"/>
    </clipPath>
  </defs>
</svg>
