<svg xmlns="http://www.w3.org/2000/svg" width="148" height="48" fill="none" viewBox="0 0 148 48">
  <path fill="#31CB9E" d="m14.707 23.99 17.965 10.28a.953.953 0 0 0 1.42-.811l.003-18.93a.947.947 0 0 0-.948-.937.951.951 0 0 0-.472.124L14.707 23.99ZM31.628 9.286 19.702.191A.955.955 0 0 0 18.2.74l-4.36 20.25 17.69-10.135a.935.935 0 0 0 .097-1.569ZM19.695 47.805l11.956-9.106a.947.947 0 0 0-.096-1.568L13.838 27.003l4.368 20.251a.932.932 0 0 0 1.058.735.937.937 0 0 0 .43-.184Z"/>
  <path fill="#31CB9E" d="m10.102 23.99 4.705-21.82a.938.938 0 0 0-.972-1.136.943.943 0 0 0-.53.2L1.264 10.41a2.49 2.49 0 0 0-.979 1.98L.282 35.628a2.485 2.485 0 0 0 .979 1.981l12.036 9.165a.951.951 0 0 0 1.503-.936L10.102 23.99Z"/>
  <path fill="#fff" d="M103.797 17.628a4.884 4.884 0 0 1 4.284 2.369l-1.488 1.144a3.957 3.957 0 0 0-1.228-1.184 2.998 2.998 0 0 0-1.569-.422 2.532 2.532 0 0 0-1.408.39 1.347 1.347 0 0 0-.603 1.215c-.007.226.042.45.141.652.095.183.225.347.381.482.177.151.373.28.584.381l.744.372 1.488.682c.465.211.915.453 1.348.723.373.23.711.51 1.006.833.263.294.473.63.623.994.153.39.228.806.221 1.224a3.633 3.633 0 0 1-.342 1.596 3.479 3.479 0 0 1-.946 1.204 4.42 4.42 0 0 1-1.418.762 5.53 5.53 0 0 1-1.76.27 5.634 5.634 0 0 1-2.957-.772 5.753 5.753 0 0 1-2.051-2.098l1.508-1.144c.19.284.402.553.634.803.232.253.492.478.774.672a3.572 3.572 0 0 0 2.072.633 2.626 2.626 0 0 0 1.659-.491 1.623 1.623 0 0 0 .635-1.354 1.544 1.544 0 0 0-.141-.673 1.562 1.562 0 0 0-.403-.512 3.65 3.65 0 0 0-.613-.412c-.235-.127-.5-.257-.795-.391l-1.467-.683a12.556 12.556 0 0 1-1.207-.642 4.75 4.75 0 0 1-.986-.783 3.402 3.402 0 0 1-.664-.994 3.099 3.099 0 0 1-.24-1.254 3.27 3.27 0 0 1 .331-1.485c.218-.438.527-.824.906-1.134.394-.32.844-.566 1.328-.723a5.107 5.107 0 0 1 1.619-.25Zm16.351 9.997 2.556-6.381h2.233l-4.367 10.074h-.724l-3.117-6.583-3.078 6.582h-.725l-4.383-10.076h2.253l2.594 6.444 2.998-6.663h.724l3.036 6.604Zm9.698-6.601a4.964 4.964 0 0 1 1.649.262c.477.162.913.426 1.277.773.369.362.654.8.835 1.284.211.575.314 1.184.302 1.797l-.001 5.96h-1.972v-1.104c-.36.424-.815.757-1.327.973a4.547 4.547 0 0 1-1.831.351 4.694 4.694 0 0 1-1.418-.2 3.118 3.118 0 0 1-1.086-.583 2.58 2.58 0 0 1-.694-.903 2.716 2.716 0 0 1-.241-1.164 2.443 2.443 0 0 1 .985-2.057 4.27 4.27 0 0 1 2.656-.752h2.796v-.642a1.894 1.894 0 0 0-1.265-2.017 1.903 1.903 0 0 0-.847-.091 2.907 2.907 0 0 0-1.508.381 5.106 5.106 0 0 0-1.248 1.084l-1.207-1.245a4.758 4.758 0 0 1 1.832-1.595 5.274 5.274 0 0 1 2.313-.512Zm-.626 8.67c.337.003.67-.055.986-.17.3-.108.576-.271.815-.481a2.25 2.25 0 0 0 .554-.743c.135-.292.203-.611.201-.933v-.18l-2.535-.001a2.34 2.34 0 0 0-1.297.3 1.02 1.02 0 0 0-.348.392 1.019 1.019 0 0 0-.105.512 1.088 1.088 0 0 0 .503.973c.366.23.794.346 1.226.332Zm12.232-8.668a4.79 4.79 0 0 1 1.941.392 4.58 4.58 0 0 1 1.539 1.083 5.035 5.035 0 0 1 1.005 1.627 5.58 5.58 0 0 1 .362 2.037 5.677 5.677 0 0 1-.362 2.047 4.92 4.92 0 0 1-1.017 1.635 4.683 4.683 0 0 1-3.47 1.475 4.79 4.79 0 0 1-1.881-.362 3.647 3.647 0 0 1-1.418-1.044v4.797h-2.112l.002-13.467h1.951l-.001 1.425a3.63 3.63 0 0 1 1.449-1.214 4.625 4.625 0 0 1 2.012-.431Zm-.342 1.926a3.214 3.214 0 0 0-1.077.19 2.778 2.778 0 0 0-1.639 1.576c-.185.459-.274.95-.262 1.445-.012.494.073.985.251 1.445.152.378.382.72.674 1.004.273.263.598.464.955.592a3.23 3.23 0 0 0 1.097.191c.403.002.803-.076 1.176-.23a2.89 2.89 0 0 0 1.61-1.666c.308-.85.308-1.78.001-2.63a3.073 3.073 0 0 0-.634-1.013 2.927 2.927 0 0 0-.955-.662 2.963 2.963 0 0 0-1.197-.241Zm-91.272 8.134h-2.132l.002-13.246h2.132l-.002 13.246Zm2.717-7.044 6.134 7.046h-2.635l-6.155-7.046 5.574-6.201h2.615l-5.533 6.201Z"/>
  <path fill="#fff" d="M63.376 32.213a4.968 4.968 0 0 1-1.5 2.067 3.523 3.523 0 0 1-2.142.642c-.275 0-.55-.018-.825-.05a5.987 5.987 0 0 1-.804-.15v-1.787c.242.026.456.046.644.06.188.013.368.02.543.02.422.008.84-.088 1.217-.28.43-.277.759-.685.936-1.164l.402-.924-3.94-9.413h2.272l2.815 7.186 2.939-7.185h2.252l-4.809 10.978Zm8.027-9.773c.388-.45.873-.807 1.418-1.044a4.567 4.567 0 0 1 1.881-.38 4.695 4.695 0 0 1 3.47 1.475 4.93 4.93 0 0 1 1.016 1.636c.245.654.368 1.348.361 2.047a5.582 5.582 0 0 1-.362 2.037 5.036 5.036 0 0 1-1.006 1.626c-.43.462-.95.83-1.529 1.083a4.717 4.717 0 0 1-1.931.391 4.774 4.774 0 0 1-2.022-.422 3.536 3.536 0 0 1-1.458-1.204v1.405H69.29l.002-15.053h2.112l-.001 6.403Zm2.957.502c-.374 0-.745.064-1.097.19a2.7 2.7 0 0 0-.955.592 2.915 2.915 0 0 0-.674 1.004 3.74 3.74 0 0 0-.251 1.445c-.012.497.076.992.26 1.455.155.379.388.721.685 1.003.273.257.6.452.955.573.346.119.71.18 1.076.18a2.936 2.936 0 0 0 2.153-.902c.275-.294.49-.638.634-1.014.307-.85.307-1.78 0-2.629a2.894 2.894 0 0 0-1.61-1.666 3.026 3.026 0 0 0-1.176-.231Zm11.708-1.924a4.835 4.835 0 0 1 1.83.341 4.23 4.23 0 0 1 2.393 2.379c.231.57.347 1.18.342 1.796 0 .255-.016.51-.05.763-.024.19-.061.377-.111.561h-7.363a3.01 3.01 0 0 0 1.087 1.906c.61.467 1.363.708 2.131.683a3.835 3.835 0 0 0 1.57-.31c.478-.214.92-.502 1.308-.854l1.025 1.446a5.97 5.97 0 0 1-1.77 1.163 5.469 5.469 0 0 1-2.173.422 5.73 5.73 0 0 1-2.132-.392 4.944 4.944 0 0 1-2.795-2.72 5.104 5.104 0 0 1-.403-2.027 5.222 5.222 0 0 1 .393-2.027 4.98 4.98 0 0 1 1.086-1.636 5.202 5.202 0 0 1 1.62-1.093 5 5 0 0 1 2.012-.401Zm-.062 1.786a2.753 2.753 0 0 0-1.85.652 3.097 3.097 0 0 0-1.006 1.756h5.371a2.325 2.325 0 0 0-.774-1.786 2.606 2.606 0 0 0-1.74-.622Zm11.487-1.664c.151-.002.303.008.453.03.127.02.244.043.351.07v1.867h-.644a3.632 3.632 0 0 0-1.116.17c-.34.105-.656.28-.925.511a2.446 2.446 0 0 0-.624.853c-.162.378-.24.785-.232 1.195v5.258h-2.112l.001-9.855h1.95v1.325a3.433 3.433 0 0 1 1.278-1.064 3.709 3.709 0 0 1 1.62-.36Z"/>
</svg>
