<svg xmlns="http://www.w3.org/2000/svg" width="139" height="32" fill="none" viewBox="0 0 139 32">
  <path fill="#23AF91" d="M109.201 16.003c0-.817 0-1.586-.026-2.296a13.8 13.8 0 0 0-.199-1.998 6.704 6.704 0 0 0-.56-1.74 5.62 5.62 0 0 0-1.105-1.531 7.068 7.068 0 0 0-2.246-1.548 7.363 7.363 0 0 0-2.869-.538 7.467 7.467 0 0 0-2.881.538 7.012 7.012 0 0 0-2.26 1.54 5.586 5.586 0 0 0-1.1 1.532 6.667 6.667 0 0 0-.551 1.74 13.79 13.79 0 0 0-.191 1.998c-.018.71-.027 1.478-.022 2.296.004.817 0 1.58.022 2.294.015.67.08 1.337.19 1.998.104.602.29 1.188.552 1.74.279.569.65 1.086 1.1 1.532a6.933 6.933 0 0 0 2.26 1.537c.915.37 1.894.554 2.881.54a7.308 7.308 0 0 0 2.869-.54 6.993 6.993 0 0 0 2.246-1.538 5.684 5.684 0 0 0 1.105-1.531 6.703 6.703 0 0 0 .56-1.74c.113-.659.179-1.324.196-1.992a60.14 60.14 0 0 0 .026-2.294l.003.001Zm-3.704 0c0 .905-.013 1.66-.044 2.26-.017.492-.066.983-.147 1.469a3.62 3.62 0 0 1-.294.936 2.65 2.65 0 0 1-.441.657 2.846 2.846 0 0 1-1.002.735c-.433.185-.898.28-1.369.277a3.486 3.486 0 0 1-1.375-.277 2.848 2.848 0 0 1-1.03-.735 2.58 2.58 0 0 1-.44-.657 3.525 3.525 0 0 1-.28-.936 12.297 12.297 0 0 1-.147-1.47c-.026-.6-.04-1.353-.04-2.259 0-.905.014-1.661.04-2.26a12.3 12.3 0 0 1 .147-1.47c.05-.324.144-.64.28-.937a2.876 2.876 0 0 1 1.47-1.392 3.42 3.42 0 0 1 1.375-.276c.471-.005.937.09 1.369.276.384.169.726.42 1.002.735.179.196.327.418.441.657.14.297.239.612.294.936.081.487.13.978.147 1.47.033.598.044 1.354.044 2.261Zm33.219-9.16a.327.327 0 0 0-.325-.325h-3.056a.325.325 0 0 0-.324.325V18.13l-7.453-11.52c-.05-.078-.094-.091-.204-.091h-2.834a.33.33 0 0 0-.325.325V25.16a.328.328 0 0 0 .325.323h3.055a.325.325 0 0 0 .323-.323V13.842l7.454 11.549c.051.078.092.091.204.091h2.832a.326.326 0 0 0 .325-.323l.003-18.316Zm-20.484 0a.327.327 0 0 0-.325-.325h-3.053a.327.327 0 0 0-.325.325v18.316a.327.327 0 0 0 .325.325h3.053a.327.327 0 0 0 .325-.325V6.843Zm-36.546 9.16c0-.911.01-1.67.036-2.274.018-.492.067-.983.147-1.47.282-1.631 1.532-2.594 3.127-2.594 1.04.009 1.984.394 2.587 1.27a4.2 4.2 0 0 1 .588 1.34c.009.05.054.086.105.081h3.594c.052 0 .07-.035.062-.085-.392-2.224-1.579-4.221-3.675-5.21a7.554 7.554 0 0 0-3.29-.699c-2.023 0-3.727.693-5.113 2.079a5.487 5.487 0 0 0-1.55 2.845c-.21 1.066-.318 2.638-.32 4.716-.001 2.077.105 3.648.32 4.713a5.495 5.495 0 0 0 1.546 2.852c1.384 1.385 3.089 2.077 5.113 2.077a7.573 7.573 0 0 0 3.29-.697c2.096-.989 3.282-2.987 3.675-5.21.008-.052-.01-.086-.062-.086H88.27a.097.097 0 0 0-.106.081c-.117.477-.316.93-.588 1.34-.603.881-1.546 1.262-2.587 1.27-1.595 0-2.844-.962-3.127-2.594-.08-.486-.129-.977-.147-1.47-.02-.607-.03-1.366-.03-2.275Zm-37.958-9.16a.326.326 0 0 0-.325-.325H40.35a.326.326 0 0 0-.325.325V25.16a.327.327 0 0 0 .325.324h3.053a.327.327 0 0 0 .325-.324v-5.377l2.45-2.93 5.033 8.534c.039.062.108.1.182.097h3.71c.17 0 .202-.106.116-.252l-6.589-11.17 6.046-7.253c.122-.147.07-.287-.121-.287H50.5a.147.147 0 0 0-.127.059l-6.645 7.97V6.843ZM65.97 22.34c-1.718 0-3.276-1.59-3.276-3.488V6.842a.326.326 0 0 0-.325-.324h-3.053a.326.326 0 0 0-.325.325v11.961c0 4.182 3.128 6.84 6.98 6.84 3.85 0 6.978-2.658 6.978-6.84V6.843a.328.328 0 0 0-.325-.325H69.57a.326.326 0 0 0-.323.325v12.009c0 1.897-1.56 3.489-3.277 3.489Z"/>
  <path fill="#23AF91" fill-rule="evenodd" d="m9.337 16.003 9.478 9.48 5.982-5.983a2.706 2.706 0 0 1 3.822 3.822l-7.895 7.896a2.725 2.725 0 0 1-3.821 0L5.513 19.825v6.772a2.706 2.706 0 0 1-5.412 0V5.4a2.706 2.706 0 1 1 5.412 0v6.772L16.9.783a2.724 2.724 0 0 1 3.822 0l7.9 7.894a2.706 2.706 0 0 1-3.821 3.822l-5.983-5.982-9.482 9.486Zm9.482-2.709a2.709 2.709 0 1 0-.003 5.421 2.709 2.709 0 0 0 .003-5.422v.001Z" clip-rule="evenodd"/>
</svg>
