<svg xmlns="http://www.w3.org/2000/svg" width="103" height="32" fill="none" viewBox="0 0 103 32">
  <path fill="#58C24D" d="M101.858 11.82c-.588-2.22-5.16-7.314-8.49-11.428C93.303.327 93.107 0 92.715 0c-.327 0-.588.327-.457.588.13.261 3.33 6.922 2.743 9.077-.588 2.22-3.527 1.764-3.984 1.764-.261 0-.065.196.196.457 1.633 1.437 2.677 3.461 2.677 6.073v1.96c0 .065 0 .065.066.065 3.722-.327 9.404-2.613 7.902-8.164ZM87.425 24.686c0 1.894-2.547 2.939-4.18 2.939-1.763 0-4.244-1.045-4.244-2.94v-6.66c0-1.894 2.481-2.743 4.245-2.743 1.632 0 4.18.914 4.18 2.742v6.662Zm-4.18-13.584c-3.918.065-8.49 2.286-8.49 6.857v6.988c0 4.637 4.572 6.857 8.49 6.857 3.854-.065 8.425-2.22 8.425-6.857v-6.922c0-4.572-4.571-6.858-8.424-6.923ZM57.907 24.686c0 1.894-2.547 2.939-4.18 2.939-1.763 0-4.245-1.045-4.245-2.94v-6.66c0-1.894 2.482-2.743 4.245-2.743 1.633 0 4.18.914 4.18 2.742v6.662Zm-4.245-13.584c-3.919.065-8.49 2.286-8.49 6.857v6.988c0 4.637 4.571 6.857 8.49 6.857 3.853-.065 8.424-2.22 8.424-6.857v-6.922c0-4.572-4.571-6.858-8.424-6.923Zm-42.58.784c.261-.261.457-.457.196-.457-.457 0-3.396.457-3.984-1.764C6.706 7.445 9.906.85 10.037.588 10.102.327 9.907 0 9.515 0c-.327 0-.588.392-.653.392C5.596 4.506.959 9.6.372 11.82c-1.502 5.552 4.31 7.837 7.967 8.23.065 0 .065-.066.065-.066v-1.96c.066-2.677 1.045-4.702 2.678-6.138Zm33.829.784c-3.135-.85-5.42-1.176-8.816-1.176-3.33 0-5.682.327-8.817 1.176-.13.065-.196.196-.13.26 1.045.915 1.502 2.09 1.698 3.397 1.698-.392 3.265-.653 5.094-.784v16.13c0 .066.065.066.13.066h4.05c.065 0 .13 0 .13-.065v-16.13c1.763.13 3.2.326 4.898.783.261-1.306.783-2.547 1.894-3.396 0-.13-.066-.261-.13-.261Zm29.975-1.372c-.326-.065-1.175-.196-1.96-.13-3.852.13-8.228 2.416-8.228 6.857v13.78c0 .065.066.065.13.065h4.05c.065 0 .13 0 .13-.066v-13.78c0-1.501 1.83-2.35 3.331-2.677.457-1.437 1.306-2.547 2.612-3.592.196-.196.131-.457-.065-.457ZM22.772 19.2c0 .065 0 .065-.065.13 0 .066-.066.066-.131.066H14.87v-1.372c0-1.894 2.286-2.808 4.049-2.808 1.698 0 3.853.914 3.853 2.808V19.2Zm-3.853-8.229c-3.984.066-8.36 2.351-8.36 6.988v7.053c0 4.702 4.376 6.923 8.36 6.988 2.873 0 6.073-1.176 7.64-3.723.066-.065 0-.196-.065-.26-1.371-.784-2.155-1.242-3.526-1.96-.066 0-.066 0-.13.065-.72 1.241-2.613 1.894-3.92 1.894-1.762 0-4.048-1.11-4.048-3.004v-2.09h11.037c.587 0 1.044-.457 1.044-1.045v-3.853c0-4.702-4.114-6.988-8.032-7.053Z"/>
</svg>
