<svg xmlns="http://www.w3.org/2000/svg" width="106" height="24" fill="none" viewBox="0 0 106 24">
  <path fill="#023F97" d="M71.02 7.198h-8.109L65.252 0H58.05l-7.797 24H65.24a8 8 0 0 0 7.608-5.528l1.96-6.02a4.004 4.004 0 0 0-3.788-5.254Zm-3.348 5.047-1.622 4.99A4 4 0 0 1 62.245 20h-3.492l2.86-8.802h5.298a.797.797 0 0 1 .76 1.047ZM83.653 0l-1.561 4.802h7.202L90.852 0h-7.199Zm-7.8 24h7.202L88.51 7.198h-7.198L75.853 24ZM99.31 11.198h4.843l1.299-4h-4.843L102.949 0h-7.202l-6.096 18.762A4.005 4.005 0 0 0 93.459 24h7.993l1.302-4h-5.208a.794.794 0 0 1-.753-1.042l2.517-7.76Z"/>
  <path fill="#0062DF" d="M21.215 8.376 29.09 0h-8.437l-6.498 20H8.752a.802.802 0 0 1-.753-1.046L14.152 0H6.95L.854 18.77a3.997 3.997 0 0 0 3.8 5.23h15.402l5.456-16.802-4.297 1.178ZM47.856 0H31.3l2.468 8.376-3.533-1.174L24.755 24h7.203l2.6-8h7.786a8 8 0 0 0 7.605-5.528l1.704-5.242A4 4 0 0 0 47.856 0Zm-3.341 5.042-1.362 4.196A4 4 0 0 1 39.349 12h-3.492l2.6-8h5.302a.794.794 0 0 1 .756 1.042Z"/>
</svg>
