<svg xmlns="http://www.w3.org/2000/svg" width="127" height="44" fill="none" viewBox="0 0 127 44">
  <path fill="#fff" d="M54.048 18.292h-1.976l-3.48 12.168h3.855l2.94-10.273a1.455 1.455 0 0 0-.18-1.34 1.38 1.38 0 0 0-1.16-.555Zm2.695-2.727a2.77 2.77 0 0 1-2.483 1.927 1.396 1.396 0 0 1-1.47-1.34 1.21 1.21 0 0 1 .098-.587 2.77 2.77 0 0 1 2.483-1.927c.473-.033.93.196 1.225.588.13.196.228.424.245.653.016.229-.017.457-.098.686Zm15.761 2.075c-.768 0-1.52.146-2.222.424a5.667 5.667 0 0 0-.963.555l.882-3.103c.147-.441.098-.947-.18-1.323-.13-.18-.31-.327-.506-.425a1.27 1.27 0 0 0-.654-.13h-1.894L62.165 30.46h3.756l1.846-6.468a4.714 4.714 0 0 1 1.225-2.237 2.37 2.37 0 0 1 1.748-.735 1.232 1.232 0 0 1 1.24.735 3.499 3.499 0 0 1-.064 2.238l-1.83 6.45h3.806l1.813-6.32a6.576 6.576 0 0 0-.05-4.671 3.273 3.273 0 0 0-3.151-1.813Zm34.249-.033a8.81 8.81 0 0 0-5.014 1.453 3.24 3.24 0 0 0-2.94-1.437 6.05 6.05 0 0 0-2.222.424c-.408.18-.8.425-1.16.703a1.325 1.325 0 0 0-1.404-1.127h-1.878l-3.658 12.821h3.756l1.862-6.484c.196-.85.62-1.617 1.225-2.238.229-.228.49-.424.8-.555.294-.13.62-.196.947-.18.262-.032.523.033.736.164.212.13.391.343.49.571a3.499 3.499 0 0 1-.066 2.238l-1.846 6.484h3.806l1.862-6.484a4.803 4.803 0 0 1 1.225-2.238 2.368 2.368 0 0 1 1.747-.735 1.22 1.22 0 0 1 1.242.735 3.499 3.499 0 0 1-.066 2.238l-1.861 6.484h3.805l1.813-6.353a6.577 6.577 0 0 0-.049-4.672 3.232 3.232 0 0 0-3.152-1.812Zm-29.97 7.317 2.09-7.317h3.806l-2.09 7.317c-.621 2.156 1.404 2.156 1.404 2.156a2.859 2.859 0 0 0 2.728-2.156l2.09-7.317h3.757l-2.09 7.317a7.551 7.551 0 0 1-7.449 5.52s-5.928.392-4.246-5.52Zm46.107-.817a6.577 6.577 0 0 0-.049-4.671 3.225 3.225 0 0 0-3.136-1.797 5.431 5.431 0 0 0-2.221.425 4.775 4.775 0 0 0-.964.555l.882-3.086a1.472 1.472 0 0 0-.179-1.323 1.343 1.343 0 0 0-.523-.425 1.271 1.271 0 0 0-.653-.13h-1.879l-3.185 11.17c-1.747 6.11 4.427 5.652 4.427 5.652s5.634.098 7.48-6.37Zm-3.773-.13a5.288 5.288 0 0 1-1.258 2.368 2.264 2.264 0 0 1-.8.555c-.294.13-.62.196-.947.18a1.23 1.23 0 0 1-1.274-.752 3.796 3.796 0 0 1 .147-2.368 4.726 4.726 0 0 1 1.225-2.238 2.368 2.368 0 0 1 1.747-.734 1.233 1.233 0 0 1 1.242.735c.212.75.196 1.535-.082 2.253Zm-56.756-8.461c.082-.212.098-.457.066-.686a1.59 1.59 0 0 0-.245-.653 1.342 1.342 0 0 0-1.127-.556h-1.96l-4.05 14.21c-.556 1.96.408 2.45 1.322 2.531.654.05 1.421.082 2.173.082.49 0 .963-.016 1.355-.033l.392-.016.866-3.038h-1.699c-.457 0-.408-.163-.376-.326l1.748-6.141h.474a2.515 2.515 0 0 0 1.47-.523c.457-.327.784-.817.947-1.356L64.011 18h-2.352l.702-2.483Zm-13.294 8.591a6.575 6.575 0 0 0-.05-4.671 3.25 3.25 0 0 0-3.135-1.797 5.435 5.435 0 0 0-2.221.425 4.753 4.753 0 0 0-.964.555l.882-3.086a1.47 1.47 0 0 0-.18-1.323c-.13-.18-.31-.327-.506-.425a1.271 1.271 0 0 0-.653-.13h-1.895l-3.185 11.17c-1.747 6.11 4.426 5.652 4.426 5.652s5.619.098 7.48-6.37Zm-3.773-.13a5.293 5.293 0 0 1-1.258 2.368 2.37 2.37 0 0 1-1.747.735 1.263 1.263 0 0 1-1.29-.752 3.793 3.793 0 0 1 .146-2.368 4.725 4.725 0 0 1 1.225-2.238 2.37 2.37 0 0 1 1.748-.734 1.232 1.232 0 0 1 1.241.735 3.437 3.437 0 0 1-.065 2.253Z"/>
  <path fill="#D62817" d="M3.744 18.62a2.668 2.668 0 0 0 1.404 3.51c.376.164.784.23 1.209.213h.947L10 12.92H5.393l-1.65 5.7Z"/>
  <path fill="#EC7000" d="M29.19 16.561c-1.242-2.482-3.414-3.675-6.485-3.675H16.99l-2.68 9.474h4.067a1.447 1.447 0 0 1 1.552.85 4.3 4.3 0 0 1-.082 2.825 6.771 6.771 0 0 1-1.568 2.989 2.926 2.926 0 0 1-2.188.931 1.538 1.538 0 0 1-1.6-.947 4.754 4.754 0 0 1 .179-2.973L19.65 8.46a3.07 3.07 0 0 0-.36-2.76 2.801 2.801 0 0 0-2.416-1.143h-5.537L4.772 27.7c-3.593 12.658 9.13 11.727 9.13 11.727s11.58.261 15.402-13.164c1.11-3.953 1.078-7.22-.115-9.702Z"/>
  <path fill="url(#a)" d="M29.304 26.214c1.127-3.92 1.094-7.17-.115-9.636-1.241-2.467-3.413-3.643-6.484-3.643h-4.312l-2.678 9.424h2.646a1.457 1.457 0 0 1 1.551.833 4.204 4.204 0 0 1-.081 2.793"/>
  <defs>
    <linearGradient id="a" x1="24.324" x2="21.137" y1="22.448" y2="17.311" gradientUnits="userSpaceOnUse">
      <stop stop-color="#D62616" stop-opacity="0"/>
      <stop offset="1" stop-color="#D62616"/>
    </linearGradient>
  </defs>
</svg>
