<svg xmlns="http://www.w3.org/2000/svg" width="104" height="28" fill="none" viewBox="0 0 104 28">
  <path fill="#fff" d="M34.022 17.685c0 .517.103.999.293 1.447.19.447.448.843.775 1.188a3.598 3.598 0 0 0 2.566 1.085c.965 0 1.895-.396 2.566-1.085a3.68 3.68 0 0 0 1.05-2.635 3.83 3.83 0 0 0-1.05-2.635 3.54 3.54 0 0 0-1.154-.792 3.639 3.639 0 0 0-1.412-.292 3.617 3.617 0 0 0-3.341 2.273 3.453 3.453 0 0 0-.293 1.446ZM30.973 7.456c0-.224.035-.43.12-.637.07-.19.19-.361.328-.516.138-.138.31-.259.482-.345.19-.086.397-.12.603-.12.224 0 .413.034.603.12.362.172.654.482.792.861.07.19.104.413.104.637v5.27a3.13 3.13 0 0 1 .62-.758c.258-.241.568-.43.895-.603.327-.172.672-.31 1.034-.413a3.935 3.935 0 0 1 1.085-.155c.895 0 1.774.172 2.583.534a6.456 6.456 0 0 1 2.119 1.48A7.389 7.389 0 0 1 43.77 15c.344.844.533 1.756.533 2.669s-.172 1.825-.534 2.652a7.308 7.308 0 0 1-1.43 2.17 6.672 6.672 0 0 1-2.118 1.463 6.046 6.046 0 0 1-2.583.534 6.313 6.313 0 0 1-2.584-.534 6.672 6.672 0 0 1-2.118-1.463 6.843 6.843 0 0 1-1.447-2.17 6.694 6.694 0 0 1-.534-2.652V7.456h.017Zm15.33 4.908c0-.62.378-1.188.947-1.43.189-.085.396-.12.602-.12.207 0 .397.035.586.12.362.173.637.466.775.827.069.19.12.396.12.603v10.573c0 .414-.154.792-.43 1.102a1.333 1.333 0 0 1-.482.328c-.19.086-.38.12-.586.12-.207 0-.413-.034-.586-.12a1.554 1.554 0 0 1-.947-1.43V12.364Zm-.121-4.65c0-.447.172-.878.482-1.205.155-.155.327-.275.517-.361a1.65 1.65 0 0 1 .654-.138c.224 0 .43.052.637.138a1.4 1.4 0 0 1 .517.361 1.714 1.714 0 0 1 .5 1.188c0 .242-.052.465-.138.672a1.627 1.627 0 0 1-.362.534 1.755 1.755 0 0 1-.517.361 1.63 1.63 0 0 1-.637.138 1.65 1.65 0 0 1-.654-.138 1.556 1.556 0 0 1-.517-.361 1.68 1.68 0 0 1-.482-1.188Zm5.132.603c0-.637.362-1.205.947-1.463.19-.086.38-.12.586-.12.413 0 .81.154 1.102.447.138.138.259.31.345.5.086.189.138.395.138.62v2.272h4.788c.206 0 .413.035.603.12.361.156.654.466.81.827.085.19.12.396.12.603 0 .207-.035.396-.12.586a1.535 1.535 0 0 1-1.413.912h-4.788v4.099c0 .516.086.998.275 1.446.19.448.43.827.758 1.171a3.432 3.432 0 0 0 2.532 1.051c.448 0 .861-.07 1.24-.19.379-.138.74-.344 1.068-.637.19-.155.362-.293.534-.379.172-.103.379-.155.62-.155.172 0 .344.034.5.12.172.07.31.173.43.31.12.138.224.293.31.483s.12.379.12.585c0 .241-.051.482-.137.706-.086.224-.224.43-.414.603a5.569 5.569 0 0 1-1.946 1.257 6.476 6.476 0 0 1-2.325.413 6.534 6.534 0 0 1-2.618-.534 6.623 6.623 0 0 1-2.118-1.446 7.225 7.225 0 0 1-1.43-2.152 6.777 6.777 0 0 1-.534-2.67V8.317h.017Zm13.503 9.678c0-.964.19-1.911.552-2.79a7.226 7.226 0 0 1 1.498-2.29 7.381 7.381 0 0 1 2.222-1.55 6.625 6.625 0 0 1 2.704-.568h.034c.5 0 .896.138 1.154.43.276.293.414.672.414 1.12 0 .224-.035.43-.12.62a1.4 1.4 0 0 1-.328.5 1.59 1.59 0 0 1-1.12.447h-.068c-.517 0-1.017.12-1.482.327-.465.207-.878.5-1.24.861a4.29 4.29 0 0 0-.86 1.257 3.683 3.683 0 0 0-.328 1.55v4.908c0 .206-.035.413-.12.602a2.49 2.49 0 0 1-.31.5 1.428 1.428 0 0 1-.466.327 1.533 1.533 0 0 1-1.171 0 1.673 1.673 0 0 1-.5-.327 1.566 1.566 0 0 1-.465-1.102v-4.822Zm10.559-5.648c0-.413.154-.792.43-1.102.138-.138.293-.258.482-.327.19-.086.38-.12.586-.12.413 0 .792.154 1.085.447.138.138.241.31.327.5.086.189.12.395.12.602v5.562c0 .5.087.947.26 1.378.326.826.98 1.48 1.79 1.842.414.172.862.258 1.344.258a2.96 2.96 0 0 0 2.273-1.015c.276-.328.5-.707.62-1.103.138-.43.224-.895.224-1.377v-5.528c0-.413.173-.81.465-1.102.138-.138.31-.258.5-.327.19-.086.379-.12.585-.12.397 0 .776.154 1.051.447.276.293.43.689.43 1.102v5.528c0 .912-.154 1.773-.464 2.583a6.477 6.477 0 0 1-1.292 2.1 6.128 6.128 0 0 1-1.946 1.43 5.822 5.822 0 0 1-2.446.517 6.2 6.2 0 0 1-2.515-.517 6.559 6.559 0 0 1-2.05-1.43 6.75 6.75 0 0 1-1.877-4.683v-5.545h.017ZM93.34 19.08a3.694 3.694 0 0 0 1.257 1.756c.293.207.603.38.965.5.344.12.723.19 1.102.19.413 0 .74-.035 1.016-.104.258-.069.517-.19.758-.327.327-.19.62-.293.895-.293.207 0 .414.052.586.138.189.086.344.206.465.361.276.31.431.706.431 1.12 0 .31-.104.602-.293.86a2.6 2.6 0 0 1-.844.672 4.46 4.46 0 0 1-1.31.414 9.188 9.188 0 0 1-1.687.154 6.453 6.453 0 0 1-2.6-.533 6.748 6.748 0 0 1-2.136-1.464 6.841 6.841 0 0 1-1.447-2.17 6.694 6.694 0 0 1-.534-2.652c0-.912.172-1.825.534-2.686a6.84 6.84 0 0 1 3.582-3.633 6.177 6.177 0 0 1 2.601-.534c.913 0 1.774.172 2.584.534a6.996 6.996 0 0 1 2.118 1.446 6.779 6.779 0 0 1 1.447 2.153c.361.826.551 1.704.568 2.652 0 .447-.138.809-.413 1.084-.276.276-.637.414-1.068.414l-8.577-.052Zm6.906-2.617a3.643 3.643 0 0 0-1.291-1.93 3.321 3.321 0 0 0-1.034-.55 3.568 3.568 0 0 0-1.223-.19c-.43 0-.826.07-1.205.207a3.442 3.442 0 0 0-1.017.568 3.998 3.998 0 0 0-.775.844c-.206.327-.379.672-.465 1.05h7.01Z"/>
  <path fill="url(#a)" d="M21.052 18.735V4.77l4.082 2.325v13.983l-7.492 4.27-4.082-2.325 7.492-4.288ZM.625 12.502l4.082-2.325v8.524l12.263 6.974L12.888 28 .625 21.026v-8.524ZM12.888 0l7.492 4.253V8.92l-7.492-4.253L.625 11.658v-4.65L12.888 0ZM8.307 8.3l2.773-1.567v5.855c.293-.207.947-.723 1.963-.723 1.31 0 2.429.447 3.359 1.36.93.913 1.378 2.015 1.378 3.306 0 1.292-.465 2.394-1.378 3.307-.93.912-2.033 1.377-3.359 1.377s-2.446-.465-3.358-1.377c-.93-.913-1.378-2.015-1.378-3.307v-8.23Zm3.341 9.592c.379.379.844.568 1.395.568.534 0 1-.19 1.378-.568.379-.362.586-.861.586-1.378a1.8 1.8 0 0 0-.586-1.36 1.956 1.956 0 0 0-1.378-.569c-.534 0-.999.19-1.395.569a1.835 1.835 0 0 0-.585 1.36c.017.534.206.999.585 1.378Z"/>
  <defs>
    <linearGradient id="a" x1="12.877" x2="12.877" y1=".007" y2="28.023" gradientUnits="userSpaceOnUse">
      <stop stop-color="#FFE275"/>
      <stop offset="1" stop-color="#F0B736"/>
    </linearGradient>
  </defs>
</svg>
