<svg xmlns="http://www.w3.org/2000/svg" width="107" height="32" fill="none" viewBox="0 0 107 32">
  <path fill="#fff" d="M39.976 25.946v-6.29h.05l4.067 6.29h4.714l-4.888-6.723 4.256-5.553 1.418-1.862H44.93l-1.365 1.855-3.538 5.461h-.05V2.132l-3.93 1.009v22.805h3.93Z"/>
  <path fill="#fff" d="M53.325 25.946v-6.072c0-1.076.24-1.926.718-2.551.479-.625 1.143-.938 1.993-.938h4.923v-3.154h-4.217c-1.609 0-2.748.638-3.367 2.36h-.05v-2.36h-3.91v12.715h3.91Z"/>
  <path fill="#fff" d="M60.944 32c2.494 0 4.36-1.659 5.599-4.976l5.152-13.793H67.82l-2.391 7.795c-.198.64-.334 1.201-.409 1.683h-.05a10.142 10.142 0 0 0-.346-1.708l-1.744-5.729a2.88 2.88 0 0 0-2.755-2.04h-2.202l5.153 12.745-.67 1.583c-.396.956-1.098 1.434-2.105 1.434a3.275 3.275 0 0 1-1.697-.461v3.143c.611.216 1.392.324 2.341.324Zm13.691-5.247a10.6 10.6 0 0 0 2.241-.233 6.025 6.025 0 0 0 1.907-.743 3.99 3.99 0 0 0 1.326-1.322c.332-.541.499-1.194.499-1.957 0-.546-.083-1.016-.247-1.41a3.017 3.017 0 0 0-.707-1.033 4.603 4.603 0 0 0-1.105-.768c-.429-.218-.909-.42-1.44-.604-.294-.1-.59-.2-.89-.296a5.863 5.863 0 0 1-.814-.327 1.975 1.975 0 0 1-.593-.435c-.152-.168-.233-.268-.233-.503 0-.177.056-.31.157-.448s.24-.252.417-.34a2.44 2.44 0 0 1 .612-.201c.232-.046.478-.07.739-.07h3.32v-2.832H76.34a9.44 9.44 0 0 0-2.115.233 5.775 5.775 0 0 0-1.806.73 3.861 3.861 0 0 0-1.263 1.278c-.316.52-.473 1.142-.473 1.864 0 .529.07.986.208 1.372.139.386.34.726.606 1.02.265.293.594.552.985.774.391.222.844.43 1.357.623.32.126.653.24.998.34.345.1.663.214.953.34.29.126.529.273.714.44a.814.814 0 0 1 .278.63c0 .395-.205.688-.613.881-.408.194-.966.29-1.673.29a6.53 6.53 0 0 1-1.85-.29 8.508 8.508 0 0 1-1.963-.88v3.222c1.212.437 2.53.655 3.952.655Z"/>
  <path fill="#fff" d="M85.457 26.35c1.178 0 2.06-.155 2.645-.462V22.97c-.443.241-.874.362-1.291.362-1.062 0-1.592-.665-1.592-1.995v-5.276h2.883v-2.83h-2.883V9.396l-3.949 1.122v2.712h-2.08v2.83h2.08v5.963c0 2.883 1.396 4.325 4.187 4.325Z"/>
  <path fill="#fff" fill-rule="evenodd" d="M96.283 24.014c-.855 1.422-2.12 2.133-3.795 2.133-1.236 0-2.208-.349-2.917-1.047-.71-.7-1.064-1.631-1.064-2.797 0-2.464 1.464-3.886 4.392-4.266l3.458-.46c0-1.388-.754-2.083-2.264-2.083-1.518 0-2.961.45-4.33 1.352v-2.952c.548-.28 1.296-.529 2.246-.744.95-.215 1.814-.322 2.594-.322 3.633 0 5.449 1.806 5.449 5.42v7.59h-3.72v-1.824h-.05Zm-3.69-1.072c.312.285.733.427 1.263.427.739 0 1.34-.254 1.805-.762.464-.509.696-1.152.696-1.929v-.855l-2.314.297c-1.277.165-1.916.74-1.916 1.724 0 .447.156.812.467 1.098Z" clip-rule="evenodd"/>
  <path fill="#fff" d="M104.445 26.35c.678 0 1.159-.044 1.684-.196v-3.232h-.109c-.503.065-.7.065-1.116.065-.241 0-.394-.238-.394-.52V6.773h-3.85v16.128c0 2.255 1.203 3.448 3.785 3.448Z"/>
  <path fill="#1DE9B6" d="M18.642.697c0-.481.477-.818.932-.657l6.242 2.212c.453.16.612.719.311 1.093l-6.242 7.761c-.413.514-1.243.222-1.243-.436V.697ZM6.964 8.346A.696.696 0 0 0 7.065 9.6l9.419 3.596a.698.698 0 0 0 .948-.65v-9.05a.698.698 0 0 0-1.05-.603L6.965 8.346ZM.285 18.223a.698.698 0 0 0 .871.73l13.973-3.617c.658-.17.71-1.084.074-1.326L1.933 8.955a.698.698 0 0 0-.945.595l-.703 8.672Zm14.844-.297a.698.698 0 0 0-.835-.907l-9.397 2.443a.696.696 0 0 0-.31 1.175l6.344 6.148a.7.7 0 0 0 1.145-.267l3.053-8.592Zm5.191-3.576a.697.697 0 0 1-.404-1.12l6.576-8.181a.699.699 0 0 1 1.23.3l1.995 9.934a.698.698 0 0 1-.825.82L20.32 14.35Zm.776 1.665c-.663-.136-1.113.654-.657 1.153l8.57 9.377a.699.699 0 0 0 1.207-.375l1.023-7.408a.697.697 0 0 0-.55-.777l-9.593-1.97Zm-3.763 3.242c-.014-.775-1.095-.951-1.356-.221l-3.765 10.547a.698.698 0 0 0 .795.918l3.946-.79a.697.697 0 0 0 .56-.696l-.18-9.758Zm1.343.101c-.012-.641.777-.957 1.212-.486l6.276 6.799a.697.697 0 0 1-.388 1.158l-6.128 1.122a.698.698 0 0 1-.824-.673l-.148-7.92Z"/>
</svg>
