<svg xmlns="http://www.w3.org/2000/svg" width="145" height="40" fill="none" viewBox="0 0 145 40">
  <path fill="#007EA4" d="M16.765 22.93h-1.818c-1.09 0 2.627 5.211 5.313 5.797.606.121.91.424.91 1.01v3.818c-.02.728-.445 1.071-1.152.97-5.131-.848-8.869-3.596-11.192-8.263a10.828 10.828 0 0 1-.808-2.08c-.384-1.192-.424-1.253-1.697-1.293-1.576-.04-2.606-.849-2.95-2.283-.383-1.616.89-3.313 2.586-3.414.243-.02.465-.02.707 0 .728.06 1.112-.344 1.293-.99a14.916 14.916 0 0 1 2.101-4.525c.788-1.152 1.192-1.192 2.182-.243.748.727 1.475 1.495 2.222 2.222.485.465.607.97.182 1.536a5.796 5.796 0 0 0-.565.97c-.344.707-.162 1.01.626 1.01 1.374.02 2.727 0 4.121 0 1.455.02 2.525.909 2.869 2.363.262 1.172-.384 2.606-1.637 3.07-.727.284-1.596.243-2.404.304-.282.04-.585.02-.889.02Z"/>
  <path fill="#1AA64A" d="M22.826 5.455c4.748.202 8.93 2.545 11.798 7.131.99 1.596.707 3.07-.707 3.94-1.515.969-3.212.565-4.162-.97-1.434-2.324-3.454-3.798-6.141-4.303a8.853 8.853 0 0 0-6.222 1.171c-.849.526-1.111.465-1.818-.242L13.31 9.919c-.646-.687-.626-1.151.141-1.717 2.404-1.757 5.697-2.808 9.374-2.747Zm.202 26.181v-1.939a.811.811 0 0 1 .707-.889c2.707-.566 4.707-2.08 6.121-4.424.627-1.05 1.617-1.455 2.788-1.273 1.071.162 1.9.707 2.364 1.717a2.356 2.356 0 0 1-.08 2.081A14.463 14.463 0 0 1 24.2 34.485c-.788.101-1.152-.182-1.172-.97-.02-.606 0-1.232 0-1.878Z"/>
  <path fill="#007EA4" d="M45.332 14.162v13.07h-2.485v-13.07h-4.04V12.08h10.525v2.08h-4Zm3.999 8.181a4.329 4.329 0 0 1 .424-2.02 4.921 4.921 0 0 1 1.172-1.697 5.11 5.11 0 0 1 1.737-1.111 5.64 5.64 0 0 1 4.142 0 4.894 4.894 0 0 1 1.737 1.172 5 5 0 0 1 1.172 1.717 5.192 5.192 0 0 1 .02 4.04 4.92 4.92 0 0 1-1.172 1.697 5.433 5.433 0 0 1-3.879 1.556 5.565 5.565 0 0 1-2.06-.384 5.025 5.025 0 0 1-1.737-1.151 5.297 5.297 0 0 1-1.172-1.718 6.668 6.668 0 0 1-.384-2.1Zm8.465.04a3.197 3.197 0 0 0-.89-2.322 2.815 2.815 0 0 0-2.16-.93c-.83 0-1.597.344-2.163.93a3.44 3.44 0 0 0 0 4.626 2.964 2.964 0 0 0 4.182.141c.04-.04.101-.08.142-.141a3.182 3.182 0 0 0 .889-2.303Zm4.768 4.89v-16.06h2.243v10.302l4.12-4.08h2.768l-4.444 4.323 4.889 5.495h-2.93l-4.424-5.071v5.07h-2.242v.02h.02Zm9.797-4.93a4.329 4.329 0 0 1 .424-2.02 4.921 4.921 0 0 1 1.172-1.697 5.11 5.11 0 0 1 1.738-1.111 5.64 5.64 0 0 1 4.141 0 4.895 4.895 0 0 1 1.737 1.172 5 5 0 0 1 1.172 1.717 5.192 5.192 0 0 1 .02 4.04 4.921 4.921 0 0 1-1.171 1.697 5.434 5.434 0 0 1-3.88 1.556 5.564 5.564 0 0 1-2.06-.384 5.026 5.026 0 0 1-1.737-1.151 5.297 5.297 0 0 1-1.172-1.718 6.144 6.144 0 0 1-.384-2.1Zm8.445.04a3.197 3.197 0 0 0-.89-2.322 2.814 2.814 0 0 0-2.16-.93c-.83 0-1.597.344-2.162.93a3.484 3.484 0 0 0 0 4.626 2.964 2.964 0 0 0 4.181.141c.04-.04.101-.08.142-.141.606-.627.93-1.455.889-2.303Z"/>
  <path fill="#1AA64A" d="M92.907 20.243a2.94 2.94 0 0 0-1.192-.849c-.464-.202-.97-.323-1.474-.303-.91 0-1.677.283-2.223.889-.545.606-.828 1.374-.828 2.364 0 .99.283 1.818.828 2.424.546.606 1.334.889 2.324.889.505.02 1.01-.101 1.454-.303a3.116 3.116 0 0 0 1.111-.93v2.606a5.387 5.387 0 0 1-1.333.526 6.347 6.347 0 0 1-1.515.181c-1.535 0-2.788-.504-3.778-1.474-.99-.97-1.434-2.263-1.434-3.839 0-1.575.505-2.868 1.515-3.818 1.01-.95 2.323-1.454 3.94-1.454.484 0 .949.04 1.413.161a4.72 4.72 0 0 1 1.192.465v2.465Zm4.546-1.253c.182-.566.505-1.05.97-1.434a2.294 2.294 0 0 1 1.474-.465c.323 0 .626.04.929.101.324.08.627.202.91.343l-.809 1.9a1.799 1.799 0 0 0-.626-.304 1.91 1.91 0 0 0-.747-.1c-.748 0-1.273.282-1.616.888-.344.606-.505 1.616-.505 3.03v4.324H95.19v-9.838h2.243v1.555h.02Z"/>
  <path fill="#1AA64A" d="M104.725 31.879h-2.323l2.707-5.475-3.616-8.99h2.505l1.798 5.07.283.93c.081.323.141.646.182.99.182-.566.384-1.111.646-1.636l.061-.122 2.424-5.232h2.445l-7.112 14.465Zm8.304 0V17.434h2.242v1.616a2.895 2.895 0 0 1 1.252-1.434c.627-.364 1.334-.525 2.061-.525a3.918 3.918 0 0 1 3.172 1.454c.808.97 1.212 2.243 1.212 3.798 0 1.637-.384 2.95-1.192 3.9-.808.949-1.899 1.413-3.273 1.413a3.673 3.673 0 0 1-3.252-1.676v5.899h-2.222Zm2.181-9.556c0 1.01.263 1.818.748 2.444a2.53 2.53 0 0 0 2 .91c.848 0 1.515-.283 1.98-.849.464-.566.707-1.374.707-2.424 0-1.05-.243-1.838-.728-2.424a2.54 2.54 0 0 0-2-.89c-.848 0-1.515.284-1.979.87-.465.585-.728 1.353-.728 2.363Zm10.707 4.95v-7.859H124.2v-1.98h1.717v-3.717h2.243v3.717h1.717v1.98h-1.717v7.859h-2.243Zm5.192-4.93a4.595 4.595 0 0 1 .425-2.02 5.186 5.186 0 0 1 2.888-2.808 5.641 5.641 0 0 1 4.142 0 4.892 4.892 0 0 1 1.737 1.172c.505.485.909 1.07 1.172 1.717a5.192 5.192 0 0 1 .02 4.04 4.9 4.9 0 0 1-1.172 1.697c-1.03 1.01-2.424 1.556-3.878 1.556a5.568 5.568 0 0 1-2.061-.384 5.03 5.03 0 0 1-1.737-1.151 5.3 5.3 0 0 1-1.172-1.718c-.242-.687-.384-1.394-.364-2.1Zm8.465.04a3.216 3.216 0 0 0-.909-2.322 2.815 2.815 0 0 0-2.162-.93c-.828 0-1.596.344-2.161.93a3.483 3.483 0 0 0 0 4.626 2.963 2.963 0 0 0 4.181.141c.041-.04.101-.08.142-.141a3.378 3.378 0 0 0 .909-2.303Z"/>
</svg>
