<svg xmlns="http://www.w3.org/2000/svg" width="136" height="24" fill="none" viewBox="0 0 136 24">
  <g clip-path="url(#a)">
    <path fill="#0052FF" d="M27.833 6.7c-4.88 0-8.694 3.705-8.694 8.665 0 4.96 3.717 8.634 8.694 8.634s8.759-3.737 8.759-8.665c0-4.897-3.718-8.634-8.76-8.634Zm.033 13.724c-2.78 0-4.816-2.158-4.816-5.057 0-2.932 2.003-5.09 4.783-5.09 2.812 0 4.848 2.19 4.848 5.09 0 2.899-2.036 5.057-4.815 5.057Zm9.792-9.954h2.424v13.208h3.878V7.022h-6.302v3.448Zm-28.28-.194c2.037 0 3.653 1.256 4.266 3.125h4.105c-.744-3.994-4.04-6.7-8.338-6.7-4.88 0-8.694 3.704-8.694 8.666C.717 20.327 4.434 24 9.41 24c4.202 0 7.563-2.706 8.307-6.733h-4.074c-.582 1.868-2.197 3.157-4.234 3.157-2.812 0-4.783-2.158-4.783-5.057.001-2.932 1.94-5.09 4.751-5.09Zm101.969 3.48-2.844-.419c-1.357-.192-2.327-.644-2.327-1.707 0-1.16 1.261-1.74 2.973-1.74 1.875 0 3.071.806 3.329 2.127h3.75c-.421-3.35-3.007-5.315-6.981-5.315-4.105 0-6.82 2.094-6.82 5.057 0 2.834 1.778 4.478 5.365 4.993l2.844.418c1.39.193 2.166.742 2.166 1.772 0 1.321-1.357 1.869-3.232 1.869-2.295 0-3.588-.934-3.782-2.352h-3.814c.357 3.254 2.909 5.541 7.563 5.541 4.234 0 7.045-1.933 7.045-5.252 0-2.963-2.035-4.51-5.235-4.992ZM42.021.16c-1.422 0-2.489 1.03-2.489 2.448 0 1.417 1.066 2.447 2.49 2.447 1.421 0 2.488-1.03 2.488-2.447S43.443.16 42.021.16Zm56.915 12.564c0-3.607-2.197-6.023-6.851-6.023-4.396 0-6.852 2.223-7.337 5.638h3.846c.194-1.321 1.228-2.416 3.426-2.416 1.972 0 2.942.87 2.942 1.933 0 1.385-1.779 1.739-3.976 1.965-2.973.321-6.658 1.352-6.658 5.218 0 2.997 2.23 4.928 5.786 4.928 2.78 0 4.524-1.16 5.398-2.996.13 1.643 1.357 2.706 3.07 2.706h2.263V20.23h-1.907v-7.506h-.002Zm-3.813 4.188c0 2.223-1.94 3.866-4.3 3.866-1.454 0-2.682-.612-2.682-1.9 0-1.643 1.972-2.094 3.782-2.287 1.745-.16 2.714-.547 3.2-1.289v1.61ZM74.535 6.7c-2.166 0-3.976.903-5.268 2.416V0h-3.879v23.678h3.814v-2.19C70.495 23.066 72.338 24 74.535 24c4.654 0 8.177-3.672 8.177-8.633 0-4.962-3.588-8.667-8.177-8.667Zm-.581 13.724c-2.78 0-4.817-2.158-4.817-5.057 0-2.9 2.069-5.09 4.848-5.09 2.813 0 4.783 2.159 4.783 5.09 0 2.899-2.035 5.057-4.814 5.057ZM56.112 6.7c-2.52 0-4.17 1.03-5.139 2.48V7.023h-3.847v16.655h3.879v-9.052c0-2.545 1.615-4.349 4.007-4.349 2.23 0 3.62 1.578 3.62 3.866v9.536h3.878v-9.825c.002-4.19-2.163-7.153-6.398-7.153Zm78.958 8.12c0-4.768-3.491-8.118-8.177-8.118-4.977 0-8.63 3.736-8.63 8.665 0 5.186 3.911 8.633 8.695 8.633 4.04 0 7.207-2.384 8.014-5.766h-4.04c-.582 1.482-2.004 2.32-3.911 2.32-2.489 0-4.364-1.547-4.784-4.253h12.832v-1.482h.001Zm-12.606-1.29c.615-2.32 2.36-3.446 4.364-3.446 2.198 0 3.878 1.256 4.266 3.446h-8.63Z"/>
  </g>
  <defs>
    <clipPath id="a">
      <path fill="#fff" d="M.717 0h134.625v24H.717z"/>
    </clipPath>
  </defs>
</svg>
