<svg xmlns="http://www.w3.org/2000/svg" width="154" height="24" fill="none" viewBox="0 0 154 24">
  <path fill="#fff" d="M14.762.031a15.22 15.22 0 0 1 7.716 1.543c3.508 1.723 6.298 4.836 7.617 8.505.583 1.624.897 3.338.897 5.06v6.397c0 .26.009.53-.054.78a2.18 2.18 0 0 1-1.211 1.49c-.422.198-.906.224-1.355.153-.978-.18-1.732-1.095-1.74-2.082-.01-1.982 0-3.965 0-5.957.017-.565.017-1.166-.288-1.66-.493-.915-1.695-1.354-2.655-.96a2.175 2.175 0 0 0-1.418 1.983c-.009 2.019 0 4.028 0 6.038 0 .377.018.763-.09 1.121a2.21 2.21 0 0 1-1.507 1.48c-.933.261-2-.152-2.476-1.013-.323-.52-.296-1.148-.287-1.723-.009-2 .009-4-.009-6.002-.018-1.013-.852-1.928-1.866-2.063a2.167 2.167 0 0 0-1.821.583c-.43.404-.673.987-.673 1.58v5.83c-.01.494.054.997-.135 1.454-.287.834-1.13 1.445-2.018 1.418-.906.053-1.795-.575-2.082-1.427-.161-.422-.125-.87-.125-1.319 0-2.01.009-4.019 0-6.038-.01-.995-.78-1.902-1.759-2.081-.88-.189-1.857.26-2.306 1.059a2.24 2.24 0 0 0-.287 1.094v6.531a2.167 2.167 0 0 1-.771 1.67c-.736.645-1.93.681-2.71.089a2.09 2.09 0 0 1-.897-1.723V15.23a15.254 15.254 0 0 1 1.83-7.195A15.365 15.365 0 0 1 6.203 3.36 15.131 15.131 0 0 1 14.762.03Zm59.465 7.671h-3.31c.116-2.324.6-4.414 2.727-5.733C75.752.659 78.076.363 80.489.56c1.31.108 2.584.386 3.786.943 2.109.968 3.15 2.628 3.15 4.934.008 4.091 0 8.191 0 12.282 0 1.507.305 1.786 1.812 1.633.161-.018.323-.045.493-.072.018.081.036.144.036.207v2.485c-1.202.403-2.404.53-3.616.206-.879-.242-1.444-.88-1.749-1.722-.152-.431-.242-.88-.386-1.382-.125.143-.233.278-.359.395-2.61 2.646-5.724 3.759-9.384 2.835-2.593-.655-4.387-3.033-4.45-5.715-.018-.861.054-1.74.26-2.575.476-1.938 1.848-3.104 3.598-3.885 1.229-.556 2.539-.718 3.858-.88 1.543-.197 3.086-.385 4.629-.6 1.05-.144 1.58-.7 1.74-1.759.333-2.099-.6-3.517-2.655-4.019a8.749 8.749 0 0 0-3.705-.117c-1.83.332-2.853 1.364-3.212 3.185a7.037 7.037 0 0 1-.108.763Zm9.752 4.064c-1.525.825-3.005 1.023-4.495 1.247-1.255.198-2.53.377-3.732.772-1.615.53-2.332 1.857-2.198 3.633.117 1.48 1.13 2.674 2.719 2.934 2.467.413 4.656-.27 6.379-2.1.502-.529.906-1.3 1.013-2.018.225-1.427.216-2.889.314-4.468Zm47.128 4.271c-.08.359-.125.664-.215.95-1.435 4.343-4.315 6.218-7.823 6.604-6.083.673-9.555-3.31-10.452-7.536-.709-3.356-.61-6.693.861-9.851 1.391-2.979 3.634-4.943 6.971-5.527 3.984-.7 9.645 1.265 10.596 7.51.242 1.606.296 3.247.448 4.943h-15.458c.135 2.288.493 4.423 2.162 6.092.691.69 1.579 1.023 2.539 1.184 3.14.547 5.715-.95 6.738-3.956.108-.323.251-.422.583-.413.996.018 1.992 0 3.05 0Zm-14.946-5.85h11.573c-.126-1.336-.368-2.592-.987-3.759-.601-1.13-1.498-1.938-2.718-2.35-4.002-1.373-8.138 1.82-7.868 6.11Zm23.272 12.677h-3.517V1.044h3.337v3.06c.252-.287.413-.466.566-.637C142.205.74 145.22.022 148.629.865c2.377.583 3.696 2.261 4.145 4.612.188.96.296 1.947.305 2.925.036 4.683.018 9.366.018 14.05 0 .125-.018.26-.027.412h-3.598v-.592c0-4.37.027-8.748-.018-13.117a10.47 10.47 0 0 0-.421-2.889c-.458-1.534-1.678-2.35-3.284-2.404-2.916-.099-5.239 1.444-5.948 4.055-.251.933-.332 1.938-.341 2.916-.036 3.795-.018 7.599-.027 11.394v.637ZM93.166 1.045h3.391v9.24c.216-.206.341-.313.467-.43 2.772-2.826 5.553-5.661 8.317-8.496.233-.242.466-.35.807-.35 1.301.018 2.611.009 4.046.009-.197.206-.305.332-.421.458-2.441 2.449-4.872 4.898-7.33 7.338-.278.27-.287.449-.09.772 2.665 4.244 5.311 8.487 7.967 12.74.099.152.188.305.314.53-.18.017-.314.035-.449.035-1.211 0-2.422-.009-3.633.009-.332.009-.494-.117-.655-.386-2.028-3.418-4.073-6.827-6.11-10.245-.09-.153-.188-.297-.305-.476-.942.933-1.857 1.84-2.763 2.772-.117.117-.144.35-.144.539-.009 2.395-.009 4.782-.009 7.177v.619c-.673 0-1.319.009-1.965 0-.466-.009-1.085.117-1.354-.126-.234-.215-.09-.86-.09-1.319V1.7c.009-.215.009-.422.009-.655Zm-39.072-.027c-2.754 2.727-5.428 5.392-8.12 8.056l8.605 13.79c-.234.009-.377.027-.53.027-1.175 0-2.36-.01-3.535.009-.34.009-.529-.117-.7-.404-2.027-3.418-4.072-6.827-6.109-10.245-.08-.144-.17-.279-.305-.494-.52.538-.969 1.113-1.534 1.534-1.14.861-1.48 1.938-1.39 3.347.116 1.857.026 3.732.026 5.598v.61h-3.364V1.036h3.346v9.106c.072.045.144.099.215.144.09-.153.144-.341.26-.458 2.755-2.826 5.527-5.634 8.281-8.46.243-.251.485-.377.853-.368 1.148.027 2.297.009 3.436.009.161.009.323.009.565.009Zm6.719 3.616C62.518 2.14 64.33.06 67.695.66v3.732c-.897.063-1.777.036-2.611.206-2.073.43-3.67 2.324-3.983 4.603-.063.448-.09.915-.09 1.372-.01 3.894 0 7.797 0 11.69v.602h-3.508V1.055h3.32c-.01 1.166-.01 2.314-.01 3.58Z"/>
</svg>
