<svg xmlns="http://www.w3.org/2000/svg" width="94" height="28" fill="none" viewBox="0 0 94 28">
  <path fill="#fff" d="M27.618 0H.863a.622.622 0 0 0-.622.622v26.755A.622.622 0 0 0 .863 28h26.755a.621.621 0 0 0 .623-.622V.622A.622.622 0 0 0 27.618 0Zm-8.71 18.044a.622.622 0 0 1-.623.622h-8.088a.623.623 0 0 1-.623-.622V9.955a.622.622 0 0 1 .623-.622h8.088a.622.622 0 0 1 .622.622v8.09Zm64.725-8.71h-8.089a.622.622 0 0 0-.622.622v8.09c0 .343.279.621.622.621h8.089a.622.622 0 0 0 .622-.622V9.956a.622.622 0 0 0-.622-.622ZM74.296 0h-8.089a.622.622 0 0 0-.622.623v8.089c0 .343.279.622.622.622h8.089a.622.622 0 0 0 .622-.622V.623a.622.622 0 0 0-.622-.622Zm18.666 0h-8.089a.622.622 0 0 0-.622.623v8.089c0 .343.279.622.622.622h8.089a.622.622 0 0 0 .622-.622V.623a.622.622 0 0 0-.622-.622ZM74.296 18.667h-8.089a.622.622 0 0 0-.622.622v8.089c0 .343.279.622.622.622h8.089a.622.622 0 0 0 .622-.622v-8.09a.622.622 0 0 0-.622-.621Zm18.666 0h-8.089a.622.622 0 0 0-.622.622v8.089c0 .343.279.622.622.622h8.089a.622.622 0 0 0 .622-.622v-8.09a.622.622 0 0 0-.622-.621ZM60.284 0h-8.088a.622.622 0 0 0-.623.623v8.089c0 .343.279.622.623.622h8.088a.622.622 0 0 0 .622-.622V.623a.622.622 0 0 0-.622-.622Zm0 18.667h-8.088a.622.622 0 0 0-.623.622v8.089c0 .343.279.622.623.622h8.088a.622.622 0 0 0 .622-.622v-8.09a.622.622 0 0 0-.622-.621Zm-8.71-8.719a.622.622 0 0 0-.623-.622h-8.71V.622A.622.622 0 0 0 41.617 0H33.53a.622.622 0 0 0-.622.622v26.741a.622.622 0 0 0 .623.622h8.088a.622.622 0 0 0 .622-.622V18.66h8.711a.623.623 0 0 0 .623-.622v-8.09Z"/>
</svg>
