<svg xmlns="http://www.w3.org/2000/svg" width="157" height="28" fill="none" viewBox="0 0 157 28">
  <g clip-path="url(#a)">
    <path fill="#01C38D" fill-rule="evenodd" d="m17.448 0-2.232 1.267V12.03l1.218.692V4.526l4.187 2.376h.004l.814.459.679-.384v-.646l-5.684-3.22V1.99l1.014-.575 5.884 3.341V7.73l-2.826 1.594-.095-.045a1.181 1.181 0 0 0-.528-.128c-.673 0-1.218.554-1.218 1.233 0 .68.549 1.234 1.218 1.234.623 0 1.142-.475 1.204-1.109l.014-.105 2.851-1.608 2.645 1.5v6.639l-2.648 1.5-10.758-6.108V1.266L10.957 0 3.855 4.033v3.68L.593 9.562v8.09l3.262 1.85v3.686l7.102 4.033 2.231-1.267V15.168l-1.22-.692v8.22l-5.002-2.835-.68.384v.647l5.681 3.22v1.118l-1.014.575-5.877-3.338v-2.973L7.9 17.899l.095.046a1.2 1.2 0 0 0 .529.128 1.23 1.23 0 0 0 1.22-1.234 1.23 1.23 0 0 0-1.22-1.234c-.624 0-1.142.476-1.205 1.109l-.01.105-2.851 1.608-2.645-1.5v-6.642l2.648-1.5 10.754 6.11v11.06l2.235 1.267 7.105-4.033V19.51l3.262-1.85V9.572l-3.262-1.851V4.033L17.448 0ZM5.076 4.755l5.88-3.34 1.015.574v1.119L5.076 7.02V4.755Zm.633 3.325 6.265-3.554v7.108L5.709 8.08Zm10.725 7.505 6.265 3.557-6.265 3.555v-7.112Zm0 9.645v-1.119l6.898-3.912v2.265l-5.884 3.344-1.014-.578Z" clip-rule="evenodd"/>
    <path fill="#fff" fill-rule="evenodd" d="M109.99 19.763c.856 0 1.555-.266 2.094-.794.538-.529.81-1.182.81-1.953 0-.775-.269-1.424-.81-1.953-.542-.528-1.241-.794-2.094-.794h-4.28v5.494h4.28Zm-4.28-8.24h3.975c.692 0 1.273-.23 1.742-.687.47-.46.703-.99.703-1.601 0-.61-.237-1.145-.703-1.602-.466-.456-1.05-.686-1.742-.686h-3.975v4.575Zm43.293-2.797c.608 0 1.156.082 1.641.243.486.16.903.335 1.247.515.384.223.739.476 1.064.758l.607-1.365h2.586V21.93c0 1.821-.584 3.288-1.749 4.4-1.165 1.113-2.813 1.671-4.943 1.671-1.296 0-2.346-.233-3.147-.699-.801-.466-1.434-.991-1.9-1.579a6.43 6.43 0 0 1-.482-.712l2.796-1.565c.141.262.334.495.577.699.223.16.506.315.85.456.345.141.781.213 1.306.213.995 0 1.776-.269 2.34-.804.568-.538.853-1.227.853-2.08v-1.064a5.06 5.06 0 0 1-.971.759c-.325.203-.709.38-1.155.531a4.738 4.738 0 0 1-1.52.227 6.056 6.056 0 0 1-2.477-.516 6.278 6.278 0 0 1-2.038-1.427 6.754 6.754 0 0 1-1.369-2.156c-.334-.83-.502-1.74-.502-2.73 0-.992.168-1.9.502-2.731a6.754 6.754 0 0 1 1.369-2.156 6.277 6.277 0 0 1 2.038-1.428 6.157 6.157 0 0 1 2.477-.512Zm-24.022 0c.952 0 1.851.187 2.691.561.84.374 1.582.886 2.218 1.533a7.348 7.348 0 0 1 1.52 2.261c.374.86.561 1.785.561 2.776 0 .992-.187 1.917-.561 2.777a7.4 7.4 0 0 1-1.52 2.261 7.188 7.188 0 0 1-2.218 1.532 6.534 6.534 0 0 1-2.691.562 6.544 6.544 0 0 1-2.691-.562 7.204 7.204 0 0 1-2.219-1.532 7.416 7.416 0 0 1-1.519-2.261 6.886 6.886 0 0 1-.564-2.777c0-.99.187-1.916.564-2.776a7.416 7.416 0 0 1 1.519-2.261 7.24 7.24 0 0 1 2.219-1.533 6.556 6.556 0 0 1 2.691-.56ZM41.657 3.567c.952 0 1.818.151 2.6.456a6.071 6.071 0 0 1 2.02 1.274 5.556 5.556 0 0 1 1.307 1.926c.213.519.348 1.07.41 1.654H44.46a2.369 2.369 0 0 0-.68-1.244c-.508-.485-1.217-.728-2.13-.728-.912 0-1.62.223-2.13.666-.505.446-.76.932-.76 1.457 0 .568.242 1.001.728 1.306.486.302 1.096.578 1.824.82.729.244 1.526.496 2.386.759.86.262 1.658.617 2.386 1.063a5.862 5.862 0 0 1 1.825 1.746c.486.719.728 1.654.728 2.81a4.3 4.3 0 0 1-.502 2.001 5.81 5.81 0 0 1-1.414 1.746c-.607.515-1.342.932-2.206 1.244-.863.315-1.818.469-2.871.469-1.076 0-2.032-.151-2.872-.456-.84-.302-1.555-.732-2.143-1.29a5.63 5.63 0 0 1-1.352-1.972c-.315-.758-.472-1.592-.472-2.504h3.649c0 .85.285 1.542.853 2.08.568.539 1.35.804 2.34.804 1.073 0 1.874-.226 2.402-.682.529-.456.791-.988.791-1.595 0-.587-.243-1.044-.732-1.365-.485-.325-1.092-.61-1.824-.867a42.894 42.894 0 0 0-2.386-.745 10.248 10.248 0 0 1-2.386-1 5.797 5.797 0 0 1-1.825-1.655c-.485-.676-.728-1.572-.728-2.684 0-.729.157-1.428.472-2.094.316-.67.762-1.25 1.34-1.746.577-.495 1.276-.896 2.096-1.198.828-.305 1.756-.456 2.79-.456Zm52.6 5.16c1.684 0 2.973.403 3.876 1.213.472.424.84.903 1.11 1.438l-2.856 1.598c-.082-.302-.299-.607-.653-.909-.355-.302-.798-.456-1.323-.456-.528 0-.938.131-1.23.394-.296.262-.44.587-.44.971 0 .325.177.578.532.758.354.18.794.348 1.322.502.525.151 1.1.315 1.72.486.617.17 1.191.42 1.716.745a4.38 4.38 0 0 1 1.323 1.26c.354.515.531 1.188.531 2.018 0 .568-.121 1.11-.364 1.625a4.046 4.046 0 0 1-1.034 1.352 5.186 5.186 0 0 1-1.627.925c-.637.233-1.353.348-2.144.348-1.824 0-3.206-.413-4.15-1.244a4.686 4.686 0 0 1-1.212-1.67l2.927-1.637c.082.466.302.86.67 1.18.364.326.85.487 1.46.487s1.09-.155 1.444-.47c.355-.315.532-.663.532-1.047 0-.325-.177-.577-.532-.758a7.452 7.452 0 0 0-1.322-.498c-.529-.151-1.1-.309-1.72-.47a6.62 6.62 0 0 1-1.716-.712 4.334 4.334 0 0 1-1.323-1.214c-.354-.496-.531-1.149-.531-1.96a3.862 3.862 0 0 1 1.365-2.973 5.29 5.29 0 0 1 1.582-.925c.607-.243 1.296-.358 2.067-.358Zm-12.313 0c1.683 0 2.973.403 3.876 1.213.469.424.837.903 1.106 1.438l-2.856 1.598c-.081-.302-.298-.607-.653-.909-.354-.302-.797-.456-1.322-.456-.528 0-.939.131-1.23.394-.296.262-.44.587-.44.971 0 .325.177.578.531.758a7.7 7.7 0 0 0 1.323.502c.525.151 1.1.315 1.72.486.616.17 1.19.42 1.719.745.525.325.968.745 1.322 1.26.355.515.532 1.188.532 2.018 0 .568-.121 1.11-.364 1.625a4.047 4.047 0 0 1-1.034 1.352 5.186 5.186 0 0 1-1.628.925c-.64.233-1.352.348-2.143.348-1.824 0-3.21-.413-4.151-1.244a4.636 4.636 0 0 1-1.208-1.67l2.928-1.637a2 2 0 0 0 .67 1.18c.363.326.852.487 1.46.487.607 0 1.089-.155 1.443-.47.355-.315.532-.663.532-1.047 0-.325-.177-.577-.532-.758a7.452 7.452 0 0 0-1.322-.498c-.528-.151-1.1-.309-1.72-.47a6.622 6.622 0 0 1-1.716-.712 4.336 4.336 0 0 1-1.323-1.214c-.354-.496-.531-1.149-.531-1.96A3.91 3.91 0 0 1 78.3 10.01a5.29 5.29 0 0 1 1.582-.925c.6-.243 1.29-.358 2.06-.358Zm28.046-4.99c.837 0 1.611.142 2.323.428a5.925 5.925 0 0 1 1.851 1.158 5.252 5.252 0 0 1 1.208 1.693c.285.64.427 1.33.427 2.061 0 .653-.122 1.211-.368 1.68-.246.47-.509.844-.794 1.13-.345.344-.722.63-1.132.853.571.266 1.079.61 1.529 1.037.387.364.738.853 1.057 1.467.315.61.476 1.352.476 2.228a4.93 4.93 0 0 1-.46 2.09 5.259 5.259 0 0 1-1.3 1.74c-.561.499-1.224.9-1.988 1.204-.765.305-1.605.46-2.524.46h-8.257V3.735h7.952v.003Zm-57.237 5.14 2.737 8.953 2.888-8.953h2.126l2.888 8.953 2.737-8.953h3.495l-4.561 13.96h-3.04l-2.585-8.345-2.586 8.346h-3.043l-4.561-13.96h3.505Zm21.741 0v13.964H71V8.877h3.495Zm65.839-.15c.161 0 .302.009.427.029.121.02.233.04.334.059l.302.062v3.643c-.101-.02-.213-.04-.334-.06a9.398 9.398 0 0 0-.381-.062 3.896 3.896 0 0 0-.502-.03c-.853 0-1.546.28-2.084.835-.538.554-.807 1.29-.807 2.198v7.44h-3.499V8.877h2.586l.607 1.516c.243-.302.539-.574.883-.82a4.33 4.33 0 0 1 1.05-.59 3.71 3.71 0 0 1 1.418-.257Zm-15.352 3.337c-.994 0-1.825.344-2.494 1.03-.67.69-1.004 1.608-1.004 2.763 0 1.156.334 2.075 1.004 2.764.669.689 1.5 1.03 2.494 1.03.991 0 1.825-.344 2.494-1.03.67-.69 1.004-1.608 1.004-2.76 0-1.155-.334-2.074-1.004-2.764-.669-.689-1.5-1.033-2.494-1.033Zm24.479 0c-.466 0-.903.092-1.31.272a3.37 3.37 0 0 0-1.063.745 3.488 3.488 0 0 0-.716 1.11 3.63 3.63 0 0 0-.259 1.364c0 .486.086.942.259 1.366a3.423 3.423 0 0 0 1.779 1.85c.407.181.84.273 1.306.273.447 0 .87-.089 1.277-.272.404-.18.761-.43 1.063-.745.305-.315.548-.683.732-1.106a3.44 3.44 0 0 0 .272-1.365 3.44 3.44 0 0 0-.272-1.366 3.694 3.694 0 0 0-.732-1.109 3.413 3.413 0 0 0-1.063-.745 3.15 3.15 0 0 0-1.273-.272ZM72.745 3.11c.525 0 .988.197 1.385.59.394.395.594.857.594 1.382 0 .526-.197.988-.594 1.382-.397.394-.856.59-1.385.59-.525 0-.988-.196-1.382-.59-.393-.394-.594-.853-.594-1.382 0-.525.197-.987.594-1.381.394-.394.854-.59 1.382-.59Z" clip-rule="evenodd"/>
  </g>
  <defs>
    <clipPath id="a">
      <path fill="#fff" d="M.593 0h155.556v28H.593z"/>
    </clipPath>
  </defs>
</svg>
