<svg width="36" height="36" viewBox="0 0 36 36" fill="none" xmlns="http://www.w3.org/2000/svg">
<g clip-path="url(#clip0_1822_33481)">
<path d="M36 0H0V36H36V0Z" fill="#FE815F"/>
<path opacity="0.8" fill-rule="evenodd" clip-rule="evenodd" d="M27.6676 22.4112C27.6676 26.0725 24.655 29.0407 20.9387 29.0407H8.22852V24.621H20.9387C22.1775 24.621 23.1817 23.6316 23.1817 22.4112C23.1817 21.1907 22.1775 20.2014 20.9387 20.2014H16.4528V15.7817H20.9387C22.1775 15.7817 23.1817 14.7923 23.1817 13.5719C23.1817 12.3514 22.1775 11.362 20.9387 11.362H8.22852V6.94238H20.9387C24.655 6.94238 27.6676 9.9105 27.6676 13.5719C27.6676 15.2698 27.0197 16.8186 25.9542 17.9915C27.0197 19.1644 27.6676 20.7132 27.6676 22.4112Z" fill="white"/>
<path opacity="0.12" d="M8.22852 24.621H19.1453C16.8264 27.3047 13.1345 29.0407 8.97617 29.0407C8.72519 29.0407 8.4759 29.0343 8.22852 29.0219V24.621ZM21.4321 20.2014H17.2004V15.7817H21.4321C21.5988 16.4957 21.6864 17.2347 21.6864 17.9915C21.6864 18.7483 21.5988 19.4873 21.4321 20.2014ZM19.1453 11.362H8.22852V6.96118C8.4759 6.94871 8.72519 6.94238 8.97617 6.94238C13.1345 6.94238 16.8264 8.67832 19.1453 11.362Z" fill="black"/>
<path d="M8.22852 6.94238C14.4223 6.94238 19.4434 11.8893 19.4434 17.9915C19.4434 24.0938 14.4223 29.0407 8.22852 29.0407V24.621C11.9448 24.621 14.9574 21.6529 14.9574 17.9915C14.9574 14.3302 11.9448 11.362 8.22852 11.362V6.94238Z" fill="white"/>
</g>
<defs>
<clipPath id="clip0_1822_33481">
<rect width="36" height="36" rx="18" fill="white"/>
</clipPath>
</defs>
</svg>
