<svg xmlns="http://www.w3.org/2000/svg" width="36" height="36" viewBox="0 0 36 36" fill="none">
  <rect width="36" height="36" rx="18" fill="#5865F2" />
  <path
    d="M25.6006 10.3926C24.2378 9.74804 22.7764 9.27314 21.2484 9.00114C21.2206 8.99589 21.1928 9.00901 21.1785 9.03525C20.9905 9.37983 20.7823 9.82938 20.6365 10.1827C18.9931 9.92909 17.3581 9.92909 15.7483 10.1827C15.6025 9.82152 15.3868 9.37983 15.198 9.03525C15.1836 9.00989 15.1558 8.99677 15.128 9.00114C13.6009 9.27227 12.1395 9.74717 10.7758 10.3926C10.764 10.3979 10.7539 10.4066 10.7472 10.418C7.9752 14.6869 7.21584 18.8509 7.58836 22.9633C7.59005 22.9834 7.601 23.0026 7.61617 23.0148C9.44504 24.3993 11.2166 25.2398 12.9553 25.7969C12.9831 25.8057 13.0126 25.7952 13.0303 25.7716C13.4416 25.1926 13.8082 24.5821 14.1226 23.9402C14.1411 23.9026 14.1234 23.858 14.0855 23.8431C13.504 23.6157 12.9502 23.3384 12.4176 23.0236C12.3754 22.9982 12.3721 22.9361 12.4108 22.9064C12.5229 22.8198 12.635 22.7297 12.7421 22.6388C12.7614 22.6221 12.7884 22.6186 12.8112 22.6291C16.3105 24.276 20.0988 24.276 23.5568 22.6291C23.5796 22.6178 23.6066 22.6213 23.6268 22.6379C23.7338 22.7288 23.8459 22.8198 23.9588 22.9064C23.9976 22.9361 23.9951 22.9982 23.9529 23.0236C23.4203 23.3446 22.8666 23.6157 22.2842 23.8422C22.2463 23.8571 22.2294 23.9026 22.248 23.9402C22.5691 24.5812 22.9357 25.1917 23.3394 25.7707C23.3562 25.7952 23.3866 25.8057 23.4144 25.7969C25.1615 25.2398 26.9331 24.3993 28.7619 23.0148C28.7779 23.0026 28.7881 22.9842 28.7898 22.9641C29.2356 18.2098 28.043 14.0799 25.6284 10.4189C25.6225 10.4066 25.6124 10.3979 25.6006 10.3926ZM14.6451 20.4593C13.5916 20.4593 12.7235 19.4622 12.7235 18.2378C12.7235 17.0133 13.5748 16.0163 14.6451 16.0163C15.7239 16.0163 16.5835 17.0221 16.5667 18.2378C16.5667 19.4622 15.7154 20.4593 14.6451 20.4593ZM21.7499 20.4593C20.6964 20.4593 19.8283 19.4622 19.8283 18.2378C19.8283 17.0133 20.6795 16.0163 21.7499 16.0163C22.8287 16.0163 23.6883 17.0221 23.6715 18.2378C23.6715 19.4622 22.8287 20.4593 21.7499 20.4593Z"
    fill="white"
  />
</svg>
