<svg width="36" height="36" viewBox="0 0 36 36" fill="none" xmlns="http://www.w3.org/2000/svg">
  <rect width="36" height="36" rx="18" fill="#0A66C2" />
  <g clip-path="url(#clip0_1822_33777)">
    <path
      d="M7.5 10.3013C7.5 9.62561 7.73649 9.06817 8.20946 8.629C8.68243 8.1898 9.2973 7.97021 10.0541 7.97021C10.7973 7.97021 11.3986 8.18642 11.8581 8.61886C12.3311 9.06481 12.5676 9.64588 12.5676 10.3621C12.5676 11.0108 12.3378 11.5513 11.8784 11.9837C11.4054 12.4297 10.7838 12.6526 10.0135 12.6526H9.99324C9.24999 12.6526 8.64866 12.4297 8.18919 11.9837C7.72972 11.5378 7.5 10.977 7.5 10.3013ZM7.76351 28.0378V14.4972H12.2635V28.0378H7.76351ZM14.7568 28.0378H19.2568V20.477C19.2568 20.004 19.3108 19.6391 19.4189 19.3824C19.6081 18.9229 19.8953 18.5344 20.2804 18.2168C20.6655 17.8993 21.1486 17.7405 21.7297 17.7405C23.2432 17.7405 24 18.7607 24 20.8013V28.0378H28.5V20.2743C28.5 18.2743 28.027 16.7574 27.0811 15.7236C26.1351 14.6898 24.8851 14.1729 23.3311 14.1729C21.5878 14.1729 20.2297 14.9229 19.2568 16.4229V16.4635H19.2365L19.2568 16.4229V14.4972H14.7568C14.7838 14.9297 14.7973 16.2743 14.7973 18.531C14.7973 20.7878 14.7838 23.9567 14.7568 28.0378Z"
      fill="white"
    />
  </g>
  <defs>
    <clipPath id="clip0_1822_33777">
      <rect x="7.5" y="7.5" width="21" height="21" fill="white" />
    </clipPath>
  </defs>
</svg>
